<?xml version="1.0" encoding="UTF-8"?>
<!DOCTYPE svg PUBLIC "-//W3C//DTD SVG 1.1//EN" "http://www.w3.org/Graphics/SVG/1.1/DTD/svg11.dtd">
<!-- Creator: CorelDRAW 2018 (64-Bit) -->
<svg xmlns="http://www.w3.org/2000/svg" xml:space="preserve" width="198.585mm" height="198.14mm" version="1.1" style="shape-rendering:geometricPrecision; text-rendering:geometricPrecision; image-rendering:optimizeQuality; fill-rule:evenodd; clip-rule:evenodd"
viewBox="0 0 15793.36 15757.98"
 xmlns:xlink="http://www.w3.org/1999/xlink">
 <defs>
  <style type="text/css">
   <![CDATA[
    .fil0 {fill:#FEFEFE}
   ]]>
  </style>
 </defs>
 <g id="Слой_x0020_1">
  <metadata id="CorelCorpID_0Corel-Layer"/>
  <path class="fil0" d="M3091.92 225.7l2457.53 2457.53c351.08,351.08 351.08,952.92 0,1304l-1554.76 1504.61c952.92,1655.07 1755.38,2658.15 2808.61,3711.38 1003.07,1003.07 2006.15,1805.54 3460.61,2557.85l1554.76 -1554.76c351.08,-351.08 952.92,-351.08 1304,0l2407.38 2457.53c351.08,300.92 351.08,852.61 0,1153.54 -401.23,401.23 -802.46,802.46 -1203.69,1203.69 -4062.46,4012.31 -17603.98,-9479.06 -13591.67,-13541.52 401.23,-401.23 802.46,-802.46 1203.69,-1253.85 300.92,-300.92 852.61,-300.92 1153.54,0z"/>
 </g>
</svg>
