<?xml version="1.0" encoding="UTF-8"?>
<!DOCTYPE svg PUBLIC "-//W3C//DTD SVG 1.1//EN" "http://www.w3.org/Graphics/SVG/1.1/DTD/svg11.dtd">
<!-- Creator: CorelDRAW 2018 (64-Bit) -->
<svg xmlns="http://www.w3.org/2000/svg" xml:space="preserve" width="495.935mm" height="402.167mm" version="1.1" style="shape-rendering:geometricPrecision; text-rendering:geometricPrecision; image-rendering:optimizeQuality; fill-rule:evenodd; clip-rule:evenodd"
viewBox="0 0 14870.09 12058.54"
 xmlns:xlink="http://www.w3.org/1999/xlink">
 <defs>
  <style type="text/css">
   <![CDATA[
    .str32 {stroke:#D95B21;stroke-width:25.38;stroke-miterlimit:22.9256}
    .str35 {stroke:#B75020;stroke-width:25.38;stroke-miterlimit:22.9256}
    .str6 {stroke:#974B1E;stroke-width:25.38;stroke-miterlimit:22.9256}
    .str5 {stroke:#72088C;stroke-width:25.38;stroke-miterlimit:22.9256}
    .str31 {stroke:#ACB1B5;stroke-width:25.38;stroke-miterlimit:22.9256}
    .str30 {stroke:#848A8F;stroke-width:20.31;stroke-miterlimit:22.9256}
    .str29 {stroke:#ACB1B5;stroke-width:20.31;stroke-miterlimit:22.9256}
    .str28 {stroke:#2B2A29;stroke-width:6;stroke-miterlimit:22.9256}
    .str33 {stroke:#D95B21;stroke-width:40.62;stroke-miterlimit:22.9256}
    .str34 {stroke:#D95B21;stroke-width:2.28;stroke-miterlimit:22.9256}
    .str3 {stroke:#521A26;stroke-width:26.41;stroke-linecap:round;stroke-linejoin:round;stroke-miterlimit:22.9256}
    .str4 {stroke:#521A26;stroke-width:26.41;stroke-linecap:round;stroke-linejoin:round;stroke-miterlimit:22.9256}
    .str0 {stroke:#521A26;stroke-width:26.41;stroke-linecap:round;stroke-linejoin:round;stroke-miterlimit:22.9256}
    .str1 {stroke:#521A26;stroke-width:26.41;stroke-linecap:round;stroke-linejoin:round;stroke-miterlimit:22.9256}
    .str2 {stroke:#521A26;stroke-width:26.41;stroke-linecap:round;stroke-linejoin:round;stroke-miterlimit:22.9256}
    .str11 {stroke:#6E7677;stroke-width:24.21;stroke-linecap:round;stroke-linejoin:round;stroke-miterlimit:22.9256}
    .str12 {stroke:#6E7677;stroke-width:24.21;stroke-linecap:round;stroke-linejoin:round;stroke-miterlimit:22.9256}
    .str14 {stroke:#A3084B;stroke-width:24.21;stroke-linecap:round;stroke-linejoin:round;stroke-miterlimit:22.9256}
    .str10 {stroke:#6E7677;stroke-width:24.21;stroke-linecap:round;stroke-linejoin:round;stroke-miterlimit:22.9256}
    .str7 {stroke:#6E7677;stroke-width:24.21;stroke-linecap:round;stroke-linejoin:round;stroke-miterlimit:22.9256}
    .str19 {stroke:#6E7677;stroke-width:24.21;stroke-linecap:round;stroke-linejoin:round;stroke-miterlimit:22.9256}
    .str9 {stroke:#6E7677;stroke-width:24.21;stroke-linecap:round;stroke-linejoin:round;stroke-miterlimit:22.9256}
    .str18 {stroke:#6E7677;stroke-width:24.21;stroke-linecap:round;stroke-linejoin:round;stroke-miterlimit:22.9256}
    .str13 {stroke:#A3084B;stroke-width:24.21;stroke-linecap:round;stroke-linejoin:round;stroke-miterlimit:22.9256}
    .str16 {stroke:#A3084B;stroke-width:24.21;stroke-linecap:round;stroke-linejoin:round;stroke-miterlimit:22.9256}
    .str17 {stroke:#A3084B;stroke-width:24.21;stroke-linecap:round;stroke-linejoin:round;stroke-miterlimit:22.9256}
    .str8 {stroke:#6E7677;stroke-width:24.21;stroke-linecap:round;stroke-linejoin:round;stroke-miterlimit:22.9256}
    .str20 {stroke:#6B5E5E;stroke-width:24.21;stroke-linecap:round;stroke-linejoin:round;stroke-miterlimit:22.9256}
    .str15 {stroke:#A3084B;stroke-width:24.21;stroke-linecap:round;stroke-linejoin:round;stroke-miterlimit:22.9256}
    .str23 {stroke:#6E7677;stroke-width:24.21;stroke-linecap:round;stroke-linejoin:round;stroke-miterlimit:22.9256}
    .str24 {stroke:#6E7677;stroke-width:24.21;stroke-linecap:round;stroke-linejoin:round;stroke-miterlimit:22.9256}
    .str21 {stroke:#6E7677;stroke-width:24.21;stroke-linecap:round;stroke-linejoin:round;stroke-miterlimit:22.9256}
    .str26 {stroke:#6E7677;stroke-width:24.21;stroke-linecap:round;stroke-linejoin:round;stroke-miterlimit:22.9256}
    .str25 {stroke:#6E7677;stroke-width:24.21;stroke-linecap:round;stroke-linejoin:round;stroke-miterlimit:22.9256}
    .str27 {stroke:#6E7677;stroke-width:24.21;stroke-linecap:round;stroke-linejoin:round;stroke-miterlimit:22.9256}
    .str22 {stroke:#6E7677;stroke-width:24.21;stroke-linecap:round;stroke-linejoin:round;stroke-miterlimit:22.9256}
    .fil9 {fill:none}
    .fil39 {fill:#FEFEFE}
    .fil13 {fill:#898989}
    .fil15 {fill:#727271}
    .fil22 {fill:#5B5B5B}
    .fil10 {fill:#EF7F1A}
    .fil42 {fill:#D95B21}
    .fil12 {fill:#BB661E}
    .fil11 {fill:#AE541F}
    .fil0 {fill:#ECE8E0}
    .fil27 {fill:#C39869}
    .fil1 {fill:#D1CCC0}
    .fil17 {fill:#CCD6D7}
    .fil26 {fill:#9F7C59}
    .fil29 {fill:#ACB7B9}
    .fil32 {fill:#A9B2B4}
    .fil31 {fill:#97A4A7}
    .fil30 {fill:#8A9496}
    .fil28 {fill:#798487}
    .fil23 {fill:#1F1B20}
    .fil33 {fill:#22180F}
    .fil34 {fill:#413E49}
    .fil4 {fill:#521A26}
    .fil3 {fill:#702F3D}
    .fil5 {fill:#72404B}
    .fil38 {fill:#848A8F}
    .fil7 {fill:#8F2DA8}
    .fil8 {fill:#9638AD}
    .fil2 {fill:#964B5B}
    .fil6 {fill:#AC42C7}
    .fil40 {fill:#ACB1B5}
    .fil18 {fill:#C9226A}
    .fil37 {fill:#CFD3D6}
    .fil35 {fill:#E8E8E8}
    .fil19 {fill:#ED5396}
    .fil21 {fill:#F56AA6}
    .fil25 {fill:#2B2A29;fill-rule:nonzero}
    .fil14 {fill:#6E7677;fill-rule:nonzero}
    .fil41 {fill:url(#id6)}
    .fil20 {fill:url(#id7)}
    .fil24 {fill:url(#id8)}
    .fil16 {fill:url(#id9)}
    .fil36 {fill:url(#id10)}
   ]]>
  </style>
    <mask id="id0">
  <linearGradient id="id1" gradientUnits="userSpaceOnUse" x1="9610.54" y1="4191.85" x2="9593.73" y2="6055.93">
   <stop offset="0" style="stop-opacity:0; stop-color:white"/>
   <stop offset="1" style="stop-opacity:1; stop-color:white"/>
  </linearGradient>
     <rect style="fill:url(#id1)" x="7130.72" y="3498.53" width="4971.16" height="3151.22"/>
    </mask>
    <mask id="id2">
  <linearGradient id="id3" gradientUnits="userSpaceOnUse" x1="8992.99" y1="5835.98" x2="8981.73" y2="7532.68">
   <stop offset="0" style="stop-opacity:0; stop-color:white"/>
   <stop offset="1" style="stop-opacity:1; stop-color:white"/>
  </linearGradient>
     <rect style="fill:url(#id3)" x="5929.52" y="5204.7" width="6150.74" height="2868.7"/>
    </mask>
    <clipPath id="id4">
     <path d="M8668.57 4773.8c286.27,-193.42 612.18,-386.86 898.44,-580.29 156.42,-105.69 119.66,-125.53 216.89,25.71 203.79,316.99 453.83,620.79 657.63,937.77 111.34,173.18 15.14,214.32 -154.66,361.08 -299.32,258.73 -647.17,526.96 -797.25,522.47 -61.44,-1.84 -135.78,-17.29 -226.99,-35.18 -68.38,-13.4 -177.31,-5.89 -230.63,-43.31 -102.52,-71.93 -269.67,-535.62 -435.86,-890.38 -84.5,-180.38 -93.23,-185.96 72.42,-297.88z"/>
    </clipPath>
    <clipPath id="id5">
     <path d="M7528.69 4597.73c286.27,-193.42 612.18,-386.86 898.44,-580.29 156.42,-105.69 119.66,-125.53 216.89,25.71 203.79,316.99 453.83,620.78 657.63,937.77 111.34,173.19 15.14,214.32 -154.66,361.08 -299.33,258.73 -647.17,526.96 -797.25,522.47 -61.44,-1.84 -135.78,-17.3 -226.99,-35.18 -68.37,-13.41 -177.31,-5.89 -230.63,-43.31 -102.52,-71.93 -269.68,-535.62 -435.86,-890.38 -84.5,-180.37 -93.24,-185.95 72.42,-297.88z"/>
    </clipPath>
  <linearGradient id="id6" gradientUnits="userSpaceOnUse" x1="4627.35" y1="1095.88" x2="9308.63" y2="1095.88">
   <stop offset="0" style="stop-opacity:1; stop-color:#EF7F1A"/>
   <stop offset="1" style="stop-opacity:1; stop-color:#E66120"/>
  </linearGradient>
  <linearGradient id="id7" gradientUnits="userSpaceOnUse" x1="2661.93" y1="8256.69" x2="5621.93" y2="7465.53">
   <stop offset="0" style="stop-opacity:1; stop-color:#EB3D88"/>
   <stop offset="1" style="stop-opacity:1; stop-color:#C9226A"/>
  </linearGradient>
  <linearGradient id="id8" gradientUnits="userSpaceOnUse" x1="7166.37" y1="6576.18" x2="7151.24" y2="9324.8">
   <stop offset="0" style="stop-opacity:1; stop-color:#363C3D"/>
   <stop offset="1" style="stop-opacity:1; stop-color:#515859"/>
  </linearGradient>
  <linearGradient id="id9" gradientUnits="userSpaceOnUse" x1="4806.2" y1="6923.1" x2="3964.27" y2="4389.55">
   <stop offset="0" style="stop-opacity:1; stop-color:#A6B2B4"/>
   <stop offset="0.278431" style="stop-opacity:1; stop-color:#8A9799"/>
   <stop offset="1" style="stop-opacity:1; stop-color:#ACB7B9"/>
  </linearGradient>
  <linearGradient id="id10" gradientUnits="userSpaceOnUse" x1="9844.4" y1="1466.65" x2="9644.14" y2="3368.81">
   <stop offset="0" style="stop-opacity:1; stop-color:#9CA3A8"/>
   <stop offset="1" style="stop-opacity:1; stop-color:#D3D6D9"/>
  </linearGradient>
 </defs>
 <g id="Слой_x0020_1">
  <metadata id="CorelCorpID_0Corel-Layer"/>
  <rect class="fil0" x="-0" y="0" width="14851.05" height="12058.54"/>
  <polygon class="fil1" points="19.04,5688.13 -0,3961.86 14870.09,9191.45 14870.09,12001.42 19.04,12001.42 "/>
  <g id="_1044900352">
   <path class="fil2 str0" d="M7144.19 3449.26c-117.52,-41.19 -481.17,59.75 -435.49,474 1.03,560.49 43.24,932.9 45.12,1236.3 -109.21,130.48 -349.23,298.26 -661.39,418.07 -254.7,97.75 -199.61,452.66 -176.56,650.18l105.42 79.88 912.98 -596.43c77.99,-706.27 283.33,-1525.96 363.31,-2246.91 0.82,-16.96 -109.79,5.81 -153.38,-15.09z"/>
   <path class="fil3 str1" d="M7297.57 3464.35c-117.52,-41.19 -529.48,38.74 -483.81,452.99 1.03,560.48 43.59,1018.7 45.47,1322.1 -109.21,130.48 -890.73,377.51 -1202.88,497.31 -254.7,97.75 -128.93,1437.9 -105.88,1635.42l1704.27 -508.37c239.11,-664.44 -136.85,-2794.43 42.83,-3399.44z"/>
   <path class="fil2 str2" d="M12506.75 4728.62c-84.74,-210.42 -4620.87,-1250.61 -5167.21,-1264.76 -210.48,-2.7 -293.66,65.18 -314.4,319.41 -20.74,254.23 7.26,1102.32 -271.39,1287.19 -392.19,260.2 -1278.53,208.03 -1333.89,530.65 -15.65,91.24 51.71,621.37 61.4,713.44 780.86,196.32 5059.96,1616.93 5840.81,1813.25 62.16,-40.49 17.17,-507.16 79.33,-547.65 229.82,-149.69 459.64,-299.41 689.46,-449.1 197.02,-128.34 155.21,-86.35 181.96,-324.08 77.97,-692.78 155.95,-1385.56 233.92,-2078.34z"/>
   <path class="fil4" style="mask:url(#id0)" d="M12077.26 6646.75l-4943.54 -1314.19c232.9,-631.53 -90.34,-1600.42 171.8,-1831.03 1641.2,422.98 3141.47,982.8 4782.67,1405.78 -129.86,37.71 74.54,1014.76 -10.92,1739.45z"/>
   <path class="fil4" style="mask:url(#id2)" d="M12077.26 6646.75l-4943.54 -1314.19c232.9,-631.53 -1435.29,1349.7 -1173.15,1119.08 1606.96,482.78 3507.71,1194.89 5148.9,1617.87 -129.85,37.71 547,-1141.61 967.79,-1422.76z"/>
   <path class="fil5 str3" d="M12473.39 4697.31c-117.52,-41.19 -481.17,59.75 -435.49,474 1.03,560.49 28.05,1148.37 29.93,1451.77 -109.21,130.48 -349.23,298.27 -661.39,418.07 -254.7,97.76 -244.05,566.36 -220.99,763.87l-87.33 1623.26 131.54 59.83 778.93 -609.63c78,-706.28 538.57,-3359.32 618.55,-4080.27 0.82,-16.96 -110.14,-79.99 -153.73,-100.89z"/>
   <path class="fil3 str4" d="M12627.12 4798.2c-117.52,-41.19 -529.49,38.74 -483.81,452.99 1.03,560.48 28.05,1148.36 29.93,1451.76 -109.21,130.48 -349.23,298.27 -661.39,418.07 -194.69,74.72 -216.08,508.03 -205.07,796.29 3.4,88.85 -82.58,1524.26 -77.14,1570.8l1018.4 -516.55c10.43,-94.45 113.67,-1555.55 124.72,-1661.15 81.42,-777.64 177.56,-1816.74 254.36,-2512.2z"/>
   <path class="fil6" d="M8668.57 4773.8c286.27,-193.42 612.18,-386.86 898.44,-580.29 156.42,-105.69 119.66,-125.53 216.89,25.71 203.79,316.99 453.83,620.79 657.63,937.77 111.34,173.18 15.14,214.32 -154.66,361.08 -299.32,258.73 -647.17,526.96 -797.25,522.47 -61.44,-1.84 -135.78,-17.29 -226.99,-35.18 -68.38,-13.4 -177.31,-5.89 -230.63,-43.31 -102.52,-71.93 -269.67,-535.62 -435.86,-890.38 -84.5,-180.38 -93.23,-185.96 72.42,-297.88z"/>
   <g style="clip-path:url(#id4)">
    <g>
     <path id="1" class="fil7" d="M9567.02 4193.52c103.61,-157.81 119.66,-125.53 216.89,25.71 203.79,316.99 453.83,620.79 657.63,937.77 111.34,173.18 15.14,214.32 -154.66,361.08 -299.32,258.73 -695.35,532.75 -845.43,528.26 -107.49,-3.22 -284.97,3.07 -409.44,-84.27 -102.52,-71.93 -128.22,-229.09 -294.41,-583.85 -167.34,-357.22 399.19,-529.38 829.41,-1184.7z"/>
     <path class="fil8" d="M9567.02 4193.52c103.61,-157.81 180.3,-150.32 216.89,25.71 45.3,217.94 103.74,530.1 125.79,914.43 11.79,205.54 -32.67,304.19 -115.04,512.97 -68.2,172.88 -203.13,404.21 -353.2,399.72 -107.49,-3.21 -284.97,3.07 -409.44,-84.27 -102.52,-71.93 -128.22,-229.09 -294.41,-583.85 -167.34,-357.22 399.19,-529.38 829.41,-1184.7z"/>
    </g>
   </g>
   <path class="fil9 str5" d="M8668.57 4773.8c286.27,-193.42 612.18,-386.86 898.44,-580.29 156.42,-105.69 119.66,-125.53 216.89,25.71 203.79,316.99 453.83,620.79 657.63,937.77 111.34,173.18 15.14,214.32 -154.66,361.08 -299.32,258.73 -647.17,526.96 -797.25,522.47 -61.44,-1.84 -135.78,-17.29 -226.99,-35.18 -68.38,-13.4 -177.31,-5.89 -230.63,-43.31 -102.52,-71.93 -269.67,-535.62 -435.86,-890.38 -84.5,-180.38 -93.23,-185.96 72.42,-297.88z"/>
   <path class="fil10" d="M7528.69 4597.73c286.27,-193.42 612.18,-386.86 898.44,-580.29 156.42,-105.69 119.66,-125.53 216.89,25.71 203.79,316.99 453.83,620.78 657.63,937.77 111.34,173.19 15.14,214.32 -154.66,361.08 -299.33,258.73 -647.17,526.96 -797.25,522.47 -61.44,-1.84 -135.78,-17.3 -226.99,-35.18 -68.37,-13.41 -177.31,-5.89 -230.63,-43.31 -102.52,-71.93 -269.68,-535.62 -435.86,-890.38 -84.5,-180.37 -93.24,-185.95 72.42,-297.88z"/>
   <g style="clip-path:url(#id5)">
    <g>
     <path id="1" class="fil11" d="M8427.13 4017.45c103.6,-157.81 119.66,-125.53 216.89,25.71 203.79,316.99 453.83,620.78 657.63,937.77 111.34,173.19 15.14,214.32 -154.66,361.08 -299.33,258.73 -695.35,532.75 -845.43,528.26 -107.49,-3.22 -284.96,3.06 -409.44,-84.27 -102.52,-71.93 -128.23,-229.09 -294.41,-583.85 -167.34,-357.21 399.19,-529.38 829.41,-1184.7z"/>
     <path class="fil12" d="M8427.13 4017.45c103.6,-157.81 180.3,-150.32 216.89,25.71 45.3,217.94 103.74,530.1 125.78,914.43 11.79,205.54 -32.67,304.19 -115.03,512.97 -68.2,172.87 -203.14,404.21 -353.21,399.72 -107.49,-3.22 -284.96,3.06 -409.44,-84.27 -102.52,-71.93 -128.23,-229.09 -294.41,-583.85 -167.34,-357.21 399.19,-529.38 829.41,-1184.7z"/>
    </g>
   </g>
   <path class="fil9 str6" d="M7528.69 4597.73c286.27,-193.42 612.18,-386.86 898.44,-580.29 156.42,-105.69 119.66,-125.53 216.89,25.71 203.79,316.99 453.83,620.78 657.63,937.77 111.34,173.19 15.14,214.32 -154.66,361.08 -299.33,258.73 -647.17,526.96 -797.25,522.47 -61.44,-1.84 -135.78,-17.3 -226.99,-35.18 -68.37,-13.41 -177.31,-5.89 -230.63,-43.31 -102.52,-71.93 -269.68,-535.62 -435.86,-890.38 -84.5,-180.37 -93.24,-185.95 72.42,-297.88z"/>
  </g>
  <g id="_1045015200">
   <g>
    <polygon class="fil13" points="3097.98,8553.46 3176.2,8576.25 3318.96,8496.69 3401.55,6570.79 3081.26,6675.75 "/>
    <path id="1" class="fil14" d="M3172.8 8587.85l-78.21 -22.79 6.79 -23.19 78.21 22.79 2.51 22.14 -9.3 1.05zm6.79 -23.19c6.42,1.87 10.1,8.58 8.22,14.98 -1.87,6.4 -8.6,10.08 -15.01,8.21l6.79 -23.19zm145.27 -57.43l-142.76 79.57 -11.8 -21.09 142.76 -79.57 17.99 11.06 -6.19 10.03zm-11.8 -21.09c5.83,-3.25 13.21,-1.17 16.47,4.66 3.26,5.82 1.17,13.18 -4.67,16.43l-11.8 -21.09zm100.58 -1914.83l-82.59 1925.9 -24.19 -1.03 82.59 -1925.9 8.32 -10.96 15.87 11.99zm-24.19 -1.03c0.28,-6.66 5.93,-11.83 12.61,-11.55 6.68,0.28 11.86,5.92 11.57,12.58l-24.19 -1.03zm-311.97 93.99l320.29 -104.95 7.55 22.95 -320.29 104.95 -15.88 -11.37 8.33 -11.58zm7.55 22.95c-6.35,2.08 -13.19,-1.37 -15.27,-7.71 -2.08,-6.34 1.37,-13.16 7.72,-15.24l7.55 22.95zm0.85 1866.35l-16.73 -1877.71 24.2 -0.22 16.73 1877.71 -15.5 11.7 -8.71 -11.49zm24.2 -0.22c0.06,6.67 -5.31,12.13 -11.99,12.19 -6.68,0.06 -12.15,-5.3 -12.21,-11.97l24.2 -0.22z"/>
   </g>
   <g>
    <polygon class="fil13" points="3812.27,9040.66 3890.48,9063.45 4033.24,8983.89 4115.83,7058 3795.55,7162.95 "/>
    <path id="1" class="fil14" d="M3887.09 9075.05l-78.21 -22.79 6.78 -23.19 78.21 22.79 2.51 22.14 -9.29 1.05zm6.78 -23.19c6.42,1.87 10.1,8.58 8.23,14.98 -1.87,6.4 -8.59,10.08 -15.01,8.21l6.78 -23.19zm145.27 -57.42l-142.76 79.56 -11.8 -21.09 142.76 -79.56 17.99 11.06 -6.19 10.03zm-11.8 -21.09c5.83,-3.25 13.21,-1.17 16.47,4.66 3.26,5.82 1.17,13.18 -4.67,16.43l-11.8 -21.09zm100.58 -1914.83l-82.59 1925.9 -24.19 -1.03 82.59 -1925.9 8.32 -10.96 15.87 11.99zm-24.19 -1.03c0.28,-6.66 5.93,-11.83 12.61,-11.55 6.68,0.28 11.86,5.92 11.57,12.58l-24.19 -1.03zm-311.97 93.99l320.29 -104.95 7.55 22.95 -320.29 104.95 -15.88 -11.37 8.33 -11.58zm7.55 22.95c-6.35,2.08 -13.19,-1.37 -15.27,-7.71 -2.08,-6.34 1.37,-13.16 7.72,-15.24l7.55 22.95zm0.85 1866.35l-16.73 -1877.71 24.2 -0.22 16.73 1877.71 -15.49 11.7 -8.71 -11.49zm24.2 -0.22c0.06,6.67 -5.31,12.13 -11.99,12.19 -6.68,0.06 -12.15,-5.3 -12.21,-11.97l24.2 -0.22z"/>
   </g>
   <g>
    <polygon class="fil13" points="4688.34,8182.81 4766.55,8205.6 4909.32,8126.04 4991.91,6200.14 4671.62,6305.1 "/>
    <path id="1" class="fil14" d="M4763.16 8217.2l-78.21 -22.79 6.78 -23.19 78.21 22.79 2.51 22.14 -9.29 1.05zm6.78 -23.19c6.42,1.87 10.1,8.58 8.23,14.98 -1.87,6.4 -8.59,10.08 -15.01,8.21l6.78 -23.19zm145.27 -57.42l-142.76 79.56 -11.8 -21.09 142.76 -79.56 17.99 11.06 -6.19 10.03zm-11.8 -21.09c5.83,-3.25 13.21,-1.17 16.47,4.66 3.26,5.82 1.17,13.18 -4.67,16.43l-11.8 -21.09zm100.58 -1914.83l-82.59 1925.9 -24.19 -1.03 82.59 -1925.9 8.32 -10.96 15.87 11.99zm-24.19 -1.03c0.28,-6.66 5.93,-11.83 12.61,-11.55 6.68,0.28 11.86,5.92 11.57,12.58l-24.19 -1.03zm-311.97 93.99l320.29 -104.95 7.55 22.95 -320.29 104.95 -15.88 -11.37 8.33 -11.58zm7.55 22.95c-6.35,2.08 -13.19,-1.37 -15.27,-7.71 -2.08,-6.34 1.37,-13.16 7.72,-15.24l7.55 22.95zm0.85 1866.35l-16.73 -1877.71 24.2 -0.22 16.73 1877.71 -15.49 11.7 -8.71 -11.49zm24.2 -0.22c0.06,6.67 -5.31,12.13 -11.99,12.19 -6.68,0.06 -12.15,-5.3 -12.21,-11.97l24.2 -0.22z"/>
   </g>
   <g>
    <polygon class="fil13" points="5798.61,8254.47 5876.82,8277.27 6019.59,8197.7 6102.18,6271.81 5781.89,6376.76 "/>
    <path id="1" class="fil14" d="M5873.43 8288.86l-78.21 -22.79 6.79 -23.19 78.21 22.79 2.51 22.14 -9.3 1.05zm6.79 -23.19c6.42,1.87 10.1,8.58 8.22,14.98 -1.87,6.4 -8.6,10.08 -15.01,8.21l6.79 -23.19zm145.27 -57.42l-142.76 79.56 -11.8 -21.09 142.76 -79.56 17.99 11.06 -6.19 10.03zm-11.8 -21.09c5.83,-3.25 13.21,-1.17 16.47,4.66 3.26,5.82 1.17,13.18 -4.67,16.43l-11.8 -21.09zm100.58 -1914.83l-82.59 1925.9 -24.19 -1.03 82.59 -1925.9 8.32 -10.96 15.87 11.99zm-24.19 -1.03c0.28,-6.66 5.93,-11.83 12.61,-11.55 6.68,0.28 11.86,5.92 11.57,12.58l-24.19 -1.03zm-311.97 93.99l320.29 -104.95 7.55 22.95 -320.29 104.95 -15.88 -11.37 8.33 -11.58zm7.55 22.95c-6.35,2.08 -13.19,-1.37 -15.27,-7.71 -2.08,-6.34 1.37,-13.16 7.72,-15.24l7.55 22.95zm0.85 1866.34l-16.72 -1877.71 24.2 -0.22 16.72 1877.71 -15.5 11.7 -8.71 -11.49zm24.2 -0.22c0.06,6.67 -5.31,12.13 -11.99,12.19 -6.68,0.06 -12.15,-5.3 -12.21,-11.97l24.2 -0.22z"/>
   </g>
   <g>
    <polygon class="fil13" points="5798.61,8254.47 5876.82,8277.27 6019.59,8197.7 6102.18,6271.81 5781.89,6376.76 "/>
    <path id="1" class="fil14" d="M5873.43 8288.86l-78.21 -22.79 6.79 -23.19 78.21 22.79 2.51 22.14 -9.3 1.05zm6.79 -23.19c6.42,1.87 10.1,8.58 8.22,14.98 -1.87,6.4 -8.6,10.08 -15.01,8.21l6.79 -23.19zm145.27 -57.42l-142.76 79.56 -11.8 -21.09 142.76 -79.56 17.99 11.06 -6.19 10.03zm-11.8 -21.09c5.83,-3.25 13.21,-1.17 16.47,4.66 3.26,5.82 1.17,13.18 -4.67,16.43l-11.8 -21.09zm100.58 -1914.83l-82.59 1925.9 -24.19 -1.03 82.59 -1925.9 8.32 -10.96 15.87 11.99zm-24.19 -1.03c0.28,-6.66 5.93,-11.83 12.61,-11.55 6.68,0.28 11.86,5.92 11.57,12.58l-24.19 -1.03zm-311.97 93.99l320.29 -104.95 7.55 22.95 -320.29 104.95 -15.88 -11.37 8.33 -11.58zm7.55 22.95c-6.35,2.08 -13.19,-1.37 -15.27,-7.71 -2.08,-6.34 1.37,-13.16 7.72,-15.24l7.55 22.95zm0.85 1866.34l-16.72 -1877.71 24.2 -0.22 16.72 1877.71 -15.5 11.7 -8.71 -11.49zm24.2 -0.22c0.06,6.67 -5.31,12.13 -11.99,12.19 -6.68,0.06 -12.15,-5.3 -12.21,-11.97l24.2 -0.22z"/>
   </g>
   <polygon class="fil15 str7" points="3176.2,8576.25 3235.15,6669 3081.7,6724.55 3097.98,8553.46 "/>
   <polygon class="fil15 str8" points="3890.48,9063.45 3949.44,7156.2 3795.98,7211.75 3812.27,9040.66 "/>
   <polygon class="fil15 str9" points="4766.55,8205.6 4825.51,6298.35 4672.06,6353.9 4688.34,8182.81 "/>
   <polygon class="fil15 str10" points="5876.82,8277.27 5935.78,6370.01 5782.33,6425.56 5798.61,8254.47 "/>
   <polygon class="fil15 str10" points="5876.82,8277.27 5935.78,6370.01 5782.33,6425.56 5798.61,8254.47 "/>
   <path class="fil16 str11" d="M2830.91 4467.58c77.67,-192.84 1061.38,-205.81 1562.08,-218.77 192.9,-2.47 264.14,-31.1 283.15,201.91 19.01,233.01 4.43,1272.9 259.82,1442.34 359.44,238.47 1171.75,190.65 1222.48,486.33 14.35,83.63 12.22,188.75 3.33,273.14 -715.64,179.92 -1431.29,359.84 -2146.93,539.76 -267.6,-174.31 -535.2,-348.62 -802.79,-522.92 -180.58,-117.62 -142.24,-79.13 -166.77,-297.01 -71.46,-634.92 -142.92,-1269.85 -214.39,-1904.77z"/>
   <path class="fil17 str12" d="M2830.91 4467.58c107.7,-37.75 140.3,114.18 134.75,239.65 -1.73,941.56 316.66,1715.97 887.37,1889.18 238.7,74.44 182.94,414.85 161.81,595.88l-933.35 -473.41c-79.94,-723.94 -170.64,-1527.36 -250.59,-2251.3z"/>
   <g>
    <polygon class="fil13" points="2767.21,8912.01 2825.01,10929.75 2922.78,10969.03 3103.98,10839.83 3168.62,8853.32 2916.55,8980.48 "/>
    <path id="1" class="fil14" d="M2812.92 10930.1l-57.81 -2017.74 24.2 -0.7 57.81 2017.74 -16.59 11.65 -7.61 -10.95zm24.2 -0.7c0.19,6.72 -5.07,12.32 -11.75,12.52 -6.68,0.19 -12.25,-5.1 -12.45,-11.81l24.2 -0.7zm81.18 50.94l-97.77 -39.28 8.98 -22.6 97.77 39.28 2.51 21.23 -11.49 1.38zm8.98 -22.6c6.2,2.49 9.23,9.58 6.75,15.82 -2.48,6.24 -9.53,9.28 -15.73,6.79l8.98 -22.6zm183.7 -107.98l-181.19 129.2 -14 -19.85 181.19 -129.2 19.1 10.32 -5.09 9.53zm-14 -19.85c5.45,-3.89 13.01,-2.6 16.87,2.88 3.86,5.48 2.58,13.08 -2.87,16.96l-14 -19.85zm83.74 -1976.19l-64.65 1986.51 -24.19 -0.8 64.65 -1986.51 6.67 -10.48 17.52 11.27zm-24.19 -0.8c0.22,-6.72 5.81,-11.98 12.49,-11.76 6.68,0.22 11.92,5.84 11.7,12.56l-24.19 -0.8zm-245.4 116.68l252.07 -127.16 10.85 21.75 -252.07 127.16 -10.45 0.2 -0.4 -21.95zm10.85 21.75c-5.97,3.01 -13.25,0.59 -16.25,-5.42 -3,-6.01 -0.58,-13.32 5.39,-16.33l10.85 21.75zm-149.75 -90.41l149.34 68.47 -10.04 22.15 -149.34 -68.47 -7.08 -10.72 17.12 -11.42zm-10.04 22.15c-6.08,-2.79 -8.76,-10.01 -5.99,-16.12 2.77,-6.11 9.95,-8.81 16.04,-6.02l-10.04 22.15z"/>
   </g>
   <g>
    <polygon class="fil13" points="5243.28,9986.07 5321.49,10008.86 5464.26,9929.3 5546.85,8003.4 5226.56,8108.36 "/>
    <path id="1" class="fil14" d="M5318.1 10020.46l-78.21 -22.79 6.79 -23.19 78.21 22.79 2.51 22.14 -9.3 1.05zm6.79 -23.19c6.42,1.87 10.1,8.58 8.22,14.98 -1.87,6.4 -8.6,10.08 -15.01,8.21l6.79 -23.19zm145.27 -57.43l-142.76 79.57 -11.8 -21.09 142.76 -79.57 17.99 11.06 -6.19 10.03zm-11.8 -21.09c5.83,-3.25 13.21,-1.17 16.47,4.66 3.26,5.82 1.17,13.18 -4.67,16.43l-11.8 -21.09zm100.58 -1914.83l-82.59 1925.9 -24.19 -1.03 82.59 -1925.9 8.32 -10.96 15.87 11.99zm-24.19 -1.03c0.28,-6.66 5.93,-11.83 12.61,-11.55 6.68,0.28 11.86,5.92 11.57,12.58l-24.19 -1.03zm-311.97 93.99l320.29 -104.95 7.55 22.95 -320.29 104.95 -15.88 -11.37 8.33 -11.58zm7.55 22.95c-6.35,2.08 -13.19,-1.37 -15.27,-7.71 -2.08,-6.34 1.37,-13.16 7.72,-15.24l7.55 22.95zm0.85 1866.35l-16.72 -1877.71 24.2 -0.22 16.72 1877.71 -15.5 11.7 -8.71 -11.49zm24.2 -0.22c0.06,6.67 -5.31,12.13 -11.99,12.19 -6.68,0.06 -12.15,-5.3 -12.21,-11.97l24.2 -0.22z"/>
   </g>
   <g>
    <polygon class="fil13" points="3986.83,9341.01 4037.75,9362.12 4197.06,9276.87 4248.8,8482.38 3966.56,8604.71 "/>
    <path id="1" class="fil14" d="M4033.11 9373.29l-50.92 -21.11 9.27 -22.35 50.92 21.11 1.08 21.84 -10.35 0.51zm9.27 -22.35c6.17,2.56 9.1,9.64 6.55,15.81 -2.56,6.17 -9.64,9.1 -15.82,6.54l9.27 -22.35zm160.38 -63.41l-159.3 85.25 -11.42 -21.33 159.3 -85.25 17.79 11.45 -6.37 9.88zm-11.42 -21.33c5.89,-3.15 13.23,-0.93 16.38,4.96 3.15,5.89 0.93,13.22 -4.96,16.37l-11.42 -21.33zm69.54 -783.03l-51.75 794.48 -24.16 -1.57 51.75 -794.48 7.26 -10.31 16.89 11.89zm-24.16 -1.57c0.43,-6.67 6.19,-11.72 12.86,-11.29 6.67,0.43 11.72,6.19 11.29,12.86l-24.16 -1.57zm-274.98 112.01l282.24 -122.32 9.63 22.2 -282.24 122.32 -16.91 -10.77 7.28 -11.43zm9.63 22.2c-6.13,2.66 -13.26,-0.16 -15.92,-6.29 -2.66,-6.13 0.16,-13.26 6.29,-15.91l9.63 22.2zm3.36 725.54l-20.27 -736.31 24.2 -0.67 20.27 736.31 -16.73 11.51 -7.46 -10.84zm24.2 -0.67c0.18,6.68 -5.09,12.24 -11.77,12.43 -6.68,0.18 -12.25,-5.08 -12.43,-11.76l24.2 -0.67z"/>
   </g>
   <g>
    <polygon class="fil13" points="2182.4,8737.17 2103.52,9851.98 1917.2,9961.87 1870.31,9914.74 1888.64,8584.13 "/>
    <path id="1" class="fil14" d="M2091.45 9851.13l78.88 -1114.81 24.14 1.7 -78.88 1114.81 -5.92 9.56 -18.22 -11.26zm24.14 1.7c-0.47,6.66 -6.26,11.68 -12.93,11.21 -6.67,-0.47 -11.69,-6.25 -11.22,-12.91l24.14 1.7zm-204.54 98.62l186.32 -109.88 12.31 20.83 -186.32 109.88 -14.74 -1.89 2.43 -18.94zm12.31 20.83c-5.75,3.39 -13.18,1.48 -16.58,-4.27 -3.4,-5.75 -1.48,-13.17 4.27,-16.56l12.31 20.83zm-44.46 -66.06l46.89 47.12 -17.17 17.05 -46.89 -47.12 -3.52 -8.69 20.69 -8.36zm-17.17 17.05c-4.71,-4.73 -4.69,-12.39 0.05,-17.1 4.74,-4.71 12.41,-4.68 17.12,0.05l-17.17 17.05zm39.02 -1338.97l-18.34 1330.61 -24.2 -0.34 18.34 -1330.61 17.7 -10.55 6.51 10.89zm-24.2 -0.34c0.09,-6.67 5.59,-12.01 12.27,-11.92 6.68,0.09 12.02,5.58 11.93,12.26l-24.2 -0.34zm300.26 163.93l-293.76 -153.04 11.19 -21.44 293.76 153.04 6.48 11.57 -17.67 9.87zm11.19 -21.44c5.92,3.09 8.22,10.39 5.14,16.31 -3.09,5.92 -10.4,8.22 -16.33,5.13l11.19 -21.44z"/>
   </g>
   <g>
    <polygon class="fil15" points="2916.55,8980.48 2922.78,10969.03 2825.01,10929.75 2767.21,8912.01 "/>
    <path id="1" class="fil14" d="M2910.68 10969.07l-6.23 -1988.56 24.2 -0.08 6.23 1988.56 -16.59 11.34 -7.61 -11.26zm24.2 -0.08c0.02,6.72 -5.38,12.19 -12.06,12.21 -6.68,0.02 -12.12,-5.41 -12.14,-12.13l24.2 -0.08zm-105.38 -50.55l97.77 39.28 -8.98 22.6 -97.77 -39.28 -7.61 -10.95 16.59 -11.65zm-8.98 22.6c-6.2,-2.49 -9.23,-9.58 -6.75,-15.82 2.48,-6.24 9.53,-9.28 15.73,-6.79l-8.98 22.6zm-41.21 -2029.39l57.8 2017.74 -24.2 0.7 -57.8 -2017.74 17.12 -11.42 7.08 10.72zm-24.2 0.7c-0.19,-6.72 5.07,-12.32 11.75,-12.52 6.68,-0.19 12.25,5.1 12.45,11.81l-24.2 0.7zm156.42 79.19l-149.34 -68.47 10.04 -22.15 149.34 68.47 7.08 11.03 -17.12 11.11zm10.04 -22.15c6.08,2.79 8.76,10.01 5.99,16.12 -2.77,6.11 -9.95,8.81 -16.04,6.02l10.04 -22.15z"/>
   </g>
   <g>
    <polygon class="fil15" points="1973.76,8628.48 1917.2,9961.87 1870.31,9914.74 1888.64,8584.13 "/>
    <path id="1" class="fil14" d="M1905.1 9961.35l56.57 -1333.39 24.19 1.03 -56.57 1333.39 -20.68 8.01 -3.51 -9.04zm24.19 1.03c-0.28,6.67 -5.93,11.85 -12.61,11.57 -6.68,-0.28 -11.86,-5.92 -11.58,-12.59l24.19 1.03zm-50.4 -56.16l46.89 47.12 -17.17 17.05 -46.89 -47.12 -3.52 -8.69 20.69 -8.36zm-17.17 17.05c-4.71,-4.73 -4.69,-12.39 0.05,-17.1 4.74,-4.71 12.41,-4.68 17.12,0.05l-17.17 17.05zm39.02 -1338.97l-18.34 1330.61 -24.2 -0.34 18.34 -1330.61 17.7 -10.55 6.51 10.89zm-24.2 -0.34c0.09,-6.67 5.59,-12.01 12.27,-11.92 6.68,0.09 12.02,5.58 11.93,12.26l-24.2 -0.34zm91.63 55.23l-85.12 -44.35 11.19 -21.44 85.12 44.35 6.5 11.23 -17.69 10.21zm11.19 -21.44c5.92,3.09 8.22,10.39 5.14,16.31 -3.09,5.92 -10.4,8.22 -16.33,5.13l11.19 -21.44z"/>
   </g>
   <path class="fil18 str13" d="M2769.7 6995.42c348.22,-67.76 536.59,-92.06 915.85,-211.03 178.93,-51.21 319.05,-60.53 348.99,91.57 -42.93,124.66 -85.86,249.32 -128.78,373.98 -335.74,14.2 -671.47,28.4 -1007.21,42.6 -42.95,-99.04 -85.9,-198.09 -128.85,-297.13z"/>
   <path class="fil19 str14" d="M2721.77 7276.38c397.31,-136.57 850.49,-248.32 1247.8,-384.89 101.4,-34.14 181.07,-18.63 285.57,37.25 371.98,173.82 743.96,347.63 1115.95,521.45 -198.16,161.41 -396.32,322.83 -594.48,484.24 -670.46,33.11 -1340.92,66.22 -2011.38,99.32 4.14,-244.18 -47.59,-513.19 -43.45,-757.37z"/>
   <path class="fil20 str15" d="M1981.54 6022.35c267.56,933.08 535.12,1866.17 802.68,2799.26 34.88,117.18 107,209.52 253.62,128.05 860.52,-311.52 1721.04,-623.04 2581.56,-934.55 -2.07,-122.09 -4.14,-244.18 -6.21,-366.27 24.83,-97.26 -6.21,-269.01 -242.11,-198.66 -471.81,95.19 -952.5,304.24 -1415.42,285.56 -719.64,-29.04 -1222.97,-707.7 -1489.91,-1620.27 -111.74,-204.86 -487.32,-226.59 -484.22,-93.12z"/>
   <path class="fil21 str16" d="M1981.54 6022.35c-395.24,-138.65 -790.48,-277.29 -1185.73,-415.94 -11.9,41.39 2.58,186.76 37.25,274.7 378.68,910.5 469.96,1450.8 743.11,2293.02 86.91,229.69 325.61,465.24 462.19,496.28 299.76,105.11 536.48,188.11 836.25,293.22 -297.69,-980.43 -595.38,-1960.86 -893.07,-2941.28z"/>
   <path class="fil21 str17" d="M792.45 5628.12c34.82,-150.09 136.63,-221.35 337,-155.18 154.54,101.83 388.74,209.25 638.82,293.68 295.94,99.91 589.28,193.7 646.63,277.07 -102.15,-55.88 -296.86,-104.26 -386.59,-79.82 -32.54,8.86 -42.73,55.49 -38.21,86.64 -395.24,-138.65 -802.4,-283.75 -1197.65,-422.39z"/>
   <polygon class="fil15 str18" points="4037.75,9362.12 4060.64,8579.4 3966.8,8613.37 3986.83,9341.01 "/>
   <polygon class="fil15 str19" points="5321.49,10008.86 5380.45,8101.61 5226.99,8157.16 5243.28,9986.07 "/>
  </g>
  <g>
   <polygon class="fil22" points="5470.97,9303.11 6961.62,9820.92 8573.85,9317.02 8574.21,9270.47 7025.99,8846.46 5470.97,9256.18 "/>
   <polygon class="fil23" points="5470.97,9256.18 6961.62,9773.99 8574.21,9270.47 7025.99,8799.54 "/>
   <g>
    <polygon class="fil24" points="6614.24,6010.27 7435.12,6010.27 7435.12,9209.35 6614.24,9209.35 "/>
    <path id="1" class="fil25" d="M7435.12 6022.37l-820.89 0 0 -24.2 820.89 0 12.02 12.1 -12.02 12.1zm0 -24.2c6.64,0 12.02,5.42 12.02,12.1 0,6.68 -5.38,12.1 -12.02,12.1l0 -24.2zm-12.02 3211.18l0 -3199.08 24.04 0 0 3199.08 -12.02 12.1 -12.02 -12.1zm24.04 0c0,6.68 -5.38,12.1 -12.02,12.1 -6.64,0 -12.02,-5.42 -12.02,-12.1l24.04 0zm-832.9 -12.1l820.89 0 0 24.2 -820.89 0 -12.02 -12.1 12.02 -12.1zm0 24.2c-6.64,0 -12.02,-5.42 -12.02,-12.1 0,-6.68 5.38,-12.1 12.02,-12.1l0 24.2zm12.02 -3211.18l0 3199.08 -24.04 0 0 -3199.08 12.02 -12.1 12.02 12.1zm-24.04 0c0,-6.68 5.38,-12.1 12.02,-12.1 6.64,0 12.02,5.42 12.02,12.1l-24.04 0z"/>
   </g>
   <polygon class="fil26 str20" points="4181.37,5499.84 4212.6,5675.52 6875.62,6741.43 10181.51,5852.77 10168.94,5673.66 7455.6,5037.18 "/>
   <polygon class="fil27 str20" points="4181.37,5499.84 6875.62,6505.53 10168.94,5673.66 7455.6,5037.18 "/>
  </g>
  <g>
   <g>
    <polygon class="fil13" points="9969.2,9520.86 9911.39,11538.6 9813.62,11577.89 9632.43,11448.68 9567.79,9462.17 9819.86,9589.33 "/>
    <path id="1" class="fil14" d="M9923.49 11538.95l-7.61 10.95 -16.59 -11.65 57.81 -2017.74 24.2 0.7 -57.81 2017.74zm-24.2 -0.7l24.2 0.7c-0.19,6.72 -5.77,12.01 -12.45,11.81 -6.68,-0.19 -11.94,-5.8 -11.75,-12.52zm-81.18 50.94l-11.49 -1.38 2.51 -21.23 97.77 -39.28 8.98 22.6 -97.77 39.28zm-8.98 -22.6l8.98 22.6c-6.2,2.49 -13.25,-0.55 -15.73,-6.79 -2.48,-6.24 0.54,-13.32 6.75,-15.82zm-183.7 -107.98l-5.09 -9.53 19.1 -10.32 181.19 129.21 -14 19.85 -181.19 -129.21zm14 -19.85l-14 19.85c-5.45,-3.89 -6.73,-11.48 -2.87,-16.96 3.86,-5.48 11.42,-6.77 16.87,-2.88zm-83.74 -1976.18l17.52 -11.27 6.67 10.48 64.65 1986.51 -24.19 0.8 -64.65 -1986.51zm24.19 -0.8l-24.19 0.8c-0.22,-6.72 5.02,-12.34 11.7,-12.56 6.68,-0.22 12.28,5.05 12.49,11.76zm245.4 116.68l-0.4 21.95 -10.45 -0.2 -252.07 -127.16 10.85 -21.75 252.07 127.16zm-10.85 21.75l10.85 -21.75c5.97,3.01 8.39,10.33 5.39,16.33 -3,6.01 -10.27,8.43 -16.25,5.42zm149.75 -90.41l17.12 11.42 -7.08 10.72 -149.34 68.47 -10.04 -22.15 149.34 -68.47zm10.04 22.15l-10.04 -22.15c6.08,-2.79 13.26,-0.09 16.04,6.02 2.77,6.11 0.09,13.33 -5.99,16.12z"/>
   </g>
   <g>
    <polygon class="fil13" points="7493.13,10594.92 7414.91,10617.72 7272.15,10538.15 7189.56,8612.26 7509.85,8717.21 "/>
    <path id="1" class="fil14" d="M7418.31 10629.31l-9.3 -1.05 2.51 -22.14 78.21 -22.79 6.79 23.19 -78.21 22.79zm-6.79 -23.19l6.79 23.19c-6.42,1.87 -13.14,-1.81 -15.01,-8.21 -1.87,-6.4 1.81,-13.11 8.22,-14.98zm-145.27 -57.43l-6.19 -10.03 17.99 -11.06 142.76 79.57 -11.8 21.09 -142.76 -79.57zm11.8 -21.09l-11.8 21.09c-5.83,-3.25 -7.92,-10.61 -4.67,-16.43 3.26,-5.82 10.63,-7.91 16.47,-4.66zm-100.58 -1914.83l15.87 -11.99 8.32 10.96 82.59 1925.9 -24.19 1.03 -82.59 -1925.9zm24.19 -1.03l-24.19 1.03c-0.28,-6.66 4.9,-12.3 11.57,-12.58 6.68,-0.28 12.33,4.89 12.61,11.55zm311.97 93.99l8.33 11.58 -15.88 11.37 -320.29 -104.95 7.55 -22.95 320.29 104.95zm-7.55 22.95l7.55 -22.95c6.35,2.08 9.81,8.91 7.72,15.24 -2.08,6.34 -8.92,9.79 -15.27,7.71zm-0.85 1866.35l-8.71 11.49 -15.5 -11.7 16.72 -1877.71 24.2 0.22 -16.72 1877.71zm-24.2 -0.22l24.2 0.22c-0.06,6.67 -5.53,12.03 -12.21,11.97 -6.68,-0.06 -12.05,-5.52 -11.99,-12.19z"/>
   </g>
   <g>
    <polygon class="fil13" points="8749.58,9949.86 8698.66,9970.97 8539.35,9885.72 8487.6,9091.23 8769.85,9213.56 "/>
    <path id="1" class="fil14" d="M8703.29 9982.14l-10.35 -0.51 1.08 -21.84 50.92 -21.11 9.27 22.35 -50.92 21.11zm-9.27 -22.35l9.27 22.35c-6.17,2.56 -13.26,-0.37 -15.82,-6.54 -2.56,-6.17 0.37,-13.25 6.55,-15.81zm-160.38 -63.41l-6.37 -9.88 17.79 -11.45 159.3 85.25 -11.42 21.33 -159.3 -85.25zm11.42 -21.33l-11.42 21.33c-5.89,-3.15 -8.11,-10.49 -4.96,-16.37 3.15,-5.89 10.49,-8.11 16.38,-4.96zm-69.54 -783.03l16.89 -11.89 7.26 10.31 51.75 794.48 -24.16 1.57 -51.75 -794.48zm24.16 -1.57l-24.16 1.57c-0.43,-6.67 4.62,-12.43 11.29,-12.86 6.67,-0.43 12.43,4.62 12.86,11.29zm274.99 112.01l7.28 11.43 -16.91 10.77 -282.25 -122.32 9.63 -22.2 282.25 122.32zm-9.63 22.2l9.63 -22.2c6.13,2.66 8.94,9.78 6.29,15.91 -2.66,6.13 -9.79,8.94 -15.92,6.29zm-3.36 725.54l-7.46 10.84 -16.73 -11.51 20.27 -736.31 24.2 0.67 -20.27 736.31zm-24.2 -0.67l24.2 0.67c-0.18,6.68 -5.75,11.94 -12.43,11.76 -6.68,-0.18 -11.95,-5.75 -11.77,-12.43z"/>
   </g>
   <g>
    <polygon class="fil13" points="10554.01,9346.02 10632.89,10460.83 10819.21,10570.72 10866.1,10523.59 10847.76,9192.98 "/>
    <path id="1" class="fil14" d="M10644.96 10459.98l-18.22 11.26 -5.92 -9.56 -78.88 -1114.81 24.14 -1.7 78.88 1114.81zm-24.14 1.7l24.14 -1.7c0.47,6.66 -4.55,12.44 -11.22,12.91 -6.67,0.47 -12.46,-4.55 -12.93,-11.21zm204.54 98.62l2.43 18.94 -14.74 1.89 -186.32 -109.88 12.31 -20.83 186.32 109.88zm-12.31 20.83l12.31 -20.83c5.75,3.39 7.67,10.81 4.27,16.56 -3.4,5.75 -10.82,7.66 -16.58,4.27zm44.46 -66.06l20.69 8.36 -3.52 8.69 -46.89 47.12 -17.17 -17.05 46.89 -47.12zm17.17 17.05l-17.17 -17.05c4.71,-4.73 12.38,-4.76 17.12,-0.05 4.74,4.71 4.76,12.37 0.05,17.1zm-39.02 -1338.97l6.51 -10.89 17.7 10.55 18.34 1330.61 -24.2 0.34 -18.34 -1330.61zm24.2 -0.34l-24.2 0.34c-0.09,-6.67 5.25,-12.17 11.93,-12.26 6.68,-0.09 12.18,5.25 12.27,11.92zm-300.26 163.93l-17.67 -9.87 6.48 -11.57 293.76 -153.04 11.19 21.44 -293.76 153.04zm-11.19 -21.44l11.19 21.44c-5.92,3.09 -13.24,0.79 -16.33,-5.13 -3.09,-5.92 -0.79,-13.22 5.14,-16.31z"/>
   </g>
   <g>
    <polygon class="fil15" points="9819.86,9589.33 9813.62,11577.89 9911.4,11538.6 9969.2,9520.86 "/>
    <path id="1" class="fil14" d="M9825.73 11577.92l-7.61 11.26 -16.59 -11.34 6.23 -1988.56 24.2 0.08 -6.23 1988.56zm-24.2 -0.08l24.2 0.08c-0.02,6.72 -5.46,12.15 -12.14,12.13 -6.68,-0.02 -12.08,-5.49 -12.06,-12.21zm105.38 -50.55l16.59 11.65 -7.61 10.95 -97.77 39.28 -8.98 -22.6 97.77 -39.28zm8.98 22.6l-8.98 -22.6c6.2,-2.49 13.25,0.55 15.73,6.79 2.48,6.24 -0.54,13.32 -6.75,15.82zm41.21 -2029.39l7.08 -10.72 17.12 11.42 -57.8 2017.74 -24.2 -0.7 57.8 -2017.74zm24.2 0.7l-24.2 -0.7c0.19,-6.72 5.77,-12.01 12.45,-11.81 6.68,0.19 11.94,5.8 11.75,12.52zm-156.42 79.19l-17.12 -11.11 7.08 -11.03 149.34 -68.47 10.04 22.15 -149.34 68.47zm-10.04 -22.15l10.04 22.15c-6.08,2.79 -13.26,0.09 -16.04,-6.02 -2.77,-6.11 -0.09,-13.33 5.99,-16.12z"/>
   </g>
   <g>
    <polygon class="fil15" points="10762.64,9237.33 10819.21,10570.72 10866.1,10523.59 10847.76,9192.98 "/>
    <path id="1" class="fil14" d="M10831.3 10570.2l-3.51 9.04 -20.68 -8.01 -56.57 -1333.39 24.19 -1.03 56.57 1333.39zm-24.19 1.03l24.19 -1.03c0.28,6.67 -4.9,12.31 -11.58,12.59 -6.68,0.28 -12.32,-4.9 -12.61,-11.57zm50.4 -56.16l20.69 8.36 -3.52 8.69 -46.89 47.12 -17.17 -17.05 46.89 -47.12zm17.17 17.05l-17.17 -17.05c4.71,-4.73 12.38,-4.76 17.12,-0.05 4.74,4.71 4.76,12.37 0.05,17.1zm-39.02 -1338.97l6.51 -10.89 17.7 10.55 18.34 1330.61 -24.2 0.34 -18.34 -1330.61zm24.2 -0.34l-24.2 0.34c-0.09,-6.67 5.25,-12.17 11.93,-12.26 6.68,-0.09 12.18,5.25 12.27,11.92zm-91.63 55.23l-17.69 -10.21 6.5 -11.23 85.12 -44.35 11.19 21.44 -85.12 44.35zm-11.19 -21.44l11.19 21.44c-5.92,3.09 -13.24,0.79 -16.33,-5.13 -3.09,-5.92 -0.79,-13.22 5.14,-16.31z"/>
   </g>
   <path class="fil28 str21" d="M9966.71 7604.27c-348.22,-67.76 -536.59,-92.06 -915.85,-211.03 -178.93,-51.21 -319.05,-60.53 -348.99,91.57 42.93,124.66 85.86,249.32 128.78,373.98 335.74,14.2 671.47,28.4 1007.21,42.61 42.95,-99.05 85.9,-198.09 128.85,-297.13z"/>
   <path class="fil29 str22" d="M10014.63 7885.23c-397.31,-136.58 -850.49,-248.32 -1247.8,-384.89 -101.4,-34.14 -181.07,-18.63 -285.57,37.25 -371.98,173.82 -743.96,347.64 -1115.95,521.45 198.16,161.41 396.32,322.83 594.48,484.24 670.46,33.11 1340.92,66.22 2011.38,99.32 -4.14,-244.18 47.59,-513.19 43.45,-757.37z"/>
   <path class="fil30 str23" d="M10754.87 6631.2c-267.56,933.09 -535.12,1866.17 -802.68,2799.26 -34.88,117.18 -107,209.53 -253.62,128.05 -860.52,-311.52 -1721.04,-623.03 -2581.56,-934.55 2.07,-122.09 4.14,-244.18 6.21,-366.27 -24.83,-97.26 6.21,-269.02 242.11,-198.66 471.81,95.19 952.5,304.24 1415.42,285.56 719.64,-29.04 1222.97,-707.7 1489.91,-1620.27 111.74,-204.86 487.32,-226.59 484.22,-93.12z"/>
   <path class="fil31 str24" d="M10754.87 6631.2c395.24,-138.65 790.48,-277.29 1185.73,-415.93 11.9,41.39 -2.58,186.76 -37.25,274.7 -378.68,910.5 -469.96,1450.8 -743.11,2293.02 -86.91,229.69 -325.61,465.24 -462.19,496.28 -299.76,105.11 -536.48,188.11 -836.25,293.21 297.69,-980.42 595.38,-1960.85 893.07,-2941.28z"/>
   <path class="fil32 str25" d="M11946.55 6212.04c-34.82,-150.09 -136.63,-221.35 -337,-155.18 -154.54,101.83 -388.74,209.25 -638.82,293.68 -295.94,99.91 -589.28,193.7 -646.63,277.07 102.15,-55.88 296.86,-104.26 386.59,-79.82 32.54,8.87 42.73,55.49 38.21,86.64 395.24,-138.65 802.4,-283.75 1197.65,-422.39z"/>
   <polygon class="fil15 str26" points="8698.66,9970.97 8675.77,9188.25 8769.61,9222.22 8749.58,9949.86 "/>
   <polygon class="fil15 str27" points="7414.91,10617.71 7355.96,8710.46 7509.41,8766.01 7493.13,10594.92 "/>
  </g>
  <g>
   <path class="fil33 str28" d="M8285.37 1243.27l3466.43 -297.08c736.06,-63.08 962.08,526.12 975.06,637.31 119.01,1019.82 -40.36,1708.24 -242.08,2263.33 -35.89,98.77 -223.55,278.49 -333.29,254.05l-3836.11 -854.25c-109.74,-24.44 -178.34,-211.24 -205.59,-321.9 -97.95,-397.74 -111.17,-758.84 -63.89,-1219.97 14.1,-137.49 70.92,-447.05 239.48,-461.5z"/>
   <path class="fil34 str28" d="M8043.33 1140.92l3515.1 -195.77c740.66,-41.25 913.41,424.8 926.39,536 119.02,1019.82 14.12,1734.4 -187.61,2289.5 -35.9,98.78 -169,309.84 -278.82,286.26l-3932.95 -844.28c-109.82,-23.57 -178.34,-211.24 -205.59,-321.89 -97.96,-397.75 -123.29,-827.19 -76,-1288.33 14.1,-137.5 69.86,-452.05 239.48,-461.5z"/>
   <path class="fil35 str28" d="M8159.97 1324.7l3156.38 -52c403.86,-6.65 669.74,33.02 806.77,116.03 191.81,116.2 160.23,295.48 156.86,359.08 -56.48,1066.65 -65.63,1123.82 -121.97,1615.05 -12.34,107.56 -139,317.2 -363.55,273.81l-3684.68 -711.93c-109.94,-21.24 -187.13,-117.55 -193.62,-228.38 -25.33,-432.46 -11.32,-568.66 -18.51,-1071.08 -2.01,-140.56 91.52,-297.77 262.32,-300.58z"/>
   <path class="fil36" d="M8195.06 1476.77l3018.39 -49.73c403.86,-6.65 669.74,33.03 806.77,116.03 191.8,116.2 160.23,295.48 156.86,359.08 -56.48,1066.65 -2.09,963.7 -58.43,1454.93 -12.34,107.55 -99.66,322.98 -324.21,279.59l-3684.68 -711.93c-109.94,-21.24 -149.31,-107.45 -155.8,-218.28 -25.32,-432.46 -3.77,-472.23 -10.94,-974.65 -2.01,-140.54 81.23,-252.23 252.03,-255.04z"/>
   <path class="fil34 str28" d="M8225.81 1633.47l3038.48 59.85c299.34,5.9 487.21,36.66 562.49,68.77 149.86,63.93 117.27,260.05 114.79,306.94 -41.64,786.53 -7.62,738.02 -49.15,1100.25 -9.09,79.3 -97.81,225.85 -263.47,196.37l-3434.04 -611.15c-81.11,-14.44 -137.99,-86.69 -142.78,-168.4 -18.67,-318.89 -14.46,-360.51 -19.75,-730.98 -1.48,-103.64 66.83,-224.14 193.43,-221.65z"/>
   <ellipse class="fil37 str29" transform="matrix(0.953583 0.140139 -0 0.953583 8366.81 2189.75)" rx="238" ry="415.7"/>
   <ellipse class="fil37 str29" transform="matrix(1.28116 0.188279 -0 1.28116 11163.5 2469.69)" rx="238" ry="415.7"/>
   <path class="fil38 str30" d="M8331.7 1864.04c97.8,14.37 174.44,168.66 174.44,339.48 0,170.82 -79.34,301.07 -177.09,283.28l-47.69 -8.68c-70.71,-50.96 -182.2,-207.9 -129.39,-326.64l130.44 -293.27 49.29 5.84z"/>
   <path class="fil38 str30" d="M11116.32 2032.09c131.4,19.31 234.36,226.6 234.36,456.1 0,229.5 -106.6,404.49 -237.91,380.59l-64.08 -11.66c-95.01,-68.47 -244.79,-279.32 -173.83,-438.85l175.24 -394.01 66.23 7.84z"/>
   <ellipse class="fil37 str29" transform="matrix(0.667778 0.0981367 -0 0.746126 8286.56 2168.88)" rx="238" ry="415.7"/>
   <ellipse class="fil37 str29" transform="matrix(0.897174 0.131849 -0 1.00244 11055.7 2441.65)" rx="238" ry="415.7"/>
   <ellipse class="fil37 str29" transform="matrix(0.460014 0.0676037 -0 0.513986 8286.56 2168.88)" rx="238" ry="415.7"/>
   <ellipse class="fil37 str29" transform="matrix(0.618039 0.090827 -0 0.690551 11055.7 2441.65)" rx="238" ry="415.7"/>
   <path class="fil39 str28" d="M8735.18 1810.19c642.58,16.23 1285.15,9.59 1927.73,25.83 45.39,10.34 83.22,33.2 81.71,100.19 -5.29,327.55 -10.58,603.64 -15.87,931.2 -3.77,50.35 -46.89,82.81 -106.64,73.48 -622.35,-92.38 -1227.54,-187.97 -1849.89,-280.35 -37.18,-6.53 -69.83,-22.99 -66.15,-71.93 1.73,-270.58 -13.71,-463.61 -11.98,-734.19 0.83,-23.44 10.74,-42.52 41.08,-44.23z"/>
   <path class="fil38" d="M8975.07 2844.19l166.43 24.46 0 178.54 -166.43 -24.46 -25.73 -162.81 25.73 -15.72zm223.93 17.78l163.4 24.01 0 196.69 -163.4 -24.01 -25.73 -186.18 25.73 -10.51zm196.69 68.24l172.48 25.35 0 145.25 -172.48 -25.35 -25.73 -134.73 25.73 -10.52zm217.87 -16.4l202.74 29.8 0 199.72 -202.74 -29.8 -25.73 -189.2 25.73 -10.52zm236.03 46.79l193.66 28.46 0 208.8 -193.66 -28.46 -25.73 -198.28 25.73 -10.52zm239.05 56.32l226.95 33.35 0 181.56 -226.95 -33.35 -25.73 -171.05 25.73 -10.51z"/>
   <rect class="fil37" transform="matrix(0.953583 0.140139 -0 0.953583 8949.33 2854.71)" width="174.53" height="187.23"/>
   <rect class="fil37" transform="matrix(0.953583 0.140139 -0 0.953583 9173.26 2872.49)" width="171.36" height="206.27"/>
   <rect class="fil37" transform="matrix(0.953583 0.140139 -0 0.953583 9369.95 2940.73)" width="180.88" height="152.32"/>
   <rect class="fil37" transform="matrix(0.953583 0.140139 -0 0.953583 9587.82 2924.33)" width="212.61" height="209.44"/>
   <rect class="fil37" transform="matrix(0.953583 0.140139 -0 0.953583 9823.85 2971.12)" width="203.09" height="218.96"/>
   <rect class="fil37" transform="matrix(0.953583 0.140139 -0 0.953583 10062.9 3027.44)" width="238" height="190.4"/>
   <ellipse class="fil40" transform="matrix(0.763387 0.112187 -0 0.901449 8675.49 2867.42)" rx="161.53" ry="165.33"/>
   <ellipse class="fil40" transform="matrix(1.13264 0.166453 -0 1.08087 10770.7 3222.09)" rx="161.53" ry="165.33"/>
   <ellipse class="fil37 str31" transform="matrix(0.763387 0.112187 -0 0.901449 8641.45 2866.2)" rx="161.53" ry="165.33"/>
   <ellipse class="fil37 str31" transform="matrix(1.13264 0.166453 -0 1.08087 10720.2 3219.2)" rx="161.53" ry="165.33"/>
  </g>
  <g>
   <path class="fil41 str32" d="M4795.35 655.36c1438.81,-202.7 2877.62,-205.2 4316.43,-3.72 233.18,32.65 194.44,60.12 194.44,298.02l-3.17 740.18 -4673.65 0c0,-311.14 0,-490.18 0,-778.25 0,-201.19 -33,-228.2 165.96,-256.23z"/>
   <path class="fil42 str33" d="M6969.42 1386.81c891.42,0.26 1586.56,51.31 2332.36,191.2l-6.23 513.09c-451.67,104.2 -1660.2,-112.65 -2414.78,-80.73l-2242.51 94.88 -1.21 -527.24c-0.24,-105.59 1440.94,-191.46 2332.37,-191.2z"/>
   <ellipse class="fil11 str34" cx="6968.22" cy="2122.23" rx="2350.24" ry="191.2"/>
   <line class="fil9 str35" x1="5297.08" y1="597.43" x2="5305.01" y2= "1435.18" />
   <line class="fil9 str35" x1="8673.49" y1="590.73" x2="8665.56" y2= "1453.87" />
   <line class="fil9 str35" x1="6070.27" y1="553" x2="6078.2" y2= "1390.76" />
   <line class="fil9 str35" x1="7855.33" y1="540.31" x2="7847.4" y2= "1378.06" />
   <line class="fil9 str35" x1="6982.1" y1="508.58" x2="6974.16" y2= "1346.33" />
  </g>
 </g>
</svg>
