<?xml version="1.0" encoding="UTF-8"?>
<!DOCTYPE svg PUBLIC "-//W3C//DTD SVG 1.1//EN" "http://www.w3.org/Graphics/SVG/1.1/DTD/svg11.dtd">
<!-- Creator: CorelDRAW 2018 (64-Bit) -->
<svg xmlns="http://www.w3.org/2000/svg" xml:space="preserve" width="495.935mm" height="402.205mm" version="1.1" style="shape-rendering:geometricPrecision; text-rendering:geometricPrecision; image-rendering:optimizeQuality; fill-rule:evenodd; clip-rule:evenodd"
viewBox="0 0 8950.62 7258.98"
 xmlns:xlink="http://www.w3.org/1999/xlink">
 <defs>
  <style type="text/css">
   <![CDATA[
    .str0 {stroke:#FEFEFE;stroke-width:15.28;stroke-miterlimit:22.9256}
    .str11 {stroke:#974B1E;stroke-width:15.28;stroke-miterlimit:22.9256}
    .str10 {stroke:#72088C;stroke-width:15.28;stroke-miterlimit:22.9256}
    .str27 {stroke:black;stroke-width:38.2;stroke-miterlimit:22.9256}
    .str1 {stroke:#FEFEFE;stroke-width:3.61;stroke-miterlimit:22.9256}
    .str28 {stroke:#2B2A29;stroke-width:3.61;stroke-miterlimit:22.9256}
    .str29 {stroke:#A04ABF;stroke-width:24.45;stroke-miterlimit:22.9256}
    .str3 {stroke:#ACA492;stroke-width:1.38;stroke-miterlimit:22.9256}
    .str4 {stroke:#898989;stroke-width:15.28;stroke-linecap:round;stroke-linejoin:round;stroke-miterlimit:22.9256}
    .str2 {stroke:#2B2A29;stroke-width:15.28;stroke-linecap:round;stroke-linejoin:round;stroke-miterlimit:22.9256}
    .str12 {stroke:#6B5E5E;stroke-width:15.28;stroke-linecap:round;stroke-linejoin:round;stroke-miterlimit:22.9256}
    .str19 {stroke:#6E7677;stroke-width:15.28;stroke-linecap:round;stroke-linejoin:round;stroke-miterlimit:22.9256}
    .str20 {stroke:#A3084B;stroke-width:15.28;stroke-linecap:round;stroke-linejoin:round;stroke-miterlimit:22.9256}
    .str13 {stroke:#6E7677;stroke-width:15.28;stroke-linecap:round;stroke-linejoin:round;stroke-miterlimit:22.9256}
    .str26 {stroke:#6E7677;stroke-width:15.28;stroke-linecap:round;stroke-linejoin:round;stroke-miterlimit:22.9256}
    .str23 {stroke:#A3084B;stroke-width:15.28;stroke-linecap:round;stroke-linejoin:round;stroke-miterlimit:22.9256}
    .str16 {stroke:#6E7677;stroke-width:15.28;stroke-linecap:round;stroke-linejoin:round;stroke-miterlimit:22.9256}
    .str21 {stroke:#A3084B;stroke-width:15.28;stroke-linecap:round;stroke-linejoin:round;stroke-miterlimit:22.9256}
    .str14 {stroke:#6E7677;stroke-width:15.28;stroke-linecap:round;stroke-linejoin:round;stroke-miterlimit:22.9256}
    .str15 {stroke:#6E7677;stroke-width:15.28;stroke-linecap:round;stroke-linejoin:round;stroke-miterlimit:22.9256}
    .str22 {stroke:#A3084B;stroke-width:15.28;stroke-linecap:round;stroke-linejoin:round;stroke-miterlimit:22.9256}
    .str25 {stroke:#6E7677;stroke-width:15.28;stroke-linecap:round;stroke-linejoin:round;stroke-miterlimit:22.9256}
    .str18 {stroke:#6E7677;stroke-width:15.28;stroke-linecap:round;stroke-linejoin:round;stroke-miterlimit:22.9256}
    .str24 {stroke:#A3084B;stroke-width:15.28;stroke-linecap:round;stroke-linejoin:round;stroke-miterlimit:22.9256}
    .str17 {stroke:#6E7677;stroke-width:15.28;stroke-linecap:round;stroke-linejoin:round;stroke-miterlimit:22.9256}
    .str6 {stroke:#521A26;stroke-width:16.67;stroke-linecap:round;stroke-linejoin:round;stroke-miterlimit:22.9256}
    .str9 {stroke:#521A26;stroke-width:16.67;stroke-linecap:round;stroke-linejoin:round;stroke-miterlimit:22.9256}
    .str7 {stroke:#521A26;stroke-width:16.67;stroke-linecap:round;stroke-linejoin:round;stroke-miterlimit:22.9256}
    .str5 {stroke:#521A26;stroke-width:16.67;stroke-linecap:round;stroke-linejoin:round;stroke-miterlimit:22.9256}
    .str8 {stroke:#521A26;stroke-width:16.67;stroke-linecap:round;stroke-linejoin:round;stroke-miterlimit:22.9256}
    .fil5 {fill:none}
    .fil8 {fill:#FEFEFE}
    .fil26 {fill:#898989}
    .fil7 {fill:#727271}
    .fil20 {fill:#5B5B5B}
    .fil39 {fill:#2B2A29}
    .fil17 {fill:#EF7F1A}
    .fil1 {fill:#F6F0E0}
    .fil19 {fill:#BB661E}
    .fil18 {fill:#AE541F}
    .fil0 {fill:#ECE8E0}
    .fil25 {fill:#C39869}
    .fil6 {fill:#D1CCC0}
    .fil23 {fill:#9F7C59}
    .fil37 {fill:#ACA492}
    .fil29 {fill:#ACB7B9}
    .fil32 {fill:#A9B2B4}
    .fil24 {fill:#876C51}
    .fil38 {fill:#A2D9F7}
    .fil31 {fill:#97A4A7}
    .fil30 {fill:#8A9496}
    .fil28 {fill:#798487}
    .fil2 {fill:#1F1B20}
    .fil12 {fill:#521A26}
    .fil41 {fill:#6E0D91}
    .fil11 {fill:#702F3D}
    .fil13 {fill:#72404B}
    .fil9 {fill:#80317D}
    .fil3 {fill:#843E4D}
    .fil15 {fill:#8F2DA8}
    .fil16 {fill:#9638AD}
    .fil10 {fill:#964B5B}
    .fil40 {fill:#A04ABF}
    .fil14 {fill:#AC42C7}
    .fil33 {fill:#C9226A}
    .fil4 {fill:#E3E3E3}
    .fil34 {fill:#ED5396}
    .fil36 {fill:#F56AA6}
    .fil22 {fill:#2B2A29;fill-rule:nonzero}
    .fil27 {fill:#6E7677;fill-rule:nonzero}
    .fil21 {fill:url(#id10)}
    .fil35 {fill:url(#id11)}
   ]]>
  </style>
    <clipPath id="id0">
     <path d="M3825.74 0.69l-39.24 3722.1 5164.13 1810.44 -11.46 -5532.53 -5113.43 0z"/>
    </clipPath>
    <clipPath id="id1">
     <path d="M3101.32 0.69l-833.71 0 0 2711.52 833.71 0 0 -2711.52z"/>
    </clipPath>
    <clipPath id="id2">
     <path d="M3067.02 0.69l-833.71 0 0 2711.52 833.71 0 0 -2711.52z"/>
    </clipPath>
     <mask id="id3">
  <linearGradient id="id4" gradientUnits="userSpaceOnUse" x1="2699.86" y1="2315.29" x2="2709.91" y2="3491.94">
   <stop offset="0" style="stop-opacity:0; stop-color:white"/>
   <stop offset="1" style="stop-opacity:1; stop-color:white"/>
  </linearGradient>
      <rect style="fill:url(#id4)" x="1038.77" y="1877.74" width="3313.35" height="1988.94"/>
     </mask>
     <mask id="id5">
  <linearGradient id="id6" gradientUnits="userSpaceOnUse" x1="3162.68" y1="3457.56" x2="3172.02" y2="4735.87">
   <stop offset="0" style="stop-opacity:0; stop-color:white"/>
   <stop offset="1" style="stop-opacity:1; stop-color:white"/>
  </linearGradient>
      <rect style="fill:url(#id6)" x="1052.42" y="2982.38" width="4205.89" height="2160.43"/>
     </mask>
     <clipPath id="id7">
      <path d="M3205.85 2682.63c-180.7,-122.09 -386.42,-244.19 -567.11,-366.29 -98.74,-66.71 -75.53,-79.24 -136.91,16.23 -128.64,200.09 -286.47,391.85 -415.11,591.94 -70.28,109.32 -9.56,135.28 97.62,227.92 188.94,163.31 408.51,332.63 503.24,329.8 38.78,-1.16 85.71,-10.92 143.28,-22.2 43.16,-8.46 111.92,-3.72 145.58,-27.34 64.71,-45.4 170.22,-338.09 275.13,-562.03 53.34,-113.86 58.85,-117.38 -45.72,-188.03z"/>
     </clipPath>
     <clipPath id="id8">
      <path d="M3925.37 2571.49c-180.7,-122.09 -386.42,-244.19 -567.11,-366.29 -98.74,-66.71 -75.53,-79.24 -136.91,16.23 -128.64,200.09 -286.47,391.85 -415.11,591.94 -70.28,109.32 -9.55,135.28 97.62,227.92 188.94,163.31 408.51,332.63 503.24,329.8 38.78,-1.16 85.71,-10.92 143.28,-22.2 43.16,-8.46 111.92,-3.72 145.58,-27.34 64.71,-45.4 170.22,-338.09 275.13,-562.03 53.34,-113.86 58.85,-117.38 -45.72,-188.03z"/>
     </clipPath>
     <clipPath id="id9">
      <path d="M1652.89 3193.3l9.32 122.36 1800.88 835.23 3631.34 -1006.04 -7.93 -113.06 -2327.76 -283.34 -3105.85 444.85z"/>
     </clipPath>
  <linearGradient id="id10" gradientUnits="userSpaceOnUse" x1="4576.16" y1="3719.9" x2="4566.61" y2="5454.88">
   <stop offset="0" style="stop-opacity:1; stop-color:#363C3D"/>
   <stop offset="1" style="stop-opacity:1; stop-color:#515859"/>
  </linearGradient>
  <linearGradient id="id11" gradientUnits="userSpaceOnUse" x1="4728.9" y1="5379.07" x2="6597.31" y2="4879.67">
   <stop offset="0" style="stop-opacity:1; stop-color:#EB3D88"/>
   <stop offset="1" style="stop-opacity:1; stop-color:#C9226A"/>
  </linearGradient>
 </defs>
 <g id="Слой_x0020_1">
  <metadata id="CorelCorpID_0Corel-Layer"/>
  <g id="_756945696">
   <rect class="fil0" x="-0" y="0.69" width="8939.16" height="7258.29"/>
   <polygon class="fil1" points="3825.74,0.69 3786.49,3722.78 8950.62,5533.22 8939.16,0.69 "/>
   <g style="clip-path:url(#id0)">
    <g>
     <g>
      <ellipse class="fil2" cx="3836.73" cy="1704.78" rx="1164.94" ry="1526.41"/>
      <ellipse class="fil3 str0" cx="3836.73" cy="1704.78" rx="456.57" ry="598.24"/>
      <ellipse class="fil4 str1" cx="3836.73" cy="1704.78" rx="32.56" ry="42.66"/>
     </g>
    </g>
   </g>
   <polygon class="fil5" points="3825.74,0.69 3786.49,3722.78 8950.62,5533.22 8939.16,0.69 "/>
   <polygon class="fil6" points="11.46,3424.5 -0,2385.41 8950.62,5533.22 8950.62,7224.6 11.46,7224.6 "/>
   <polygon class="fil7" points="3101.32,0.69 2267.6,0.69 2267.6,2712.21 3101.32,2712.21 "/>
   <g style="clip-path:url(#id1)">
    <g>
     <line id="1" class="fil5 str2" x1="2264.24" y1="796.18" x2="3097.95" y2= "798.64" />
     <line class="fil5 str2" x1="2268.39" y1="2094.59" x2="3102.1" y2= "2097.05" />
     <line class="fil5 str2" x1="2264.24" y1="623.72" x2="3097.95" y2= "626.19" />
     <line class="fil5 str2" x1="2268.39" y1="1922.13" x2="3102.1" y2= "1924.59" />
     <line class="fil5 str2" x1="2260" y1="1373.5" x2="3093.71" y2= "1375.96" />
     <line class="fil5 str2" x1="2264.24" y1="451.26" x2="3097.95" y2= "453.73" />
     <line class="fil5 str2" x1="2268.39" y1="1749.67" x2="3102.1" y2= "1752.13" />
     <line class="fil5 str2" x1="2258.19" y1="1201.48" x2="3091.91" y2= "1203.94" />
     <line class="fil5 str2" x1="2267.6" y1="1005.02" x2="3101.32" y2= "1007.48" />
     <line class="fil5 str2" x1="2263.18" y1="1562.49" x2="3096.89" y2= "1564.95" />
    </g>
   </g>
   <polygon class="fil5 str3" points="3101.32,0.69 2267.6,0.69 2267.6,2712.21 3101.32,2712.21 "/>
   <polygon class="fil8" points="3067.02,0.69 2233.31,0.69 2233.31,2712.21 3067.02,2712.21 "/>
   <g style="clip-path:url(#id2)">
    <g>
     <line id="1" class="fil5 str4" x1="2229.95" y1="593.64" x2="3063.66" y2= "797.64" />
     <line class="fil5 str4" x1="2234.1" y1="1893.05" x2="3067.81" y2= "2097.05" />
     <line class="fil5 str4" x1="2229.95" y1="421.18" x2="3063.66" y2= "625.18" />
     <line class="fil5 str4" x1="2234.1" y1="1720.59" x2="3067.81" y2= "1924.59" />
     <line class="fil5 str4" x1="2225.71" y1="1169.93" x2="3059.42" y2= "1373.93" />
     <line class="fil5 str4" x1="2229.95" y1="248.72" x2="3063.66" y2= "452.72" />
     <line class="fil5 str4" x1="2234.1" y1="1548.13" x2="3067.81" y2= "1752.13" />
     <line class="fil5 str4" x1="2223.9" y1="997.47" x2="3057.62" y2= "1201.47" />
     <line class="fil5 str4" x1="2233.31" y1="803.29" x2="3067.02" y2= "1007.29" />
     <line class="fil5 str4" x1="2228.89" y1="1359.69" x2="3062.6" y2= "1563.69" />
    </g>
   </g>
   <polygon class="fil5 str3" points="3067.02,0.69 2233.31,0.69 2233.31,2712.21 3067.02,2712.21 "/>
   <polygon class="fil9" points="-0,0.69 2227.11,0.69 2233.31,3109.27 -0,2385.41 "/>
   <g>
    <path class="fil10 str5" d="M4168.08 1846.55c74.18,-26 303.72,37.72 274.89,299.2 -0.65,353.79 -13.38,269.15 -14.56,460.66 68.94,82.36 649.43,217.31 849.54,284.37 263.91,88.44 65.01,1307.94 50.46,1432.61l-70.3 18.47 -12.6 -1018.68 -944.91 -48.82c-49.23,-445.82 -178.84,-963.22 -229.33,-1418.29 -0.52,-10.7 69.3,3.67 96.82,-9.53z"/>
    <path class="fil11 str6" d="M4071.26 1856.08c74.18,-26 334.22,24.45 305.39,285.94 -0.65,353.79 -4.6,329.77 -5.78,521.28 68.94,82.36 631.91,213.17 835.69,268.07 271.55,73.16 66.1,1285.83 51.55,1410.51l-1159.81 -340c-150.93,-419.41 86.38,-1763.9 -27.03,-2145.8z"/>
    <path class="fil10 str7" d="M783.11 2654.11c53.49,-132.82 2916.79,-789.41 3261.65,-798.34 132.86,-1.7 185.36,41.14 198.46,201.62 13.09,160.48 -4.58,695.81 171.31,812.5 247.56,164.24 807.04,131.31 841.98,334.96 9.88,57.59 -51.15,744.73 -57.26,802.85 -492.89,123.92 -3141.5,1031.04 -3634.39,1154.96 -39.24,-25.56 -44.78,-683.04 -84.02,-708.6 -145.06,-94.49 -290.14,-188.99 -435.2,-283.48 -124.37,-81.01 -97.97,-54.51 -114.86,-204.57 -49.22,-437.3 -98.44,-874.6 -147.66,-1311.89z"/>
    <path class="fil12" style="mask:url(#id3)" d="M1054.22 3864.87l3296.1 -988.88c-147.01,-398.63 -118.61,-850.89 -284.07,-996.46 -1035.96,266.99 -1982.96,620.36 -3018.92,887.36 81.97,23.8 -47.05,640.53 6.89,1097.97z"/>
    <path class="fil12" style="mask:url(#id5)" d="M1054.22 3864.87l3120.47 -829.54c284.69,-94.6 1045.42,-68.81 1081.81,169.51 -50.08,534.19 -50.2,589.46 -57.26,802.85 -1014.35,304.74 -2516.82,865.95 -3552.78,1132.95 81.97,23.8 -326.62,-1098.29 -592.24,-1275.76z"/>
    <path class="fil13 str8" d="M804.18 2634.35c74.18,-26 303.73,37.72 274.89,299.2 -0.65,353.79 -17.71,724.87 -18.89,916.38 68.94,82.36 220.44,188.27 417.49,263.89 160.77,61.71 154.04,357.5 139.49,482.17l55.13 1024.64 -83.03 37.77 -491.68 -384.81c-49.23,-445.82 -339.96,-2120.48 -390.44,-2575.55 -0.52,-10.7 69.52,-50.49 97.04,-63.68z"/>
    <path class="fil11 str9" d="M707.14 2698.03c74.18,-26 334.22,24.45 305.39,285.93 -0.65,353.79 -17.71,724.87 -18.89,916.38 68.94,82.36 220.44,188.27 417.49,263.89 122.89,47.17 136.4,320.68 129.45,502.64 -2.14,56.09 52.12,962.14 48.7,991.52l-797.69 -478.01 -84.43 -2482.35z"/>
    <path class="fil14" d="M3205.85 2682.63c-180.7,-122.09 -386.42,-244.19 -567.11,-366.29 -98.74,-66.71 -75.53,-79.24 -136.91,16.23 -128.64,200.09 -286.47,391.85 -415.11,591.94 -70.28,109.32 -9.56,135.28 97.62,227.92 188.94,163.31 408.51,332.63 503.24,329.8 38.78,-1.16 85.71,-10.92 143.28,-22.2 43.16,-8.46 111.92,-3.72 145.58,-27.34 64.71,-45.4 170.22,-338.09 275.13,-562.03 53.34,-113.86 58.85,-117.38 -45.72,-188.03z"/>
    <g style="clip-path:url(#id7)">
     <g>
      <path id="1" class="fil15" d="M2638.74 2316.34c-65.4,-99.61 -75.53,-79.24 -136.91,16.23 -128.64,200.09 -286.47,391.85 -415.11,591.94 -70.28,109.32 -9.56,135.28 97.62,227.92 188.94,163.31 438.92,336.29 533.65,333.45 67.85,-2.03 179.88,1.93 258.45,-53.19 64.71,-45.4 80.94,-144.61 185.84,-368.54 105.63,-225.48 -251.97,-334.16 -523.54,-747.81z"/>
      <path class="fil16" d="M2638.74 2316.34c-65.4,-99.61 -113.81,-94.89 -136.91,16.23 -28.6,137.56 -65.48,334.61 -79.4,577.2 -7.44,129.74 20.62,192.01 72.61,323.8 43.05,109.12 128.22,255.14 222.95,252.31 67.85,-2.03 179.88,1.93 258.45,-53.19 64.71,-45.4 80.94,-144.61 185.84,-368.54 105.63,-225.48 -251.97,-334.16 -523.54,-747.81z"/>
     </g>
    </g>
    <path class="fil5 str10" d="M3205.85 2682.63c-180.7,-122.09 -386.42,-244.19 -567.11,-366.29 -98.74,-66.71 -75.53,-79.24 -136.91,16.23 -128.64,200.09 -286.47,391.85 -415.11,591.94 -70.28,109.32 -9.56,135.28 97.62,227.92 188.94,163.31 408.51,332.63 503.24,329.8 38.78,-1.16 85.71,-10.92 143.28,-22.2 43.16,-8.46 111.92,-3.72 145.58,-27.34 64.71,-45.4 170.22,-338.09 275.13,-562.03 53.34,-113.86 58.85,-117.38 -45.72,-188.03z"/>
    <path class="fil17" d="M3925.37 2571.49c-180.7,-122.09 -386.42,-244.19 -567.11,-366.29 -98.74,-66.71 -75.53,-79.24 -136.91,16.23 -128.64,200.09 -286.47,391.85 -415.11,591.94 -70.28,109.32 -9.55,135.28 97.62,227.92 188.94,163.31 408.51,332.63 503.24,329.8 38.78,-1.16 85.71,-10.92 143.28,-22.2 43.16,-8.46 111.92,-3.72 145.58,-27.34 64.71,-45.4 170.22,-338.09 275.13,-562.03 53.34,-113.86 58.85,-117.38 -45.72,-188.03z"/>
    <g style="clip-path:url(#id8)">
     <g>
      <path id="1" class="fil18" d="M3358.26 2205.2c-65.4,-99.61 -75.53,-79.24 -136.91,16.23 -128.64,200.09 -286.47,391.85 -415.11,591.94 -70.28,109.32 -9.56,135.28 97.62,227.92 188.94,163.31 438.92,336.29 533.65,333.45 67.85,-2.03 179.88,1.93 258.45,-53.19 64.71,-45.4 80.94,-144.61 185.84,-368.54 105.63,-225.48 -251.97,-334.16 -523.54,-747.81z"/>
      <path class="fil19" d="M3358.26 2205.2c-65.4,-99.61 -113.81,-94.89 -136.91,16.23 -28.6,137.57 -65.48,334.61 -79.4,577.2 -7.44,129.74 20.62,192.01 72.61,323.8 43.05,109.12 128.22,255.15 222.95,252.31 67.85,-2.03 179.88,1.93 258.45,-53.19 64.71,-45.4 80.94,-144.61 185.84,-368.54 105.63,-225.48 -251.97,-334.16 -523.54,-747.81z"/>
     </g>
    </g>
    <path class="fil5 str11" d="M3925.37 2571.49c-180.7,-122.09 -386.42,-244.19 -567.11,-366.29 -98.74,-66.71 -75.53,-79.24 -136.91,16.23 -128.64,200.09 -286.47,391.85 -415.11,591.94 -70.28,109.32 -9.55,135.28 97.62,227.92 188.94,163.31 408.51,332.63 503.24,329.8 38.78,-1.16 85.71,-10.92 143.28,-22.2 43.16,-8.46 111.92,-3.72 145.58,-27.34 64.71,-45.4 170.22,-338.09 275.13,-562.03 53.34,-113.86 58.85,-117.38 -45.72,-188.03z"/>
   </g>
   <g>
    <polygon class="fil20" points="3505.99,5441.19 4446.92,5768.05 5464.59,5449.97 5464.82,5420.59 4487.55,5152.95 3505.99,5411.57 "/>
    <polygon class="fil2" points="3505.99,5411.57 4446.92,5738.42 5464.82,5420.59 4487.55,5123.33 "/>
    <g>
     <polygon class="fil21" points="4227.65,3362.69 4745.81,3362.69 4745.81,5382.01 4227.65,5382.01 "/>
     <path id="1" class="fil22" d="M4745.81 3370.33l-518.16 0 0 -15.28 518.16 0 7.59 7.64 -7.59 7.64zm0 -15.28c4.19,0 7.59,3.42 7.59,7.64 0,4.22 -3.4,7.64 -7.59,7.64l0 -15.28zm-7.59 2026.96l0 -2019.32 15.17 0 0 2019.32 -7.59 7.64 -7.59 -7.64zm15.17 0c0,4.22 -3.4,7.64 -7.59,7.64 -4.19,0 -7.59,-3.42 -7.59,-7.64l15.17 0zm-525.74 -7.64l518.16 0 0 15.28 -518.16 0 -7.59 -7.64 7.59 -7.64zm0 15.28c-4.19,0 -7.59,-3.42 -7.59,-7.64 0,-4.22 3.4,-7.64 7.59,-7.64l0 15.28zm7.59 -2026.96l0 2019.32 -15.17 0 0 -2019.32 7.59 -7.64 7.59 7.64zm-15.17 0c0,-4.22 3.4,-7.64 7.59,-7.64 4.19,0 7.59,3.42 7.59,7.64l-15.17 0z"/>
    </g>
    <polygon class="fil23" points="1652.89,3193.3 1662.2,3315.65 3463.09,4150.88 7094.43,3144.85 7086.49,3031.79 4758.73,2748.45 "/>
    <g style="clip-path:url(#id9)">
     <g>
      <rect class="fil24" transform="matrix(-1.90278 0.295797 -0 1 7110.67 2601.49)" width="1925.36" height="1184.25"/>
     </g>
    </g>
    <polygon class="fil5 str12" points="1652.89,3193.3 1662.2,3315.65 3463.09,4150.88 7094.43,3144.85 7086.49,3031.79 4758.73,2748.45 "/>
    <polygon class="fil25 str12" points="1652.89,3193.3 3445.24,3996.19 7097.95,3027.97 5385.24,2626.2 "/>
   </g>
   <g id="_756971488">
    <g>
     <polygon class="fil26" points="7327.84,5089.97 7291.35,6363.61 7229.64,6388.4 7115.27,6306.85 7074.46,5052.92 7233.57,5133.19 "/>
     <path id="1" class="fil27" d="M7298.99 6363.83l-4.8 6.91 -10.47 -7.35 36.49 -1273.64 15.27 0.44 -36.49 1273.64zm-15.27 -0.44l15.27 0.44c-0.12,4.24 -3.64,7.58 -7.86,7.46 -4.22,-0.12 -7.54,-3.66 -7.42,-7.9zm-51.24 32.15l-7.26 -0.87 1.58 -13.4 61.72 -24.8 5.67 14.27 -61.72 24.8zm-5.67 -14.27l5.67 14.27c-3.92,1.57 -8.37,-0.34 -9.93,-4.28 -1.56,-3.94 0.34,-8.41 4.26,-9.98zm-115.96 -68.16l-3.22 -6.02 12.06 -6.52 114.37 81.56 -8.84 12.53 -114.37 -81.56zm8.84 -12.53l-8.84 12.53c-3.44,-2.45 -4.25,-7.25 -1.81,-10.71 2.44,-3.46 7.21,-4.28 10.65,-1.82zm-52.86 -1247.41l11.06 -7.12 4.21 6.61 40.81 1253.92 -15.27 0.5 -40.81 -1253.92zm15.27 -0.5l-15.27 0.5c-0.14,-4.24 3.17,-7.79 7.39,-7.93 4.22,-0.14 7.75,3.19 7.89,7.43zm154.9 73.65l-0.26 13.85 -6.59 -0.12 -159.11 -80.26 6.85 -13.73 159.11 80.26zm-6.85 13.73l6.85 -13.73c3.77,1.9 5.29,6.52 3.4,10.31 -1.89,3.79 -6.48,5.32 -10.25,3.42zm94.52 -57.07l10.81 7.21 -4.47 6.77 -94.27 43.22 -6.34 -13.98 94.27 -43.22zm6.34 13.98l-6.34 -13.98c3.84,-1.76 8.37,-0.06 10.12,3.8 1.75,3.86 0.06,8.42 -3.78,10.18z"/>
    </g>
    <g>
     <polygon class="fil26" points="5764.89,5767.94 5715.52,5782.33 5625.41,5732.1 5573.27,4516.44 5775.45,4582.69 "/>
     <path id="1" class="fil27" d="M5717.66 5789.64l-5.87 -0.66 1.58 -13.97 49.37 -14.39 4.28 14.64 -49.37 14.39zm-4.28 -14.64l4.28 14.64c-4.05,1.18 -8.29,-1.14 -9.48,-5.18 -1.18,-4.04 1.14,-8.28 5.19,-9.46zm-91.7 -36.25l-3.91 -6.33 11.36 -6.98 90.11 50.22 -7.45 13.31 -90.11 -50.22zm7.45 -13.31l-7.45 13.31c-3.68,-2.05 -5,-6.7 -2.95,-10.37 2.06,-3.67 6.71,-4.99 10.4,-2.94zm-63.49 -1208.68l10.02 -7.57 5.25 6.92 52.13 1215.66 -15.26 0.65 -52.13 -1215.66zm15.26 -0.65l-15.26 0.65c-0.18,-4.21 3.09,-7.76 7.31,-7.94 4.21,-0.18 7.78,3.08 7.96,7.29zm196.93 59.33l5.26 7.31 -10.02 7.17 -202.17 -66.25 4.77 -14.49 202.17 66.25zm-4.77 14.49l4.77 -14.49c4.01,1.31 6.19,5.62 4.87,9.62 -1.32,4 -5.63,6.18 -9.64,4.86zm-0.53 1178.08l-5.5 7.25 -9.78 -7.39 10.56 -1185.25 15.28 0.14 -10.56 1185.25zm-15.28 -0.14l15.28 0.14c-0.04,4.21 -3.49,7.59 -7.71,7.55 -4.22,-0.04 -7.61,-3.48 -7.57,-7.69z"/>
    </g>
    <g>
     <polygon class="fil26" points="6557.99,5360.76 6525.85,5374.09 6425.29,5320.27 6392.63,4818.78 6570.79,4895.99 "/>
     <path id="1" class="fil27" d="M6528.77 5381.14l-6.53 -0.32 0.68 -13.79 32.14 -13.32 5.85 14.11 -32.14 13.32zm-5.85 -14.11l5.85 14.11c-3.9,1.62 -8.37,-0.23 -9.98,-4.13 -1.62,-3.89 0.23,-8.37 4.13,-9.98zm-101.24 -40.02l-4.02 -6.24 11.23 -7.23 100.56 53.81 -7.21 13.46 -100.56 -53.81zm7.21 -13.46l-7.21 13.46c-3.72,-1.99 -5.12,-6.62 -3.13,-10.34 1.99,-3.72 6.62,-5.12 10.34,-3.13zm-43.89 -494.27l10.66 -7.5 4.58 6.51 32.67 501.5 -15.25 0.99 -32.67 -501.5zm15.25 -0.99l-15.25 0.99c-0.27,-4.21 2.92,-7.84 7.13,-8.12 4.21,-0.27 7.85,2.92 8.12,7.12zm173.58 70.7l4.6 7.22 -10.68 6.8 -178.16 -77.21 6.08 -14.01 178.16 77.21zm-6.08 14.01l6.08 -14.01c3.87,1.68 5.65,6.18 3.97,10.04 -1.68,3.87 -6.18,5.65 -10.05,3.97zm-2.12 457.97l-4.71 6.85 -10.56 -7.26 12.8 -464.77 15.27 0.42 -12.8 464.77zm-15.27 -0.42l15.27 0.42c-0.12,4.22 -3.63,7.54 -7.85,7.42 -4.22,-0.12 -7.54,-3.63 -7.43,-7.84z"/>
    </g>
    <g>
     <polygon class="fil26" points="7696.99,4979.61 7746.78,5683.3 7864.38,5752.66 7893.98,5722.91 7882.41,4883 "/>
     <path id="1" class="fil27" d="M7754.4 5682.76l-11.5 7.11 -3.74 -6.04 -49.79 -703.69 15.24 -1.08 49.79 703.69zm-15.24 1.08l15.24 -1.08c0.3,4.2 -2.88,7.85 -7.08,8.15 -4.21,0.3 -7.86,-2.87 -8.16,-7.07zm129.11 62.25l1.53 11.95 -9.3 1.19 -117.61 -69.36 7.77 -13.15 117.61 69.36zm-7.77 13.15l7.77 -13.15c3.63,2.14 4.84,6.82 2.69,10.45 -2.14,3.63 -6.83,4.84 -10.46,2.69zm28.06 -41.7l13.06 5.28 -2.22 5.48 -29.6 29.74 -10.84 -10.76 29.6 -29.74zm10.84 10.76l-10.84 -10.76c2.97,-2.99 7.81,-3 10.8,-0.03 2.99,2.97 3.01,7.8 0.03,10.79zm-24.63 -845.18l4.11 -6.87 11.17 6.66 11.57 839.91 -15.28 0.21 -11.57 -839.91zm15.28 -0.21l-15.28 0.21c-0.06,-4.21 3.32,-7.68 7.54,-7.74 4.22,-0.06 7.69,3.31 7.74,7.53zm-189.53 103.47l-11.15 -6.23 4.09 -7.3 185.42 -96.6 7.06 13.53 -185.42 96.6zm-7.06 -13.53l7.06 13.53c-3.74,1.95 -8.36,0.5 -10.31,-3.24 -1.95,-3.74 -0.5,-8.35 3.24,-10.29z"/>
    </g>
    <g>
     <polygon class="fil7" points="7233.57,5133.19 7229.64,6388.4 7291.35,6363.61 7327.84,5089.97 "/>
     <path id="1" class="fil27" d="M7237.28 6388.43l-4.8 7.11 -10.48 -7.16 3.93 -1255.22 15.28 0.05 -3.93 1255.22zm-15.28 -0.05l15.28 0.05c-0.01,4.24 -3.45,7.67 -7.66,7.66 -4.22,-0.01 -7.63,-3.46 -7.62,-7.7zm66.52 -31.91l10.47 7.35 -4.8 6.91 -61.72 24.8 -5.67 -14.27 61.72 -24.8zm5.67 14.27l-5.67 -14.27c3.92,-1.57 8.37,0.34 9.93,4.28 1.56,3.94 -0.34,8.41 -4.26,9.98zm26.01 -1280.99l4.47 -6.77 10.81 7.21 -36.49 1273.64 -15.27 -0.44 36.49 -1273.64zm15.27 0.44l-15.27 -0.44c0.12,-4.24 3.64,-7.58 7.86,-7.46 4.22,0.12 7.54,3.66 7.42,7.9zm-98.73 49.98l-10.81 -7.01 4.47 -6.96 94.27 -43.22 6.34 13.98 -94.27 43.22zm-6.34 -13.98l6.34 13.98c-3.84,1.76 -8.37,0.06 -10.12,-3.8 -1.75,-3.86 -0.06,-8.42 3.78,-10.18z"/>
    </g>
    <g>
     <polygon class="fil7" points="7828.68,4911 7864.38,5752.66 7893.98,5722.91 7882.41,4883 "/>
     <path id="1" class="fil27" d="M7872.02 5752.34l-2.21 5.7 -13.05 -5.06 -35.71 -841.66 15.26 -0.65 35.71 841.66zm-15.26 0.65l15.26 -0.65c0.18,4.21 -3.1,7.77 -7.31,7.95 -4.21,0.18 -7.78,-3.09 -7.96,-7.3zm31.81 -35.45l13.06 5.28 -2.22 5.48 -29.6 29.74 -10.84 -10.76 29.6 -29.74zm10.84 10.76l-10.84 -10.76c2.97,-2.99 7.81,-3 10.8,-0.03 2.99,2.97 3.01,7.8 0.03,10.79zm-24.63 -845.18l4.11 -6.87 11.17 6.66 11.57 839.91 -15.28 0.21 -11.57 -839.91zm15.28 -0.21l-15.28 0.21c-0.06,-4.21 3.32,-7.68 7.54,-7.74 4.22,-0.06 7.69,3.31 7.74,7.53zm-57.84 34.87l-11.16 -6.44 4.1 -7.09 53.73 -27.99 7.06 13.54 -53.73 27.99zm-7.06 -13.54l7.06 13.54c-3.74,1.95 -8.36,0.5 -10.31,-3.24 -1.95,-3.74 -0.5,-8.35 3.24,-10.3z"/>
    </g>
    <path class="fil28 str13" d="M7326.27 3880.18c-219.81,-42.77 -338.71,-58.11 -578.11,-133.21 -112.94,-32.33 -201.39,-38.21 -220.29,57.8 27.1,78.69 54.19,157.38 81.29,236.07 211.92,8.96 423.85,17.93 635.77,26.9 27.11,-62.52 54.22,-125.04 81.33,-187.56z"/>
    <path class="fil29 str14" d="M7356.52 4057.52c-250.79,-86.21 -536.85,-156.74 -787.64,-242.95 -64,-21.55 -114.29,-11.76 -180.26,23.51 -234.8,109.72 -469.6,219.43 -704.41,329.15 125.08,101.89 250.16,203.77 375.25,305.66 423.21,20.9 846.42,41.8 1269.62,62.7 -2.61,-154.13 30.04,-323.94 27.43,-478.07z"/>
    <path class="fil30 str15" d="M7823.77 3265.95c-168.89,588.98 -337.78,1177.97 -506.67,1766.95 -22.01,73.97 -67.54,132.26 -160.09,80.83 -543.18,-196.64 -1086.35,-393.27 -1629.53,-589.91 1.31,-77.06 2.61,-154.13 3.92,-231.2 -15.67,-61.39 3.92,-169.81 152.82,-125.4 297.82,60.09 601.24,192.05 893.44,180.26 454.25,-18.33 771.96,-446.72 940.46,-1022.75 70.53,-129.31 307.61,-143.03 305.65,-58.78z"/>
    <path class="fil31 str16" d="M7823.77 3265.95c249.49,-87.51 498.97,-175.03 748.45,-262.55 7.51,26.12 -1.63,117.88 -23.51,173.4 -239.03,574.73 -296.65,915.78 -469.07,1447.4 -54.86,144.99 -205.53,293.67 -291.74,313.26 -189.21,66.34 -338.64,118.74 -527.86,185.08 187.91,-618.87 375.81,-1237.73 563.72,-1856.6z"/>
    <path class="fil32 str17" d="M8575.99 3001.37c-21.98,-94.74 -86.24,-139.72 -212.72,-97.95 -97.55,64.27 -245.38,132.09 -403.24,185.38 -186.8,63.07 -371.97,122.27 -408.17,174.89 64.48,-35.27 187.39,-65.81 244.02,-50.39 20.54,5.6 26.97,35.02 24.12,54.69 249.48,-87.52 506.49,-179.11 755.98,-266.62z"/>
    <polygon class="fil7 str18" points="6525.85,5374.09 6511.4,4880.02 6570.63,4901.46 6557.99,5360.76 "/>
    <polygon class="fil7 str19" points="5715.52,5782.33 5678.31,4578.43 5775.17,4613.49 5764.89,5767.94 "/>
   </g>
   <g>
    <g>
     <polygon class="fil26" points="6100.34,5792.72 6063.86,7066.36 6002.14,7091.15 5887.77,7009.6 5846.96,5755.67 6006.08,5835.94 "/>
     <path id="1" class="fil27" d="M6071.49 7066.58l-4.8 6.91 -10.47 -7.35 36.49 -1273.64 15.27 0.44 -36.49 1273.64zm-15.27 -0.44l15.27 0.44c-0.12,4.24 -3.64,7.58 -7.86,7.46 -4.22,-0.12 -7.54,-3.66 -7.42,-7.9zm-51.24 32.15l-7.26 -0.87 1.58 -13.4 61.72 -24.8 5.67 14.27 -61.72 24.8zm-5.67 -14.27l5.67 14.27c-3.92,1.57 -8.37,-0.34 -9.93,-4.28 -1.56,-3.94 0.34,-8.41 4.26,-9.98zm-115.96 -68.16l-3.22 -6.02 12.06 -6.52 114.37 81.56 -8.84 12.53 -114.37 -81.56zm8.84 -12.53l-8.84 12.53c-3.44,-2.45 -4.25,-7.25 -1.81,-10.71 2.44,-3.46 7.21,-4.28 10.65,-1.82zm-52.86 -1247.41l11.06 -7.12 4.21 6.61 40.81 1253.93 -15.27 0.5 -40.81 -1253.93zm15.27 -0.5l-15.27 0.5c-0.14,-4.24 3.17,-7.79 7.39,-7.93 4.22,-0.14 7.75,3.19 7.89,7.43zm154.9 73.65l-0.26 13.85 -6.59 -0.12 -159.11 -80.26 6.85 -13.73 159.11 80.26zm-6.85 13.73l6.85 -13.73c3.77,1.9 5.29,6.52 3.4,10.31 -1.89,3.79 -6.48,5.32 -10.25,3.42zm94.52 -57.07l10.81 7.21 -4.47 6.77 -94.27 43.22 -6.34 -13.98 94.27 -43.22zm6.34 13.98l-6.34 -13.98c3.84,-1.76 8.37,-0.06 10.12,3.8 1.75,3.86 0.06,8.42 -3.78,10.18z"/>
    </g>
    <g>
     <polygon class="fil26" points="4537.39,6470.69 4488.02,6485.07 4397.91,6434.85 4345.78,5219.19 4547.95,5285.44 "/>
     <path id="1" class="fil27" d="M4490.17 6492.39l-5.87 -0.66 1.58 -13.97 49.37 -14.39 4.28 14.64 -49.37 14.39zm-4.28 -14.64l4.28 14.64c-4.05,1.18 -8.29,-1.14 -9.48,-5.18 -1.18,-4.04 1.14,-8.28 5.19,-9.46zm-91.7 -36.25l-3.91 -6.33 11.36 -6.98 90.11 50.22 -7.45 13.31 -90.11 -50.22zm7.45 -13.31l-7.45 13.31c-3.68,-2.05 -5,-6.7 -2.95,-10.37 2.06,-3.67 6.71,-4.99 10.4,-2.94zm-63.49 -1208.68l10.02 -7.57 5.25 6.92 52.13 1215.66 -15.26 0.65 -52.13 -1215.66zm15.26 -0.65l-15.26 0.65c-0.18,-4.21 3.09,-7.76 7.31,-7.94 4.21,-0.18 7.78,3.08 7.96,7.29zm196.93 59.33l5.26 7.31 -10.02 7.17 -202.17 -66.25 4.77 -14.49 202.17 66.25zm-4.77 14.49l4.77 -14.49c4.01,1.31 6.19,5.62 4.87,9.62 -1.32,4 -5.63,6.18 -9.64,4.86zm-0.53 1178.08l-5.5 7.25 -9.78 -7.39 10.56 -1185.25 15.28 0.14 -10.56 1185.25zm-15.28 -0.14l15.28 0.14c-0.04,4.21 -3.49,7.59 -7.71,7.55 -4.22,-0.04 -7.61,-3.48 -7.57,-7.69z"/>
    </g>
    <g>
     <polygon class="fil26" points="5330.49,6063.51 5298.35,6076.83 5197.79,6023.02 5165.13,5521.53 5343.29,5598.74 "/>
     <path id="1" class="fil27" d="M5301.28 6083.89l-6.53 -0.32 0.68 -13.79 32.14 -13.32 5.85 14.11 -32.14 13.32zm-5.85 -14.11l5.85 14.11c-3.9,1.62 -8.37,-0.23 -9.98,-4.13 -1.62,-3.89 0.23,-8.37 4.13,-9.98zm-101.24 -40.02l-4.02 -6.24 11.23 -7.23 100.56 53.81 -7.21 13.46 -100.56 -53.81zm7.21 -13.46l-7.21 13.46c-3.72,-1.99 -5.12,-6.62 -3.13,-10.34 1.99,-3.72 6.62,-5.12 10.34,-3.13zm-43.89 -494.27l10.66 -7.5 4.58 6.51 32.67 501.5 -15.25 0.99 -32.67 -501.5zm15.25 -0.99l-15.25 0.99c-0.27,-4.21 2.92,-7.84 7.13,-8.12 4.21,-0.27 7.85,2.92 8.12,7.12zm173.58 70.7l4.6 7.22 -10.68 6.8 -178.16 -77.21 6.08 -14.01 178.16 77.21zm-6.08 14.01l6.08 -14.01c3.87,1.68 5.65,6.18 3.97,10.04 -1.68,3.87 -6.18,5.65 -10.05,3.97zm-2.12 457.97l-4.71 6.85 -10.56 -7.26 12.8 -464.77 15.27 0.42 -12.8 464.77zm-15.27 -0.42l15.27 0.42c-0.12,4.22 -3.63,7.54 -7.85,7.42 -4.22,-0.12 -7.54,-3.63 -7.43,-7.84z"/>
    </g>
    <g>
     <polygon class="fil26" points="6469.49,5682.36 6519.28,6386.05 6636.89,6455.41 6666.49,6425.66 6654.91,5585.75 "/>
     <path id="1" class="fil27" d="M6526.9 6385.51l-11.5 7.11 -3.74 -6.04 -49.79 -703.69 15.24 -1.08 49.79 703.69zm-15.24 1.08l15.24 -1.08c0.3,4.2 -2.88,7.85 -7.08,8.15 -4.21,0.3 -7.86,-2.87 -8.16,-7.07zm129.11 62.25l1.53 11.95 -9.3 1.19 -117.61 -69.36 7.77 -13.15 117.61 69.36zm-7.77 13.15l7.77 -13.15c3.63,2.14 4.84,6.82 2.69,10.45 -2.14,3.63 -6.83,4.84 -10.46,2.69zm28.06 -41.7l13.06 5.28 -2.22 5.48 -29.6 29.74 -10.84 -10.76 29.6 -29.74zm10.84 10.76l-10.84 -10.76c2.97,-2.99 7.81,-3 10.8,-0.03 2.99,2.97 3.01,7.8 0.03,10.79zm-24.63 -845.19l4.11 -6.87 11.17 6.66 11.57 839.91 -15.28 0.21 -11.57 -839.91zm15.28 -0.21l-15.28 0.21c-0.06,-4.21 3.32,-7.68 7.54,-7.74 4.22,-0.06 7.69,3.31 7.74,7.53zm-189.53 103.47l-11.15 -6.23 4.09 -7.3 185.42 -96.6 7.06 13.53 -185.42 96.6zm-7.06 -13.53l7.06 13.53c-3.74,1.95 -8.36,0.5 -10.31,-3.24 -1.95,-3.74 -0.5,-8.35 3.24,-10.29z"/>
    </g>
    <g>
     <polygon class="fil7" points="6006.08,5835.94 6002.14,7091.15 6063.86,7066.36 6100.34,5792.72 "/>
     <path id="1" class="fil27" d="M6009.78 7091.18l-4.8 7.11 -10.48 -7.16 3.93 -1255.22 15.28 0.05 -3.93 1255.22zm-15.28 -0.05l15.28 0.05c-0.01,4.24 -3.45,7.67 -7.66,7.66 -4.22,-0.01 -7.63,-3.46 -7.62,-7.7zm66.52 -31.91l10.47 7.35 -4.8 6.91 -61.72 24.8 -5.67 -14.27 61.72 -24.8zm5.67 14.27l-5.67 -14.27c3.92,-1.57 8.37,0.34 9.93,4.28 1.56,3.94 -0.34,8.41 -4.26,9.98zm26.01 -1280.99l4.47 -6.77 10.81 7.21 -36.49 1273.64 -15.27 -0.44 36.49 -1273.64zm15.27 0.44l-15.27 -0.44c0.12,-4.24 3.64,-7.58 7.86,-7.46 4.22,0.12 7.54,3.66 7.42,7.9zm-98.73 49.98l-10.81 -7.01 4.47 -6.96 94.27 -43.22 6.34 13.98 -94.27 43.22zm-6.34 -13.98l6.34 13.98c-3.84,1.76 -8.37,0.06 -10.12,-3.8 -1.75,-3.86 -0.06,-8.42 3.78,-10.18z"/>
    </g>
    <g>
     <polygon class="fil7" points="6601.18,5613.75 6636.89,6455.41 6666.49,6425.66 6654.91,5585.75 "/>
     <path id="1" class="fil27" d="M6644.52 6455.08l-2.21 5.7 -13.05 -5.06 -35.71 -841.66 15.26 -0.65 35.71 841.66zm-15.26 0.65l15.26 -0.65c0.18,4.21 -3.1,7.77 -7.31,7.95 -4.21,0.18 -7.78,-3.09 -7.96,-7.3zm31.81 -35.45l13.06 5.28 -2.22 5.48 -29.6 29.74 -10.84 -10.76 29.6 -29.74zm10.84 10.76l-10.84 -10.76c2.97,-2.99 7.81,-3 10.8,-0.03 2.99,2.97 3.01,7.8 0.03,10.79zm-24.63 -845.19l4.11 -6.87 11.17 6.66 11.57 839.91 -15.28 0.21 -11.57 -839.91zm15.28 -0.21l-15.28 0.21c-0.06,-4.21 3.32,-7.68 7.54,-7.74 4.22,-0.06 7.69,3.31 7.74,7.53zm-57.84 34.87l-11.16 -6.44 4.1 -7.09 53.73 -27.99 7.06 13.54 -53.73 27.99zm-7.06 -13.54l7.06 13.54c-3.74,1.95 -8.36,0.5 -10.31,-3.24 -1.95,-3.74 -0.5,-8.35 3.24,-10.3z"/>
    </g>
    <path class="fil33 str20" d="M6098.77 4582.93c-219.81,-42.77 -338.71,-58.11 -578.11,-133.21 -112.94,-32.33 -201.39,-38.2 -220.29,57.8 27.1,78.69 54.19,157.38 81.29,236.07 211.92,8.97 423.85,17.93 635.77,26.9 27.11,-62.52 54.22,-125.04 81.33,-187.56z"/>
    <path class="fil34 str21" d="M6129.02 4760.27c-250.79,-86.21 -536.85,-156.74 -787.64,-242.95 -64,-21.55 -114.29,-11.76 -180.26,23.51 -234.8,109.72 -469.6,219.43 -704.41,329.15 125.08,101.89 250.16,203.77 375.25,305.66 423.21,20.9 846.42,41.8 1269.62,62.7 -2.61,-154.13 30.04,-323.94 27.43,-478.07z"/>
    <path class="fil35 str22" d="M6596.27 3968.7c-168.89,588.98 -337.78,1177.96 -506.67,1766.95 -22.01,73.97 -67.54,132.26 -160.09,80.83 -543.18,-196.64 -1086.35,-393.27 -1629.53,-589.91 1.31,-77.07 2.61,-154.13 3.92,-231.2 -15.67,-61.39 3.92,-169.81 152.82,-125.39 297.82,60.08 601.24,192.04 893.44,180.25 454.25,-18.33 771.96,-446.72 940.46,-1022.75 70.53,-129.31 307.61,-143.03 305.65,-58.78z"/>
    <path class="fil36 str23" d="M6596.27 3968.7c249.49,-87.52 498.97,-175.03 748.45,-262.55 7.51,26.12 -1.63,117.88 -23.51,173.4 -239.03,574.73 -296.65,915.78 -469.07,1447.4 -54.86,144.99 -205.53,293.67 -291.74,313.26 -189.21,66.34 -338.64,118.74 -527.86,185.08 187.91,-618.87 375.81,-1237.73 563.72,-1856.6z"/>
    <path class="fil36 str24" d="M7346.85 3719.86c-21.98,-94.74 -86.24,-139.72 -212.72,-97.95 -97.55,64.27 -245.38,132.09 -403.24,185.38 -186.8,63.07 -371.97,122.27 -408.17,174.89 64.48,-35.27 187.39,-65.81 244.02,-50.39 20.54,5.6 26.97,35.02 24.12,54.69 249.48,-87.52 506.49,-179.11 755.98,-266.62z"/>
    <polygon class="fil7 str25" points="5298.35,6076.83 5283.9,5582.76 5343.14,5604.21 5330.49,6063.51 "/>
    <polygon class="fil7 str26" points="4488.03,6485.07 4450.81,5281.18 4547.67,5316.24 4537.39,6470.69 "/>
   </g>
   <path class="fil37" d="M5570.73 870.96l2030.87 154.59c12.87,0.98 23.88,10.58 23.46,23.46l-46.12 1415.57c-0.42,12.88 -10.88,26.25 -23.46,23.46l-2054.33 -454.3c-12.58,-2.78 -24.27,-10.58 -23.46,-23.46l69.58 -1115.85c0.8,-12.88 10.59,-24.44 23.46,-23.46z"/>
   <path class="fil38 str27" d="M5300.04 675.59l2072.35 258.27c12.81,1.59 22.34,10.62 23.46,23.46l125.1 1429.96c1.12,12.85 -10.87,26.25 -23.46,23.46l-2054.33 -454.3c-12.58,-2.78 -21.98,-10.64 -23.46,-23.46l-143.12 -1233.93c-1.49,-12.82 10.66,-25.06 23.46,-23.46z"/>
   <rect class="fil39 str28" transform="matrix(1 0.249615 -0 1 2233.31 195.781)" width="474.62" height="91.68"/>
   <rect class="fil39 str28" transform="matrix(1 0.249615 -0 1 2233.31 1502.27)" width="474.62" height="91.68"/>
   <rect class="fil39 str28" transform="matrix(1 0.249615 -0 1 2233.31 952.171)" width="474.62" height="91.68"/>
   <rect class="fil39 str28" transform="matrix(1 0.249615 -0 1 2233.31 371.501)" width="474.62" height="91.68"/>
   <rect class="fil39 str28" transform="matrix(1 0.249615 -0 1 2233.31 1677.99)" width="474.62" height="91.68"/>
   <rect class="fil39 str28" transform="matrix(1 0.249615 -0 1 2233.31 1127.89)" width="474.62" height="91.68"/>
   <rect class="fil39 str28" transform="matrix(1 0.249615 -0 1 2233.31 547.222)" width="474.62" height="91.68"/>
   <rect class="fil39 str28" transform="matrix(1 0.249615 -0 1 2233.31 1853.71)" width="474.62" height="91.68"/>
   <ellipse class="fil40" cx="1030.39" cy="1161.47" rx="450.78" ry="634.15"/>
   <ellipse class="fil41 str29" cx="923.43" cy="1161.47" rx="450.78" ry="634.15"/>
  </g>
 </g>
</svg>
