<?xml version="1.0" encoding="UTF-8"?>
<!DOCTYPE svg PUBLIC "-//W3C//DTD SVG 1.1//EN" "http://www.w3.org/Graphics/SVG/1.1/DTD/svg11.dtd">
<!-- Creator: CorelDRAW 2018 (64-Bit) -->
<svg xmlns="http://www.w3.org/2000/svg" xml:space="preserve" width="496.673mm" height="402.167mm" version="1.1" style="shape-rendering:geometricPrecision; text-rendering:geometricPrecision; image-rendering:optimizeQuality; fill-rule:evenodd; clip-rule:evenodd"
viewBox="0 0 6428.12 5204.98"
 xmlns:xlink="http://www.w3.org/1999/xlink">
 <defs>
  <style type="text/css">
   <![CDATA[
    .str2 {stroke:#D0CBC1;stroke-width:8.77;stroke-miterlimit:22.9256;stroke-opacity:0.501961}
    .str6 {stroke:#434242;stroke-width:10.96;stroke-miterlimit:22.9256}
    .str9 {stroke:#DFD8CB;stroke-width:10.96;stroke-miterlimit:22.9256}
    .str4 {stroke:#632230;stroke-width:10.96;stroke-miterlimit:22.9256}
    .str1 {stroke:#D0CBC1;stroke-width:4.38;stroke-miterlimit:22.9256}
    .str7 {stroke:#434242;stroke-width:8.77;stroke-miterlimit:22.9256}
    .str0 {stroke:#D0CBC1;stroke-width:8.77;stroke-miterlimit:22.9256}
    .str8 {stroke:#DFD8CB;stroke-width:5.48;stroke-miterlimit:22.9256}
    .str5 {stroke:#2B2A29;stroke-width:2.59;stroke-miterlimit:22.9256}
    .str3 {stroke:#632230;stroke-width:8.77;stroke-linecap:round;stroke-linejoin:round;stroke-miterlimit:22.9256}
    .fil1 {fill:none}
    .fil2 {fill:#FEFEFE}
    .fil14 {fill:#5B5B5B}
    .fil13 {fill:#434242}
    .fil18 {fill:#F6F4F0}
    .fil0 {fill:#F6F2EA}
    .fil3 {fill:#ECE8E0}
    .fil15 {fill:#C39869}
    .fil5 {fill:#D1CCC0}
    .fil7 {fill:#BEB9AF}
    .fil16 {fill:#9F7C59}
    .fil17 {fill:#876C51}
    .fil6 {fill:#9D988F}
    .fil10 {fill:#632230}
    .fil11 {fill:#803B4A}
    .fil12 {fill:#8F4354}
    .fil8 {fill:#964B5B}
    .fil9 {fill:#A65A6A}
    .fil4 {fill:#FEFEFE;fill-opacity:0.501961}
   ]]>
  </style>
    <clipPath id="id0">
     <path d="M9.55 0l6410.35 0 0 5204.98 -6410.35 0 0 -5204.98z"/>
    </clipPath>
    <clipPath id="id1">
     <path d="M3044.7 0l3375.2 0 0 5204.98 -3375.2 0 0 -5204.98z"/>
    </clipPath>
    <clipPath id="id2">
     <path d="M5395.52 2662.57c89.35,4.75 173.57,-33.43 224.57,-177.91 42.87,-121.47 -38.05,-322.15 -185.13,-329.27 -1159.94,-24.2 -2207.07,-147.49 -3227.37,-90.62 35.58,154.2 170.8,251.46 206.39,405.66 943.52,166.07 1887.04,332.14 2830.57,498.22 50.33,-102.03 100.65,-204.05 150.98,-306.08z"/>
    </clipPath>
    <clipPath id="id3">
     <path d="M4351.48 3688.93l1014.18 -140.3 33.81 -1003.47c149.45,-13.05 140.56,-244.94 1.78,-249.09 -223.59,0.59 -144.71,552.74 -156.57,857.57 -258.58,21.35 -645.26,56.93 -903.83,78.28l10.63 457z"/>
    </clipPath>
    <clipPath id="id4">
     <path d="M5242.78 2893.93c-269.81,28.45 -612.88,5.16 -882.69,33.61 -706.93,-116.24 -1340.6,-180.74 -2047.53,-296.98 33.81,-53.38 67.61,-106.75 101.42,-160.13 799.39,117.67 2258.51,228.51 2749.59,333.21 78.28,16.69 77.05,65.7 79.21,90.29z"/>
    </clipPath>
    <clipPath id="id5">
     <path d="M5242.78 2893.93l1.91 259.72 -903.83 78.28 -2014.07 -302.45 -14.23 -298.91 2028.55 284.45 901.67 -21.09z"/>
    </clipPath>
    <clipPath id="id6">
     <path d="M4339.29 3220.72l12.19 468.21 -2373.42 -453.44 -21.35 -348.72 2382.58 333.95z"/>
    </clipPath>
    <clipPath id="id7">
     <path d="M5.48 2103.92l2270.95 -42.72c150.63,-2.83 132.59,390.21 132.59,409.58 0,19.36 -2403.54,170.77 -2403.54,170.77l0 -537.63z"/>
    </clipPath>
 </defs>
 <g id="Слой_x0020_1">
  <metadata id="CorelCorpID_0Corel-Layer"/>
  <g id="_1044962432">
   <polygon class="fil0" points="9.55,0 6419.9,0 6419.9,5204.98 9.55,5204.98 "/>
   <g style="clip-path:url(#id0)">
    <g>
     <path id="1" class="fil1 str0" d="M3.72 -381.98c246.18,30.07 485.68,59.23 717.29,87.5 -0.24,202.37 -0.47,404.49 -0.71,606.38 -231.98,-18.92 -471.25,-38.44 -717.51,-58.83 0.31,-211.26 0.62,-423.03 0.93,-635.05z"/>
     <path class="fil1 str0" d="M5817.58 -381.98c-225.33,30.45 -444.54,59.99 -656.53,88.62 0.22,204.96 0.43,409.67 0.65,614.14 212.33,-19.16 431.33,-38.93 656.73,-59.58 -0.28,-213.96 -0.57,-428.44 -0.85,-643.18z"/>
     <path class="fil1 str0" d="M6476.09 -475.46c-225.33,31.89 -444.54,62.81 -656.53,92.79 0.22,214.6 0.43,428.95 0.65,643.04 212.33,-20.06 431.33,-40.77 656.73,-62.39 -0.28,-224.03 -0.57,-448.6 -0.85,-673.44z"/>
     <path class="fil1 str0" d="M2.79 253.07c246.25,20.39 485.52,39.91 717.51,58.83 -0.24,202.37 -0.47,404.25 -0.71,606.38 -232.05,-9.57 -471.7,-19.45 -717.73,-29.91 0.31,-211.51 0.62,-423.03 0.93,-635.3z"/>
     <path class="fil1 str0" d="M5818.43 261.19c-225.39,20.65 -444.4,40.42 -656.73,59.58 0.22,204.96 0.43,409.42 0.65,614.14 212.4,-9.7 431.75,-19.7 656.93,-30.29 -0.28,-214.22 -0.57,-428.44 -0.85,-643.43z"/>
     <path class="fil1 str0" d="M6476.94 197.98c-225.39,21.62 -444.4,42.32 -656.73,62.39 0.22,214.6 0.43,428.69 0.65,643.04 212.4,-10.15 431.75,-20.63 656.93,-31.72 -0.28,-224.3 -0.57,-448.6 -0.85,-673.71z"/>
     <path class="fil1 str0" d="M1.86 888.37c246.02,10.45 485.67,20.33 717.73,29.91 -0.54,202.37 -0.78,404.74 -1.02,606.86 -232.13,-0.22 -471.54,-0.45 -717.64,-0.96 0.31,-211.51 0.62,-423.53 0.93,-635.81z"/>
     <path class="fil1 str0" d="M5819.28 904.63c-225.18,10.59 -444.53,20.59 -656.93,30.29 0.5,204.96 0.71,409.92 0.93,614.63 212.46,-0.22 431.6,-0.46 656.85,-0.97 -0.28,-214.22 -0.57,-428.95 -0.85,-643.95z"/>
     <path class="fil1 str0" d="M6477.79 871.7c-225.18,11.09 -444.53,21.56 -656.93,31.72 0.5,214.6 0.71,429.21 0.93,643.56 212.46,-0.23 431.6,-0.48 656.85,-1.02 -0.28,-224.3 -0.57,-449.14 -0.85,-674.25z"/>
     <path class="fil1 str1" d="M0.92 1524.18c246.1,0.51 485.52,0.74 717.64,0.96 -0.24,202.61 -0.47,404.74 -0.71,606.86 -232.2,9.14 -471.99,18.55 -717.86,28.24 0.31,-211.77 0.62,-423.53 0.93,-636.06z"/>
     <path class="fil1 str1" d="M5820.14 1548.57c-225.25,0.52 -444.39,0.75 -656.85,0.97 0.22,205.2 0.43,409.92 0.65,614.63 212.53,9.25 432.01,18.79 657.05,28.6 -0.28,-214.48 -0.57,-428.95 -0.85,-644.2z"/>
     <path class="fil1 str1" d="M6478.64 1545.95c-225.25,0.54 -444.39,0.78 -656.85,1.02 0.22,214.86 0.43,429.21 0.65,643.56 212.53,9.69 432.01,19.67 657.05,29.95 -0.28,-224.57 -0.57,-449.14 -0.85,-674.52z"/>
     <path class="fil1 str0" d="M721.01 -294.48c224.93,27.38 442.88,53.99 655.06,79.83 -0.17,193.56 -0.34,386.88 -0.51,579.98 -212.25,-17.29 -430.56,-35.1 -655.26,-53.43 0.24,-201.88 0.47,-404.01 0.71,-606.38z"/>
     <path class="fil1 str0" d="M5161.05 -293.36c-205.88,27.73 -405.36,54.68 -599.57,80.85 0.16,196.04 0.31,391.83 0.47,587.4 194.27,-17.51 394.09,-35.55 599.75,-54.11 -0.21,-204.47 -0.43,-409.18 -0.65,-614.14z"/>
     <path class="fil1 str0" d="M720.29 311.9c224.7,18.33 443.02,36.14 655.26,53.43 -0.17,193.56 -0.34,386.88 -0.51,579.98 -212.31,-8.75 -430.7,-17.75 -655.46,-27.03 0.24,-202.13 0.47,-404.01 0.71,-606.38z"/>
     <path class="fil1 str0" d="M5161.7 320.78c-205.66,18.56 -405.49,36.6 -599.75,54.11 0.16,196.04 0.31,391.84 0.47,587.4 194.33,-8.86 394.21,-17.98 599.94,-27.37 -0.22,-204.71 -0.43,-409.18 -0.65,-614.14z"/>
     <path class="fil1 str0" d="M719.58 918.27c224.76,9.27 443.15,18.28 655.46,27.03 -0.17,193.79 -0.34,387.12 -0.21,580.44 -212.68,-0.2 -431.13,-0.4 -656.27,-0.61 0.24,-202.13 0.47,-404.49 1.02,-606.86z"/>
     <path class="fil1 str0" d="M5162.35 934.92c-205.73,9.39 -405.61,18.51 -599.94,27.37 0.16,196.27 0.31,392.07 0.19,587.87 194.66,-0.2 394.61,-0.4 600.68,-0.61 -0.22,-204.71 -0.43,-409.67 -0.93,-614.63z"/>
     <path class="fil1 str1" d="M718.57 1525.14c225.14,0.21 443.59,0.41 656.27,0.61 -0.17,193.79 -0.34,387.12 -0.51,580.44 -212.75,8.36 -431.57,16.96 -656.47,25.82 0.24,-202.13 0.47,-404.25 0.71,-606.86z"/>
     <path class="fil1 str1" d="M5163.28 1549.54c-206.07,0.21 -406.01,0.42 -600.68,0.61 0.16,196.27 0.31,392.07 0.47,587.87 194.72,8.46 395.01,17.18 600.86,26.15 -0.22,-204.71 -0.43,-409.43 -0.65,-614.63z"/>
     <path class="fil1 str0" d="M1376.07 -214.65c205.81,25.07 405.54,49.46 600.42,73.16 -0.11,185.71 -0.22,370.74 -0.33,555.78 -194.63,-15.86 -394.74,-32.19 -600.61,-48.97 0.17,-193.09 0.34,-386.42 0.51,-579.98z"/>
     <path class="fil1 str0" d="M4561.48 -212.51c-188.37,25.39 -371.19,50.09 -549.56,74.1 0.1,188.08 0.2,375.49 0.3,562.9 178.15,-16.07 361.3,-32.6 549.73,-49.59 -0.15,-195.56 -0.31,-391.36 -0.47,-587.4z"/>
     <path class="fil1 str0" d="M1375.56 365.32c205.87,16.78 405.97,33.1 600.61,48.97 -0.11,185.48 -0.22,370.75 -0.02,555.78 -195,-8.03 -395.16,-16.29 -601.09,-24.77 0.17,-193.09 0.34,-386.42 0.51,-579.98z"/>
     <path class="fil1 str0" d="M4561.95 374.89c-188.43,16.99 -371.58,33.52 -549.73,49.59 0.1,187.86 0.2,375.49 0.02,562.9 178.48,-8.13 361.69,-16.49 550.18,-25.09 -0.16,-195.56 -0.31,-391.36 -0.47,-587.4z"/>
     <path class="fil1 str0" d="M1375.05 945.3c205.93,8.49 406.1,16.74 601.09,24.77 -0.11,185.71 -0.22,370.97 -0.33,556.23 -194.76,-0.18 -394.98,-0.37 -600.97,-0.56 -0.13,-193.33 0.04,-386.65 0.21,-580.44z"/>
     <path class="fil1 str0" d="M4562.42 962.29c-188.49,8.6 -371.7,16.96 -550.18,25.09 0.1,188.08 0.2,375.72 0.3,563.35 178.26,-0.18 361.52,-0.37 550.07,-0.56 0.12,-195.8 -0.03,-391.6 -0.19,-587.87z"/>
     <path class="fil1 str0" d="M1374.84 1525.74c206,0.19 406.22,0.38 600.97,0.56 -0.11,185.71 -0.22,371.19 -0.02,556.23 -195.12,7.66 -395.4,15.55 -601.46,23.66 0.17,-193.33 0.34,-386.65 0.51,-580.44z"/>
     <path class="fil1 str0" d="M4562.6 1550.16c-188.55,0.19 -371.81,0.38 -550.07,0.56 0.1,188.08 0.2,375.94 0.02,563.35 178.59,7.76 361.91,15.75 550.51,23.96 -0.16,-195.8 -0.31,-391.6 -0.47,-587.87z"/>
     <path class="fil1 str0" d="M1976.49 -141.49c188.81,23.02 372.76,45.46 551.85,67.31 0.25,178.27 0.2,355.9 0.15,533.52 -179.15,-14.63 -363.46,-29.65 -552.33,-45.06 0.11,-185.04 0.22,-370.08 0.33,-555.78z"/>
     <path class="fil1 str0" d="M4011.92 -138.41c-172.82,23.32 -341.18,46.04 -505.11,68.18 -0.23,180.55 -0.18,360.45 -0.13,540.35 163.97,-14.81 332.67,-30.02 505.54,-45.63 -0.1,-187.41 -0.2,-374.81 -0.3,-562.9z"/>
     <path class="fil1 str0" d="M1976.16 414.29c188.87,15.41 373.18,30.43 552.33,45.06 0.25,178.27 0.2,355.9 0.15,533.52 -179.2,-7.4 -363.57,-15 -552.5,-22.8 -0.2,-185.04 -0.09,-370.3 0.02,-555.78z"/>
     <path class="fil1 str0" d="M4012.22 424.48c-172.87,15.61 -341.57,30.82 -505.54,45.63 -0.23,180.55 -0.18,360.45 -0.14,540.35 164.02,-7.5 332.77,-15.19 505.7,-23.09 0.18,-187.41 0.08,-375.04 -0.02,-562.9z"/>
     <path class="fil1 str0" d="M1976.14 970.07c188.92,7.8 373.29,15.39 552.5,22.8 -0.05,178.27 0.2,356.32 0.15,533.95 -179.56,-0.17 -363.68,-0.35 -552.97,-0.52 0.11,-185.26 0.22,-370.52 0.33,-556.23z"/>
     <path class="fil1 str0" d="M4012.24 987.38c-172.92,7.9 -341.67,15.59 -505.7,23.09 0.05,180.55 -0.18,360.88 -0.13,540.79 164.35,-0.18 332.88,-0.35 506.13,-0.53 -0.1,-187.63 -0.2,-375.26 -0.3,-563.35z"/>
     <path class="fil1 str0" d="M1975.81 1526.3c189.29,0.18 373.41,0.35 552.97,0.52 -0.05,178.27 0.2,356.32 0.15,533.95 -179.62,7.06 -363.8,14.31 -553.14,21.75 -0.2,-185.04 -0.09,-370.52 0.02,-556.23z"/>
     <path class="fil1 str0" d="M4012.54 1550.72c-173.25,0.18 -341.78,0.35 -506.13,0.53 0.05,180.55 -0.18,360.88 -0.13,540.79 164.4,7.15 332.98,14.49 506.28,22.03 0.18,-187.41 0.08,-375.26 -0.02,-563.35z"/>
     <path class="fil1 str0" d="M2528.34 -74.18c174.54,21.25 344.53,41.99 510.87,62.22 0,171.4 0,342.18 0,512.96 -166.09,-13.55 -336.44,-27.44 -510.73,-41.66 0.05,-177.63 0.1,-355.26 -0.15,-533.52z"/>
     <path class="fil1 str0" d="M3506.81 -70.24c-159.76,21.52 -315.34,42.53 -467.6,63.02 0,173.59 0,346.56 0,519.53 152.02,-13.72 307.94,-27.79 467.47,-42.19 -0.05,-179.9 -0.1,-359.8 0.13,-540.35z"/>
     <path class="fil1 str0" d="M2528.49 459.35c174.29,14.22 344.64,28.11 510.73,41.66 0,171.4 0,342.18 0,512.96 -166.14,-6.87 -336.24,-13.9 -510.58,-21.1 0.05,-177.63 0.1,-355.26 -0.15,-533.52z"/>
     <path class="fil1 str0" d="M3506.68 470.11c-159.53,14.41 -315.44,28.47 -467.47,42.19 0,173.59 0,346.56 0,519.53 152.07,-6.96 307.75,-14.08 467.33,-21.37 -0.05,-179.9 -0.09,-359.8 0.14,-540.35z"/>
     <path class="fil1 str0" d="M2528.64 992.87c174.34,7.2 344.44,14.23 510.58,21.1 0,171.4 0,342.59 0,513.37 -165.89,-0.18 -336.04,-0.35 -510.43,-0.52 0.05,-177.63 -0.2,-355.68 -0.15,-533.95z"/>
     <path class="fil1 str0" d="M3506.54 1010.47c-159.58,7.29 -315.26,14.41 -467.33,21.37 0,173.59 0,346.98 0,519.94 151.84,-0.18 307.57,-0.35 467.2,-0.53 -0.05,-179.9 0.18,-360.23 0.13,-540.79z"/>
     <path class="fil1 str0" d="M2528.78 1526.82c174.4,0.17 344.54,0.34 510.43,0.52 0,171.4 0,342.59 0,513.37 -165.64,6.51 -335.83,13.2 -510.29,20.06 0.05,-177.63 -0.2,-355.68 -0.15,-533.95z"/>
     <path class="fil1 str0" d="M3506.41 1551.25c-159.62,0.17 -315.36,0.35 -467.2,0.53 0,173.59 0,346.98 0,519.94 151.61,6.59 307.39,13.37 467.06,20.32 -0.05,-179.9 0.18,-360.24 0.13,-540.79z"/>
     <ellipse class="fil2 str0" cx="352.14" cy="1836.04" rx="263.49" ry="252.8"/>
     <ellipse class="fil2 str0" cx="5498.67" cy="1864.43" rx="241.17" ry="256.04"/>
     <ellipse class="fil2 str0" cx="6157.18" cy="1876.67" rx="241.17" ry="268.09"/>
     <ellipse class="fil2 str0" cx="1053.44" cy="1830.56" rx="244.41" ry="252.8"/>
     <ellipse class="fil2 str0" cx="4856.78" cy="1858.88" rx="223.7" ry="256.04"/>
     <ellipse class="fil2 str0" cx="1675.59" cy="1824.82" rx="244.39" ry="252.8"/>
     <ellipse class="fil2 str0" cx="4287.33" cy="1853.07" rx="223.69" ry="256.04"/>
     <ellipse class="fil2 str0" cx="2255.57" cy="1809.57" rx="217.79" ry="238.93"/>
     <ellipse class="fil2 str0" cx="3756.48" cy="1837.62" rx="199.34" ry="241.99"/>
     <ellipse class="fil2 str0" cx="2796.49" cy="1796.73" rx="206.03" ry="225.37"/>
     <ellipse class="fil2 str0" cx="3261.38" cy="1824.62" rx="188.58" ry="228.26"/>
     <ellipse class="fil2 str0" cx="363.1" cy="1211.44" rx="263.49" ry="252.8"/>
     <ellipse class="fil2 str0" cx="5488.64" cy="1231.84" rx="241.17" ry="256.04"/>
     <ellipse class="fil2 str0" cx="6147.15" cy="1214.31" rx="241.17" ry="268.09"/>
     <ellipse class="fil2 str0" cx="1053.44" cy="1227.88" rx="244.41" ry="252.8"/>
     <ellipse class="fil2 str0" cx="4856.78" cy="1248.48" rx="223.7" ry="256.04"/>
     <ellipse class="fil2 str0" cx="1675.59" cy="1246.97" rx="233.63" ry="241.67"/>
     <ellipse class="fil2 str0" cx="4287.33" cy="1267.82" rx="213.84" ry="244.76"/>
     <ellipse class="fil2 str0" cx="2255.57" cy="1263.43" rx="208.2" ry="228.41"/>
     <ellipse class="fil2 str0" cx="3756.48" cy="1284.49" rx="190.56" ry="231.33"/>
     <ellipse class="fil2 str0" cx="2796.49" cy="1271.22" rx="196.96" ry="215.45"/>
     <ellipse class="fil2 str0" cx="3261.38" cy="1292.38" rx="180.27" ry="218.2"/>
     <ellipse class="fil2 str0" cx="374.05" cy="586.85" rx="263.49" ry="252.8"/>
     <ellipse class="fil2 str0" cx="5478.61" cy="599.25" rx="241.17" ry="256.04"/>
     <ellipse class="fil2 str0" cx="6137.12" cy="551.95" rx="241.17" ry="268.09"/>
     <ellipse class="fil2 str0" cx="1053.44" cy="625.2" rx="244.41" ry="252.8"/>
     <ellipse class="fil2 str0" cx="4856.78" cy="638.09" rx="223.7" ry="256.04"/>
     <ellipse class="fil2 str0" cx="1675.59" cy="667.41" rx="229.82" ry="237.73"/>
     <ellipse class="fil2 str0" cx="4287.33" cy="680.84" rx="210.35" ry="240.77"/>
     <ellipse class="fil2 str0" cx="2255.57" cy="715.67" rx="204.8" ry="224.68"/>
     <ellipse class="fil2 str0" cx="3756.48" cy="729.71" rx="187.45" ry="227.56"/>
     <ellipse class="fil2 str0" cx="2796.49" cy="744.19" rx="193.74" ry="211.93"/>
     <ellipse class="fil2 str0" cx="3261.38" cy="758.6" rx="177.33" ry="214.65"/>
     <ellipse class="fil2 str0" cx="385.01" cy="-37.75" rx="263.49" ry="252.8"/>
     <ellipse class="fil2 str0" cx="5468.59" cy="-33.35" rx="241.17" ry="256.04"/>
     <ellipse class="fil2 str0" cx="6127.09" cy="-110.42" rx="241.17" ry="268.09"/>
     <ellipse class="fil2 str0" cx="1053.44" cy="33.47" rx="244.41" ry="252.8"/>
     <ellipse class="fil2 str0" cx="4856.78" cy="38.79" rx="223.7" ry="256.04"/>
     <ellipse class="fil2 str0" cx="1675.59" cy="107.46" rx="220.29" ry="227.87"/>
     <ellipse class="fil2 str0" cx="4287.33" cy="113.72" rx="201.63" ry="230.79"/>
     <ellipse class="fil2 str0" cx="2255.57" cy="186.44" rx="196.31" ry="215.37"/>
     <ellipse class="fil2 str0" cx="3756.48" cy="193.71" rx="179.68" ry="218.12"/>
     <ellipse class="fil2 str0" cx="2796.49" cy="232.05" rx="185.71" ry="203.15"/>
     <ellipse class="fil2 str0" cx="3261.38" cy="239.91" rx="169.98" ry="205.75"/>
    </g>
   </g>
   <polygon class="fil1" points="9.55,0 6419.9,0 6419.9,5204.98 9.55,5204.98 "/>
   <polygon class="fil3" points="3044.7,0 6419.9,0 6419.9,5204.98 3044.7,5204.98 "/>
   <g style="clip-path:url(#id1)">
    <g>
     <path id="1" class="fil1 str0" d="M5817.58 -381.98c-225.33,30.45 -444.54,59.99 -656.53,88.62 0.22,204.96 0.43,409.67 0.65,614.14 212.33,-19.16 431.33,-38.93 656.73,-59.58 -0.28,-213.96 -0.57,-428.44 -0.85,-643.18z"/>
     <path class="fil1 str0" d="M6476.09 -475.46c-225.33,31.89 -444.54,62.81 -656.53,92.79 0.22,214.6 0.43,428.95 0.65,643.04 212.33,-20.06 431.33,-40.77 656.73,-62.39 -0.28,-224.03 -0.57,-448.6 -0.85,-673.44z"/>
     <path class="fil1 str0" d="M5818.43 261.19c-225.39,20.65 -444.4,40.42 -656.73,59.58 0.22,204.96 0.43,409.42 0.65,614.14 212.4,-9.7 431.75,-19.7 656.93,-30.29 -0.28,-214.22 -0.57,-428.44 -0.85,-643.43z"/>
     <path class="fil1 str0" d="M6476.94 197.98c-225.39,21.62 -444.4,42.32 -656.73,62.39 0.22,214.6 0.43,428.69 0.65,643.04 212.4,-10.15 431.75,-20.63 656.93,-31.72 -0.28,-224.3 -0.57,-448.6 -0.85,-673.71z"/>
     <path class="fil1 str0" d="M5819.28 904.63c-225.18,10.59 -444.53,20.59 -656.93,30.29 0.5,204.96 0.71,409.92 0.93,614.63 212.46,-0.22 431.6,-0.46 656.85,-0.97 -0.28,-214.22 -0.57,-428.95 -0.85,-643.95z"/>
     <path class="fil1 str0" d="M6477.79 871.7c-225.18,11.09 -444.53,21.56 -656.93,31.72 0.5,214.6 0.71,429.21 0.93,643.56 212.46,-0.23 431.6,-0.48 656.85,-1.02 -0.28,-224.3 -0.57,-449.14 -0.85,-674.25z"/>
     <path class="fil1 str1" d="M5820.14 1548.57c-225.25,0.52 -444.39,0.75 -656.85,0.97 0.22,205.2 0.43,409.92 0.65,614.63 212.53,9.25 432.01,18.79 657.05,28.6 -0.28,-214.48 -0.57,-428.95 -0.85,-644.2z"/>
     <path class="fil1 str1" d="M6478.64 1545.95c-225.25,0.54 -444.39,0.78 -656.85,1.02 0.22,214.86 0.43,429.21 0.65,643.56 212.53,9.69 432.01,19.67 657.05,29.95 -0.28,-224.57 -0.57,-449.14 -0.85,-674.52z"/>
     <path class="fil1 str0" d="M5161.05 -293.36c-205.88,27.73 -405.36,54.68 -599.57,80.85 0.16,196.04 0.31,391.83 0.47,587.4 194.27,-17.51 394.09,-35.55 599.75,-54.11 -0.21,-204.47 -0.43,-409.18 -0.65,-614.14z"/>
     <path class="fil1 str0" d="M5161.7 320.78c-205.66,18.56 -405.49,36.6 -599.75,54.11 0.16,196.04 0.31,391.84 0.47,587.4 194.33,-8.86 394.21,-17.98 599.94,-27.37 -0.22,-204.71 -0.43,-409.18 -0.65,-614.14z"/>
     <path class="fil1 str0" d="M5162.35 934.92c-205.73,9.39 -405.61,18.51 -599.94,27.37 0.16,196.27 0.31,392.07 0.19,587.87 194.66,-0.2 394.61,-0.4 600.68,-0.61 -0.22,-204.71 -0.43,-409.67 -0.93,-614.63z"/>
     <path class="fil1 str1" d="M5163.28 1549.54c-206.07,0.21 -406.01,0.42 -600.68,0.61 0.16,196.27 0.31,392.07 0.47,587.87 194.72,8.46 395.01,17.18 600.86,26.15 -0.22,-204.71 -0.43,-409.43 -0.65,-614.63z"/>
     <path class="fil1 str0" d="M4561.48 -212.51c-188.37,25.39 -371.19,50.09 -549.56,74.1 0.1,188.08 0.2,375.49 0.3,562.9 178.15,-16.07 361.3,-32.6 549.73,-49.59 -0.15,-195.56 -0.31,-391.36 -0.47,-587.4z"/>
     <path class="fil1 str0" d="M4561.95 374.89c-188.43,16.99 -371.58,33.52 -549.73,49.59 0.1,187.86 0.2,375.49 0.02,562.9 178.48,-8.13 361.69,-16.49 550.18,-25.09 -0.16,-195.56 -0.31,-391.36 -0.47,-587.4z"/>
     <path class="fil1 str0" d="M4562.42 962.29c-188.49,8.6 -371.7,16.96 -550.18,25.09 0.1,188.08 0.2,375.72 0.3,563.35 178.26,-0.18 361.52,-0.37 550.07,-0.56 0.12,-195.8 -0.03,-391.6 -0.19,-587.87z"/>
     <path class="fil1 str0" d="M4562.6 1550.16c-188.55,0.19 -371.81,0.38 -550.07,0.56 0.1,188.08 0.2,375.94 0.02,563.35 178.59,7.76 361.91,15.75 550.51,23.96 -0.16,-195.8 -0.31,-391.6 -0.47,-587.87z"/>
     <path class="fil1 str0" d="M4011.92 -138.41c-172.82,23.32 -341.18,46.04 -505.11,68.18 -0.23,180.55 -0.18,360.45 -0.13,540.35 163.97,-14.81 332.67,-30.02 505.54,-45.63 -0.1,-187.41 -0.2,-374.81 -0.3,-562.9z"/>
     <path class="fil1 str0" d="M4012.22 424.48c-172.87,15.61 -341.57,30.82 -505.54,45.63 -0.23,180.55 -0.18,360.45 -0.14,540.35 164.02,-7.5 332.77,-15.19 505.7,-23.09 0.18,-187.41 0.08,-375.04 -0.02,-562.9z"/>
     <path class="fil1 str0" d="M4012.24 987.38c-172.92,7.9 -341.67,15.59 -505.7,23.09 0.05,180.55 -0.18,360.88 -0.13,540.79 164.35,-0.18 332.88,-0.35 506.13,-0.53 -0.1,-187.63 -0.2,-375.26 -0.3,-563.35z"/>
     <path class="fil1 str0" d="M4012.54 1550.72c-173.25,0.18 -341.78,0.35 -506.13,0.53 0.05,180.55 -0.18,360.88 -0.13,540.79 164.4,7.15 332.98,14.49 506.28,22.03 0.18,-187.41 0.08,-375.26 -0.02,-563.35z"/>
     <path class="fil1 str0" d="M3506.81 -70.24c-159.76,21.52 -315.34,42.53 -467.6,63.02 0,173.59 0,346.56 0,519.53 152.02,-13.72 307.94,-27.79 467.47,-42.19 -0.05,-179.9 -0.1,-359.8 0.13,-540.35z"/>
     <path class="fil1 str0" d="M3506.68 470.11c-159.53,14.41 -315.44,28.47 -467.47,42.19 0,173.59 0,346.56 0,519.53 152.07,-6.96 307.75,-14.08 467.33,-21.37 -0.05,-179.9 -0.09,-359.8 0.14,-540.35z"/>
     <path class="fil1 str0" d="M3506.54 1010.47c-159.58,7.29 -315.26,14.41 -467.33,21.37 0,173.59 0,346.98 0,519.94 151.84,-0.18 307.57,-0.35 467.2,-0.53 -0.05,-179.9 0.18,-360.23 0.13,-540.79z"/>
     <path class="fil1 str0" d="M3506.41 1551.25c-159.62,0.17 -315.36,0.35 -467.2,0.53 0,173.59 0,346.98 0,519.94 151.61,6.59 307.39,13.37 467.06,20.32 -0.05,-179.9 0.18,-360.24 0.13,-540.79z"/>
     <path class="fil4 str2" d="M5498.67 1608.39c-133.19,0 -241.17,114.63 -241.17,256.04 0,141.41 107.98,256.04 241.17,256.04 133.19,0 241.17,-114.63 241.17,-256.04 0,-141.41 -107.98,-256.04 -241.17,-256.04z"/>
     <path class="fil4 str2" d="M6157.18 1608.58c-133.19,0 -241.17,120.03 -241.17,268.09 0,148.06 107.98,268.09 241.17,268.09 133.19,0 241.17,-120.03 241.17,-268.09 0,-148.06 -107.98,-268.09 -241.17,-268.09z"/>
     <path class="fil4 str2" d="M4856.78 1602.84c-123.55,0 -223.7,114.63 -223.7,256.04 0,141.4 100.16,256.04 223.7,256.04 123.55,0 223.7,-114.63 223.7,-256.04 0,-141.41 -100.15,-256.04 -223.7,-256.04z"/>
     <path class="fil4 str2" d="M4287.33 1597.03c-123.54,0 -223.69,114.63 -223.69,256.04 0,141.41 100.15,256.04 223.69,256.04 123.54,0 223.69,-114.63 223.69,-256.04 0,-141.41 -100.15,-256.04 -223.69,-256.04z"/>
     <path class="fil4 str2" d="M3756.48 1595.63c-110.09,0 -199.34,108.34 -199.34,241.99 0,133.65 89.25,241.99 199.34,241.99 110.09,0 199.34,-108.34 199.34,-241.99 0,-133.65 -89.25,-241.99 -199.34,-241.99z"/>
     <path class="fil4 str2" d="M3261.38 1596.36c-104.15,0 -188.58,102.2 -188.58,228.26 0,126.06 84.43,228.26 188.58,228.26 104.15,0 188.58,-102.2 188.58,-228.26 0,-126.06 -84.43,-228.26 -188.58,-228.26z"/>
     <path class="fil4 str2" d="M5488.64 975.8c-133.19,0 -241.17,114.63 -241.17,256.04 0,141.41 107.98,256.04 241.17,256.04 133.19,0 241.17,-114.63 241.17,-256.04 0,-141.4 -107.98,-256.04 -241.17,-256.04z"/>
     <path class="fil4 str2" d="M6147.15 946.22c-133.19,0 -241.17,120.03 -241.17,268.09 0,148.06 107.98,268.09 241.17,268.09 133.19,0 241.17,-120.03 241.17,-268.09 0,-148.06 -107.98,-268.09 -241.17,-268.09z"/>
     <path class="fil4 str2" d="M4856.78 992.45c-123.55,0 -223.7,114.63 -223.7,256.04 0,141.41 100.16,256.04 223.7,256.04 123.55,0 223.7,-114.63 223.7,-256.04 0,-141.41 -100.15,-256.04 -223.7,-256.04z"/>
     <path class="fil4 str2" d="M4287.33 1023.06c-118.1,0 -213.84,109.58 -213.84,244.76 0,135.18 95.74,244.76 213.84,244.76 118.1,0 213.84,-109.58 213.84,-244.76 0,-135.18 -95.74,-244.76 -213.84,-244.76z"/>
     <path class="fil4 str2" d="M3756.48 1053.16c-105.24,0 -190.56,103.57 -190.56,231.33 0,127.76 85.32,231.33 190.56,231.33 105.24,0 190.56,-103.57 190.56,-231.33 0,-127.76 -85.32,-231.33 -190.56,-231.33z"/>
     <path class="fil4 str2" d="M3261.38 1074.18c-99.56,0 -180.27,97.69 -180.27,218.21 0,120.51 80.71,218.2 180.27,218.2 99.56,0 180.27,-97.69 180.27,-218.2 0,-120.51 -80.71,-218.21 -180.27,-218.21z"/>
     <path class="fil4 str2" d="M5478.61 343.21c-133.19,0 -241.17,114.63 -241.17,256.04 0,141.4 107.98,256.04 241.17,256.04 133.19,0 241.17,-114.63 241.17,-256.04 0,-141.41 -107.98,-256.04 -241.17,-256.04z"/>
     <path class="fil4 str2" d="M6137.12 283.86c-133.19,0 -241.17,120.03 -241.17,268.09 0,148.06 107.98,268.09 241.17,268.09 133.19,0 241.17,-120.03 241.17,-268.09 0,-148.06 -107.98,-268.09 -241.17,-268.09z"/>
     <path class="fil4 str2" d="M4856.78 382.05c-123.55,0 -223.7,114.63 -223.7,256.04 0,141.41 100.16,256.04 223.7,256.04 123.55,0 223.7,-114.63 223.7,-256.04 0,-141.41 -100.15,-256.04 -223.7,-256.04z"/>
     <path class="fil4 str2" d="M4287.33 440.07c-116.17,0 -210.35,107.8 -210.35,240.77 0,132.97 94.18,240.77 210.35,240.77 116.17,0 210.35,-107.8 210.35,-240.77 0,-132.97 -94.18,-240.77 -210.35,-240.77z"/>
     <path class="fil4 str2" d="M3756.48 502.16c-103.53,0 -187.45,101.88 -187.45,227.56 0,125.68 83.92,227.56 187.45,227.56 103.53,0 187.45,-101.88 187.45,-227.56 0,-125.68 -83.92,-227.56 -187.45,-227.56z"/>
     <path class="fil4 str2" d="M3261.38 543.96c-97.94,0 -177.33,96.1 -177.33,214.64 0,118.55 79.39,214.64 177.33,214.64 97.94,0 177.33,-96.1 177.33,-214.64 0,-118.55 -79.39,-214.64 -177.33,-214.64z"/>
     <path class="fil4 str2" d="M5468.59 -289.38c-133.19,0 -241.17,114.63 -241.17,256.04 0,141.41 107.98,256.04 241.17,256.04 133.19,0 241.17,-114.63 241.17,-256.04 0,-141.41 -107.98,-256.04 -241.17,-256.04z"/>
     <path class="fil4 str2" d="M6127.09 -378.5c-133.19,0 -241.17,120.03 -241.17,268.09 0,148.06 107.98,268.09 241.17,268.09 133.19,0 241.17,-120.03 241.17,-268.09 0,-148.06 -107.98,-268.09 -241.17,-268.09z"/>
     <path class="fil4 str2" d="M4856.78 -217.25c-123.55,0 -223.7,114.63 -223.7,256.04 0,141.41 100.16,256.04 223.7,256.04 123.55,0 223.7,-114.63 223.7,-256.04 0,-141.4 -100.15,-256.04 -223.7,-256.04z"/>
     <path class="fil4 str2" d="M4287.33 -117.06c-111.36,0 -201.63,103.33 -201.63,230.79 0,127.46 90.27,230.79 201.63,230.79 111.36,0 201.63,-103.33 201.63,-230.79 0,-127.46 -90.27,-230.79 -201.63,-230.79z"/>
     <path class="fil4 str2" d="M3756.48 -24.41c-99.23,0 -179.68,97.66 -179.68,218.12 0,120.47 80.44,218.12 179.68,218.12 99.23,0 179.68,-97.66 179.68,-218.12 0,-120.47 -80.45,-218.12 -179.68,-218.12z"/>
     <path class="fil4 str2" d="M3261.38 34.16c-93.88,0 -169.98,92.12 -169.98,205.75 0,113.63 76.1,205.75 169.98,205.75 93.88,0 169.98,-92.12 169.98,-205.75 0,-113.63 -76.1,-205.75 -169.98,-205.75z"/>
    </g>
   </g>
   <polygon class="fil1" points="3044.7,0 6419.9,0 6419.9,5204.98 3044.7,5204.98 "/>
   <polygon class="fil5" points="17.77,2455.24 6419.9,3835.93 6428.12,5180.33 17.77,5180.33 "/>
   <polygon class="fil6" points="6419.9,3835.93 9.55,4832.42 9.55,5204.98 4332.43,5180.33 6425.59,4766.77 "/>
   <polygon class="fil7" points="4332.43,5180.33 6425.59,4766.77 6419.9,5204.98 "/>
   <path class="fil8" d="M5395.52 2662.57c89.35,4.75 173.57,-33.43 224.57,-177.91 42.87,-121.47 -38.05,-322.15 -185.13,-329.27 -1159.94,-24.2 -2207.07,-147.49 -3227.37,-90.62 35.58,154.2 170.8,251.46 206.39,405.66 943.52,166.07 1887.04,332.14 2830.57,498.22 50.33,-102.03 100.65,-204.05 150.98,-306.08z"/>
   <g style="clip-path:url(#id2)">
    <g>
     <path id="1" class="fil9" d="M4346.68 2925.6c275.21,-10.48 620.88,-21.19 896.09,-31.67 -1.46,-68.59 -457.1,-146.39 -962.84,-202.59 -589.3,-65.49 -1276.07,-129.5 -1764.3,-202.69l-1.52 174.69 1832.56 262.26z"/>
     <g>
      <ellipse class="fil10" transform="matrix(1.39683 -0.0561286 0.0251502 0.999306 5102.61 2675.97)" rx="11.64" ry="18.49"/>
      <path class="fil1 str3" d="M5064.93 2601.44c2.55,28.67 21.62,60.1 42.3,74.34 7.99,-27.27 40.36,-66.48 63.22,-75.16"/>
      <path class="fil1 str3" d="M5055.61 2748.42c1.1,-28.82 25.48,-58.57 51.63,-72.64 8.86,34.13 36.3,71.62 56.22,82.69"/>
     </g>
     <g>
      <ellipse class="fil10" transform="matrix(1.39683 -0.0561286 0.0251502 0.999306 4925.5 2655.35)" rx="11.64" ry="18.49"/>
      <path class="fil1 str3" d="M4887.82 2580.82c2.55,28.67 21.62,60.1 42.3,74.34 7.99,-27.27 40.36,-66.48 63.22,-75.16"/>
      <path class="fil1 str3" d="M4878.5 2727.8c1.1,-28.82 25.48,-58.57 51.63,-72.64 8.86,34.13 36.3,71.62 56.22,82.69"/>
     </g>
     <g>
      <ellipse class="fil10" transform="matrix(1.37001 -0.0550508 0.0246672 0.980115 4766.79 2638.35)" rx="11.64" ry="18.49"/>
      <path class="fil1 str3" d="M4729.83 2565.25c2.5,28.12 21.2,58.95 41.49,72.92 7.84,-26.74 39.59,-65.2 62,-73.71"/>
      <path class="fil1 str3" d="M4720.69 2709.41c1.08,-28.26 24.99,-57.44 50.64,-71.24 8.69,33.47 35.6,70.24 55.14,81.1"/>
     </g>
     <g>
      <ellipse class="fil10" transform="matrix(1.34319 -0.0539729 0.0241842 0.960925 4608.07 2621.4)" rx="11.64" ry="18.49"/>
      <path class="fil1 str3" d="M4571.83 2549.73c2.45,27.57 20.79,57.79 40.68,71.49 7.69,-26.22 38.81,-63.92 60.79,-72.27"/>
      <path class="fil1 str3" d="M4562.87 2691.06c1.06,-27.71 24.5,-56.32 49.64,-69.85 8.51,32.82 34.9,68.87 54.06,79.51"/>
     </g>
     <g>
      <ellipse class="fil10" transform="matrix(1.31636 -0.052895 0.0237012 0.941734 4449.35 2604.39)" rx="11.64" ry="18.49"/>
      <path class="fil1 str3" d="M4413.84 2534.16c2.4,27.02 20.37,56.64 39.87,70.06 7.54,-25.7 38.04,-62.65 59.57,-70.83"/>
      <path class="fil1 str3" d="M4405.06 2672.67c1.04,-27.16 24.01,-55.2 48.65,-68.45 8.35,32.16 34.21,67.49 52.98,77.93"/>
     </g>
     <g>
      <ellipse class="fil10" transform="matrix(1.28954 -0.0518171 0.0232183 0.922544 4290.64 2587.39)" rx="11.64" ry="18.49"/>
      <path class="fil1 str3" d="M4255.86 2518.59c2.35,26.47 19.96,55.49 39.06,68.63 7.38,-25.17 37.26,-61.37 58.36,-69.39"/>
      <path class="fil1 str3" d="M4247.25 2654.28c1.02,-26.61 23.52,-54.07 47.66,-67.06 8.17,31.51 33.51,66.11 51.91,76.34"/>
     </g>
     <g>
      <ellipse class="fil10" transform="matrix(1.26271 -0.0507392 0.0227353 0.903354 4131.93 2570.39)" rx="11.64" ry="18.49"/>
      <path class="fil1 str3" d="M4097.87 2503.02c2.31,25.92 19.54,54.33 38.24,67.21 7.23,-24.65 36.49,-60.09 57.15,-67.94"/>
      <path class="fil1 str3" d="M4089.44 2635.88c1,-26.05 23.03,-52.95 46.67,-65.66 8,30.85 32.81,64.74 50.83,74.75"/>
     </g>
     <g>
      <ellipse class="fil10" transform="matrix(1.23589 -0.0496613 0.0222523 0.884163 3973.22 2553.39)" rx="11.64" ry="18.49"/>
      <path class="fil1 str3" d="M3939.88 2487.45c2.26,25.37 19.12,53.18 37.43,65.78 7.07,-24.13 35.71,-58.82 55.93,-66.5"/>
      <path class="fil1 str3" d="M3931.63 2617.49c0.98,-25.5 22.55,-51.82 45.68,-64.27 7.83,30.19 32.12,63.36 49.75,73.16"/>
     </g>
     <g>
      <ellipse class="fil10" transform="matrix(1.20906 -0.0485835 0.0217693 0.864973 3814.51 2536.39)" rx="11.64" ry="18.49"/>
      <path class="fil1 str3" d="M3781.89 2471.88c2.21,24.82 18.71,52.02 36.62,64.35 6.92,-23.6 34.94,-57.54 54.72,-65.05"/>
      <path class="fil1 str3" d="M3773.82 2599.1c0.96,-24.95 22.06,-50.7 44.69,-62.87 7.66,29.54 31.42,61.99 48.67,71.57"/>
     </g>
     <g>
      <ellipse class="fil10" transform="matrix(1.18224 -0.0475056 0.0212863 0.845782 3655.79 2519.38)" rx="11.64" ry="18.49"/>
      <path class="fil1 str3" d="M3623.9 2456.3c2.16,24.27 18.3,50.87 35.81,62.92 6.77,-23.08 34.16,-56.26 53.5,-63.61"/>
      <path class="fil1 str3" d="M3616.01 2580.71c0.93,-24.39 21.57,-49.57 43.7,-61.48 7.49,28.88 30.72,60.61 47.59,69.99"/>
     </g>
     <g>
      <ellipse class="fil10" transform="matrix(1.15541 -0.0464277 0.0208034 0.826592 3497.08 2502.38)" rx="11.64" ry="18.49"/>
      <path class="fil1 str3" d="M3465.91 2440.73c2.11,23.72 17.88,49.71 34.99,61.49 6.61,-22.55 33.39,-54.99 52.29,-62.17"/>
      <path class="fil1 str3" d="M3458.2 2562.31c0.91,-23.84 21.08,-48.45 42.7,-60.08 7.32,28.23 30.02,59.24 46.51,68.4"/>
     </g>
     <g>
      <ellipse class="fil10" transform="matrix(1.12859 -0.0453498 0.0203204 0.807401 3338.37 2485.38)" rx="11.64" ry="18.49"/>
      <path class="fil1 str3" d="M3307.93 2425.16c2.06,23.17 17.47,48.56 34.18,60.07 6.46,-22.03 32.61,-53.71 51.08,-60.73"/>
      <path class="fil1 str3" d="M3300.39 2543.92c0.89,-23.28 20.59,-47.32 41.71,-58.69 7.15,27.57 29.33,57.86 45.43,66.81"/>
     </g>
     <g>
      <ellipse class="fil10" transform="matrix(1.10176 -0.0442719 0.0198374 0.788211 3179.66 2468.38)" rx="11.64" ry="18.49"/>
      <path class="fil1 str3" d="M3149.94 2409.59c2.01,22.62 17.05,47.41 33.37,58.64 6.31,-21.51 31.84,-52.43 49.86,-59.28"/>
      <path class="fil1 str3" d="M3142.58 2525.52c0.87,-22.73 20.1,-46.2 40.72,-57.29 6.98,26.92 28.63,56.49 44.35,65.22"/>
     </g>
     <g>
      <ellipse class="fil10" transform="matrix(1.07494 -0.0431941 0.0193544 0.76902 3020.95 2451.38)" rx="11.64" ry="18.49"/>
      <path class="fil1 str3" d="M2991.95 2394.02c1.96,22.07 16.63,46.25 32.56,57.21 6.15,-20.98 31.06,-51.16 48.65,-57.84"/>
      <path class="fil1 str3" d="M2984.78 2507.13c0.85,-22.18 19.61,-45.07 39.73,-55.9 6.81,26.26 27.93,55.11 43.27,63.63"/>
     </g>
     <g>
      <ellipse class="fil10" transform="matrix(1.04812 -0.0421162 0.0188715 0.74983 2862.24 2434.37)" rx="11.64" ry="18.49"/>
      <path class="fil1 str3" d="M2833.96 2378.45c1.91,21.51 16.22,45.1 31.74,55.78 6,-20.46 30.29,-49.88 47.43,-56.39"/>
      <path class="fil1 str3" d="M2826.97 2488.74c0.83,-21.63 19.12,-43.95 38.74,-54.5 6.64,25.61 27.24,53.74 42.19,62.05"/>
     </g>
     <g>
      <ellipse class="fil10" transform="matrix(1.02129 -0.0410383 0.0183885 0.730639 2703.52 2417.37)" rx="11.64" ry="18.49"/>
      <path class="fil1 str3" d="M2675.97 2362.88c1.86,20.96 15.81,43.94 30.93,54.36 5.84,-19.94 29.51,-48.6 46.22,-54.95"/>
      <path class="fil1 str3" d="M2669.16 2470.34c0.81,-21.07 18.63,-42.82 37.75,-53.11 6.47,24.95 26.54,52.36 41.11,60.46"/>
     </g>
     <g>
      <ellipse class="fil10" transform="matrix(0.992263 -0.0398719 0.0178658 0.709873 2576.06 2407.32)" rx="11.64" ry="18.49"/>
      <path class="fil1 str3" d="M2549.29 2354.38c1.81,20.37 15.35,42.69 30.05,52.81 5.68,-19.37 28.67,-47.22 44.91,-53.39"/>
      <path class="fil1 str3" d="M2542.67 2458.79c0.78,-20.47 18.1,-41.61 36.67,-51.6 6.29,24.24 25.79,50.87 39.94,58.74"/>
     </g>
     <g>
      <ellipse class="fil10" transform="matrix(0.963744 -0.0387259 0.0173523 0.68947 2448.59 2397.35)" rx="11.64" ry="18.49"/>
      <path class="fil1 str3" d="M2422.59 2345.93c1.76,19.78 14.91,41.47 29.19,51.29 5.52,-18.81 27.85,-45.87 43.62,-51.85"/>
      <path class="fil1 str3" d="M2416.16 2447.34c0.76,-19.88 17.58,-40.41 35.62,-50.12 6.11,23.55 25.04,49.41 38.79,57.05"/>
     </g>
     <g>
      <ellipse class="fil10" transform="matrix(1.39728 -0.0209935 -0 1 5037.33 2474.64)" rx="11.64" ry="18.49"/>
      <path class="fil1 str3" d="M5001.55 2399.15c1.83,28.74 20.09,60.65 40.41,75.41 8.68,-27.07 42.01,-65.46 65.06,-73.57"/>
      <path class="fil1 str3" d="M4988.54 2545.91c1.83,-28.79 26.94,-57.93 53.42,-71.34 7.99,34.35 34.47,72.53 54.11,84.11"/>
     </g>
     <g>
      <ellipse class="fil10" transform="matrix(1.39728 -0.0209935 -0 1 4860.22 2454.02)" rx="11.64" ry="18.49"/>
      <path class="fil1 str3" d="M4824.44 2378.54c1.83,28.74 20.09,60.65 40.41,75.41 8.68,-27.07 42.01,-65.46 65.06,-73.57"/>
      <path class="fil1 str3" d="M4811.43 2525.29c1.83,-28.79 26.94,-57.93 53.42,-71.34 7.99,34.35 34.47,72.53 54.11,84.11"/>
     </g>
     <g>
      <ellipse class="fil10" transform="matrix(1.37044 -0.0205904 -0 0.980796 4701.43 2440.82)" rx="11.64" ry="18.49"/>
      <path class="fil1 str3" d="M4666.33 2366.79c1.79,28.19 19.7,59.49 39.63,73.96 8.51,-26.55 41.2,-64.21 63.81,-72.16"/>
      <path class="fil1 str3" d="M4653.57 2510.72c1.79,-28.24 26.42,-56.82 52.39,-69.97 7.84,33.69 33.81,71.14 53.07,82.49"/>
     </g>
     <g>
      <ellipse class="fil10" transform="matrix(1.34361 -0.0201872 -0 0.961592 4542.62 2427.67)" rx="11.64" ry="18.49"/>
      <path class="fil1 str3" d="M4508.22 2355.09c1.76,27.63 19.32,58.32 38.85,72.52 8.34,-26.03 40.39,-62.95 62.56,-70.75"/>
      <path class="fil1 str3" d="M4495.7 2496.21c1.76,-27.69 25.9,-55.71 51.37,-68.6 7.68,33.03 33.15,69.75 52.03,80.88"/>
     </g>
     <g>
      <ellipse class="fil10" transform="matrix(1.31678 -0.0197841 -0 0.942389 4383.83 2414.48)" rx="11.64" ry="18.49"/>
      <path class="fil1 str3" d="M4350.11 2343.34c1.72,27.08 18.93,57.16 38.08,71.07 8.18,-25.51 39.59,-61.69 61.32,-69.33"/>
      <path class="fil1 str3" d="M4337.85 2481.64c1.72,-27.13 25.39,-54.59 50.34,-67.23 7.53,32.37 32.49,68.36 50.99,79.26"/>
     </g>
     <g>
      <ellipse class="fil10" transform="matrix(1.28994 -0.0193809 -0 0.923185 4225.04 2401.28)" rx="11.64" ry="18.49"/>
      <path class="fil1 str3" d="M4192 2331.6c1.69,26.53 18.55,55.99 37.3,69.62 8.01,-24.99 38.78,-60.44 60.07,-67.92"/>
      <path class="fil1 str3" d="M4179.99 2467.08c1.69,-26.58 24.87,-53.48 49.32,-65.86 7.38,31.71 31.82,66.96 49.95,77.65"/>
     </g>
     <g>
      <ellipse class="fil10" transform="matrix(1.26311 -0.0189778 -0 0.903981 4066.24 2388.08)" rx="11.64" ry="18.49"/>
      <path class="fil1 str3" d="M4033.9 2319.85c1.65,25.98 18.16,54.83 36.53,68.17 7.84,-24.47 37.97,-59.18 58.82,-66.51"/>
      <path class="fil1 str3" d="M4022.14 2452.51c1.65,-26.03 24.35,-52.37 48.29,-64.49 7.22,31.05 31.16,65.57 48.91,76.03"/>
     </g>
     <g>
      <ellipse class="fil10" transform="matrix(1.23628 -0.0185746 -0 0.884777 3907.45 2374.89)" rx="11.64" ry="18.49"/>
      <path class="fil1 str3" d="M3875.79 2308.1c1.62,25.43 17.77,53.66 35.75,66.72 7.68,-23.95 37.17,-57.92 57.57,-65.09"/>
      <path class="fil1 str3" d="M3864.28 2437.95c1.62,-25.48 23.83,-51.26 47.26,-63.12 7.07,30.39 30.5,64.18 47.87,74.42"/>
     </g>
     <g>
      <ellipse class="fil10" transform="matrix(1.20945 -0.0181714 -0 0.865574 3748.66 2361.69)" rx="11.64" ry="18.49"/>
      <path class="fil1 str3" d="M3717.69 2296.35c1.58,24.88 17.39,52.5 34.97,65.27 7.51,-23.43 36.36,-56.66 56.32,-63.68"/>
      <path class="fil1 str3" d="M3706.42 2423.38c1.58,-24.92 23.32,-50.14 46.24,-61.75 6.92,29.74 29.84,62.78 46.83,72.8"/>
     </g>
     <g>
      <ellipse class="fil10" transform="matrix(1.18261 -0.0177683 -0 0.84637 3589.86 2348.49)" rx="11.64" ry="18.49"/>
      <path class="fil1 str3" d="M3559.58 2284.61c1.55,24.32 17,51.33 34.2,63.83 7.34,-22.91 35.55,-55.41 55.07,-62.27"/>
      <path class="fil1 str3" d="M3548.57 2408.82c1.55,-24.37 22.8,-49.03 45.21,-60.38 6.76,29.07 29.18,61.39 45.79,71.19"/>
     </g>
     <g>
      <ellipse class="fil10" transform="matrix(1.15578 -0.0173651 -0 0.827166 3431.07 2335.29)" rx="11.64" ry="18.49"/>
      <path class="fil1 str3" d="M3401.48 2272.86c1.51,23.77 16.62,50.17 33.42,62.38 7.18,-22.39 34.75,-54.15 53.82,-60.86"/>
      <path class="fil1 str3" d="M3390.71 2394.25c1.51,-23.82 22.28,-47.92 44.19,-59.01 6.61,28.41 28.51,60 44.75,69.57"/>
     </g>
     <g>
      <ellipse class="fil10" transform="matrix(1.12895 -0.016962 -0 0.807962 3272.28 2322.1)" rx="11.64" ry="18.49"/>
      <path class="fil1 str3" d="M3243.37 2261.11c1.48,23.22 16.23,49 32.65,60.93 7.01,-21.87 33.94,-52.89 52.57,-59.44"/>
      <path class="fil1 str3" d="M3232.86 2379.68c1.48,-23.26 21.76,-46.81 43.16,-57.64 6.46,27.75 27.85,58.6 43.72,67.96"/>
     </g>
     <g>
      <ellipse class="fil10" transform="matrix(1.10211 -0.0165588 -0 0.788758 3113.49 2308.9)" rx="11.64" ry="18.49"/>
      <path class="fil1 str3" d="M3085.26 2249.36c1.44,22.67 15.85,47.84 31.87,59.48 6.84,-21.35 33.13,-51.64 51.32,-58.03"/>
      <path class="fil1 str3" d="M3075 2365.12c1.44,-22.71 21.25,-45.69 42.13,-56.27 6.3,27.09 27.19,57.21 42.68,66.34"/>
     </g>
     <g>
      <ellipse class="fil10" transform="matrix(1.07528 -0.0161557 -0 0.769555 2954.69 2295.7)" rx="11.64" ry="18.49"/>
      <path class="fil1 str3" d="M2927.16 2237.62c1.41,22.11 15.46,46.67 31.09,58.03 6.68,-20.83 32.33,-50.38 50.07,-56.62"/>
      <path class="fil1 str3" d="M2917.14 2350.55c1.41,-22.16 20.73,-44.58 41.11,-54.9 6.15,26.44 26.53,55.82 41.64,64.73"/>
     </g>
     <g>
      <ellipse class="fil10" transform="matrix(1.04845 -0.0157525 -0 0.750351 2795.9 2282.5)" rx="11.64" ry="18.49"/>
      <path class="fil1 str3" d="M2769.05 2225.87c1.37,21.56 15.07,45.51 30.32,56.59 6.51,-20.31 31.52,-49.12 48.82,-55.21"/>
      <path class="fil1 str3" d="M2759.29 2335.99c1.37,-21.61 20.21,-43.47 40.08,-53.53 6,25.78 25.87,54.43 40.6,63.11"/>
     </g>
     <g>
      <ellipse class="fil10" transform="matrix(1.02161 -0.0153494 -0 0.731147 2637.11 2269.31)" rx="11.64" ry="18.49"/>
      <path class="fil1 str3" d="M2610.95 2214.12c1.34,21.01 14.69,44.34 29.54,55.14 6.34,-19.79 30.71,-47.86 47.57,-53.79"/>
      <path class="fil1 str3" d="M2601.43 2321.42c1.34,-21.05 19.7,-42.36 39.06,-52.16 5.84,25.12 25.2,53.03 39.56,61.5"/>
     </g>
     <g>
      <ellipse class="fil10" transform="matrix(0.992577 -0.0149131 -0 0.710366 2509.55 2263.37)" rx="11.64" ry="18.49"/>
      <path class="fil1 str3" d="M2484.14 2209.75c1.3,20.42 14.27,43.08 28.7,53.57 6.16,-19.23 29.84,-46.5 46.22,-52.26"/>
      <path class="fil1 str3" d="M2474.89 2314c1.3,-20.45 19.13,-41.15 37.95,-50.68 5.68,24.4 24.49,51.52 38.43,59.75"/>
     </g>
     <g>
      <ellipse class="fil10" transform="matrix(0.964049 -0.0144845 -0 0.689948 2382 2257.45)" rx="11.64" ry="18.49"/>
      <path class="fil1 str3" d="M2357.31 2205.37c1.26,19.83 13.86,41.85 27.88,52.03 5.99,-18.68 28.98,-45.17 44.89,-50.76"/>
      <path class="fil1 str3" d="M2348.33 2306.63c1.26,-19.87 18.59,-39.97 36.86,-49.22 5.51,23.7 23.78,50.04 37.33,58.03"/>
     </g>
     <g>
      <g>
       <ellipse class="fil10" transform="matrix(1.39322 0.0854816 -0.0761583 0.99824 5151.13 2275.26)" rx="11.64" ry="18.49"/>
       <path class="fil1 str3" d="M5121.25 2197.19c-0.37,28.83 15.39,62.07 34.5,78.36 10.7,-26.36 46.82,-62.15 70.4,-68.49"/>
       <path class="fil1 str3" d="M5097.11 2342.69c4.01,-28.6 31.24,-55.78 58.64,-67.15 5.34,34.9 28.81,75.03 47.48,88.08"/>
      </g>
      <g>
       <ellipse class="fil10" transform="matrix(1.39707 0.0030619 -0.0172137 1.00011 4960.07 2258.01)" rx="11.64" ry="18.49"/>
       <path class="fil1 str3" d="M4925.6 2181.9c1.33,28.77 19.04,61 39.09,76.12 9.14,-26.92 43.11,-64.75 66.3,-72.46"/>
       <path class="fil1 str3" d="M4910.07 2328.45c2.32,-28.76 27.92,-57.47 54.62,-70.43 7.4,34.49 33.21,73.14 52.64,85.05"/>
      </g>
      <g>
       <ellipse class="fil10" transform="matrix(1.37024 0.0030031 -0.0168831 0.980905 4800.91 2248.42)" rx="11.64" ry="18.49"/>
       <path class="fil1 str3" d="M4767.1 2173.77c1.31,28.22 18.67,59.83 38.34,74.66 8.96,-26.4 42.29,-63.51 65.03,-71.07"/>
       <path class="fil1 str3" d="M4751.87 2317.51c2.28,-28.21 27.39,-56.37 53.57,-69.08 7.25,33.83 32.57,71.73 51.62,83.42"/>
      </g>
      <g>
       <ellipse class="fil10" transform="matrix(1.34341 0.0029443 -0.0165526 0.961699 4641.73 2238.88)" rx="11.64" ry="18.49"/>
       <path class="fil1 str3" d="M4608.59 2165.7c1.28,27.67 18.31,58.66 37.59,73.19 8.79,-25.89 41.46,-62.26 63.76,-69.68"/>
       <path class="fil1 str3" d="M4593.65 2306.62c2.23,-27.66 26.85,-55.27 52.53,-67.73 7.11,33.17 31.93,70.33 50.61,81.78"/>
      </g>
      <g>
       <ellipse class="fil10" transform="matrix(1.31658 0.0028855 -0.016222 0.942493 4482.57 2229.29)" rx="11.64" ry="18.49"/>
       <path class="fil1 str3" d="M4450.09 2157.57c1.26,27.12 17.94,57.49 36.84,71.73 8.61,-25.37 40.63,-61.02 62.48,-68.29"/>
       <path class="fil1 str3" d="M4435.45 2295.68c2.19,-27.11 26.31,-54.16 51.48,-66.37 6.97,32.51 31.3,68.92 49.6,80.15"/>
      </g>
      <g>
       <ellipse class="fil10" transform="matrix(1.28975 0.0028267 -0.0158914 0.923287 4323.41 2219.71)" rx="11.64" ry="18.49"/>
       <path class="fil1 str3" d="M4291.59 2149.45c1.23,26.56 17.57,56.32 36.09,70.27 8.44,-24.85 39.8,-59.77 61.21,-66.89"/>
       <path class="fil1 str3" d="M4277.25 2284.74c2.14,-26.56 25.78,-53.06 50.43,-65.02 6.83,31.84 30.66,67.52 48.59,78.52"/>
      </g>
      <g>
       <ellipse class="fil10" transform="matrix(1.26292 0.0027679 -0.0155609 0.904081 4164.25 2210.12)" rx="11.64" ry="18.49"/>
       <path class="fil1 str3" d="M4133.09 2141.32c1.2,26.01 17.21,55.15 35.34,68.81 8.26,-24.34 38.98,-58.53 59.94,-65.5"/>
       <path class="fil1 str3" d="M4119.05 2273.8c2.1,-26 25.24,-51.96 49.38,-63.67 6.69,31.18 30.02,66.11 47.58,76.88"/>
      </g>
      <g>
       <ellipse class="fil10" transform="matrix(1.2361 0.0027091 -0.0152303 0.884875 4005.09 2200.53)" rx="11.64" ry="18.49"/>
       <path class="fil1 str3" d="M3974.59 2133.19c1.18,25.46 16.84,53.97 34.59,67.35 8.09,-23.82 38.15,-57.29 58.66,-64.11"/>
       <path class="fil1 str3" d="M3960.85 2262.86c2.06,-25.45 24.71,-50.85 48.33,-62.32 6.54,30.52 29.38,64.71 46.57,75.25"/>
      </g>
      <g>
       <ellipse class="fil10" transform="matrix(1.20927 0.0026503 -0.0148997 0.865669 3845.93 2190.94)" rx="11.64" ry="18.49"/>
       <path class="fil1 str3" d="M3816.09 2125.07c1.15,24.9 16.48,52.8 33.84,65.88 7.91,-23.3 37.32,-56.04 57.39,-62.72"/>
       <path class="fil1 str3" d="M3802.65 2251.91c2.01,-24.9 24.17,-49.75 47.28,-60.96 6.4,29.86 28.75,63.3 45.56,73.62"/>
      </g>
      <g>
       <ellipse class="fil10" transform="matrix(1.18244 0.0025915 -0.0145692 0.846463 3686.76 2181.35)" rx="11.64" ry="18.49"/>
       <path class="fil1 str3" d="M3657.59 2116.94c1.13,24.35 16.11,51.63 33.09,64.42 7.73,-22.79 36.49,-54.8 56.12,-61.33"/>
       <path class="fil1 str3" d="M3644.45 2240.97c1.97,-24.35 23.63,-48.65 46.23,-59.61 6.26,29.19 28.11,61.9 44.55,71.98"/>
      </g>
      <g>
       <ellipse class="fil10" transform="matrix(1.15561 0.0025327 -0.0142386 0.827257 3527.6 2171.77)" rx="11.64" ry="18.49"/>
       <path class="fil1 str3" d="M3499.09 2108.81c1.1,23.8 15.75,50.46 32.34,62.96 7.56,-22.27 35.66,-53.56 54.84,-59.94"/>
       <path class="fil1 str3" d="M3486.25 2230.03c1.92,-23.79 23.1,-47.54 45.18,-58.26 6.12,28.53 27.47,60.5 43.54,70.35"/>
      </g>
      <g>
       <ellipse class="fil10" transform="matrix(1.12878 0.0024739 -0.013908 0.808051 3368.44 2162.18)" rx="11.64" ry="18.49"/>
       <path class="fil1 str3" d="M3340.59 2100.69c1.08,23.25 15.38,49.29 31.58,61.5 7.38,-21.75 34.84,-52.31 53.57,-58.54"/>
       <path class="fil1 str3" d="M3328.04 2219.09c1.88,-23.24 22.56,-46.44 44.13,-56.91 5.98,27.87 26.83,59.09 42.53,68.72"/>
      </g>
      <g>
       <ellipse class="fil10" transform="matrix(1.10195 0.0024151 -0.0135775 0.788846 3209.28 2152.59)" rx="11.64" ry="18.49"/>
       <path class="fil1 str3" d="M3182.09 2092.56c1.05,22.7 15.02,48.12 30.83,60.04 7.21,-21.24 34.01,-51.07 52.3,-57.15"/>
       <path class="fil1 str3" d="M3169.84 2208.15c1.83,-22.69 22.03,-45.33 43.09,-55.55 5.83,27.21 26.19,57.69 41.52,67.08"/>
      </g>
      <g>
       <ellipse class="fil10" transform="matrix(1.07512 0.0023563 -0.0132469 0.76964 3050.12 2143)" rx="11.64" ry="18.49"/>
       <path class="fil1 str3" d="M3023.59 2084.43c1.03,22.14 14.65,46.95 30.08,58.58 7.03,-20.72 33.18,-49.83 51.02,-55.76"/>
       <path class="fil1 str3" d="M3011.64 2197.21c1.79,-22.14 21.49,-44.23 42.04,-54.2 5.69,26.54 25.56,56.28 40.51,65.45"/>
      </g>
      <g>
       <ellipse class="fil10" transform="matrix(1.04829 0.0022975 -0.0129163 0.750434 2890.96 2133.41)" rx="11.64" ry="18.49"/>
       <path class="fil1 str3" d="M2865.1 2076.31c1,21.59 14.28,45.77 29.33,57.11 6.86,-20.2 32.35,-48.58 49.75,-54.37"/>
       <path class="fil1 str3" d="M2853.44 2186.27c1.74,-21.58 20.95,-43.13 40.99,-52.85 5.55,25.88 24.92,54.88 39.49,63.82"/>
      </g>
      <g>
       <ellipse class="fil10" transform="matrix(1.02146 0.0022387 -0.0125858 0.731228 2731.8 2123.83)" rx="11.64" ry="18.49"/>
       <path class="fil1 str3" d="M2706.6 2068.18c0.97,21.04 13.92,44.6 28.58,55.65 6.68,-19.68 31.52,-47.34 48.48,-52.98"/>
       <path class="fil1 str3" d="M2695.24 2175.33c1.7,-21.03 20.42,-42.02 39.94,-51.5 5.41,25.22 24.28,53.47 38.49,62.19"/>
      </g>
      <g>
       <ellipse class="fil10" transform="matrix(0.99243 0.00217507 -0.012228 0.710444 2603.84 2121.8)" rx="11.64" ry="18.49"/>
       <path class="fil1 str3" d="M2579.36 2067.73c0.95,20.44 13.52,43.33 27.77,54.07 6.49,-19.12 30.63,-45.99 47.1,-51.47"/>
       <path class="fil1 str3" d="M2568.33 2171.84c1.65,-20.43 19.84,-40.83 38.8,-50.03 5.25,24.5 23.59,51.95 37.39,60.42"/>
      </g>
      <g>
       <ellipse class="fil10" transform="matrix(0.963906 0.00211255 -0.0118766 0.690025 2475.9 2119.71)" rx="11.64" ry="18.49"/>
       <path class="fil1 str3" d="M2452.12 2067.2c0.92,19.85 13.13,42.09 26.97,52.52 6.31,-18.57 29.75,-44.67 45.75,-49.99"/>
       <path class="fil1 str3" d="M2441.4 2168.32c1.6,-19.85 19.27,-39.66 37.69,-48.59 5.1,23.8 22.91,50.46 36.32,58.68"/>
      </g>
     </g>
    </g>
   </g>
   <path class="fil1 str4" d="M5395.52 2662.57c89.35,4.75 173.57,-33.43 224.57,-177.91 42.87,-121.47 -38.05,-322.15 -185.13,-329.27 -1159.94,-24.2 -2207.07,-147.49 -3227.37,-90.62 35.58,154.2 170.8,251.46 206.39,405.66 943.52,166.07 1887.04,332.14 2830.57,498.22 50.33,-102.03 100.65,-204.05 150.98,-306.08z"/>
   <path class="fil8" d="M4351.48 3688.93l1014.18 -140.3 33.81 -1003.47c149.45,-13.05 140.56,-244.94 1.78,-249.09 -223.59,0.59 -144.71,552.74 -156.57,857.57 -258.58,21.35 -645.26,56.93 -903.83,78.28l10.63 457z"/>
   <g style="clip-path:url(#id3)">
    <g>
     <path id="1" class="fil9" d="M4346.68 2925.6c275.21,-10.48 620.88,-21.19 896.09,-31.67 -1.46,-68.59 -457.1,-146.39 -962.84,-202.59 -589.3,-65.49 -1276.07,-129.5 -1764.3,-202.69l-1.52 174.69 1832.56 262.26z"/>
    </g>
   </g>
   <path class="fil1 str4" d="M4351.48 3688.93l1014.18 -140.3 33.81 -1003.47c149.45,-13.05 140.56,-244.94 1.78,-249.09 -223.59,0.59 -144.71,552.74 -156.57,857.57 -258.58,21.35 -645.26,56.93 -903.83,78.28l10.63 457z"/>
   <path class="fil8" d="M5242.78 2893.93c-269.81,28.45 -612.88,5.16 -882.69,33.61 -706.93,-116.24 -1340.6,-180.74 -2047.53,-296.98 33.81,-53.38 67.61,-106.75 101.42,-160.13 799.39,117.67 2258.51,228.51 2749.59,333.21 78.28,16.69 77.05,65.7 79.21,90.29z"/>
   <g style="clip-path:url(#id4)">
    <g>
     <path id="1" class="fil9" d="M4346.68 2925.6c275.21,-10.48 656.75,-15.62 931.96,-26.1 -0.62,-28.99 -37.26,-77.07 -177.06,-108.17 -190.93,-42.48 -529.69,-67.55 -821.65,-99.99 -589.3,-65.49 -1276.07,-129.5 -1764.3,-202.69l-1.52 174.69 1832.56 262.26z"/>
    </g>
   </g>
   <path class="fil1 str4" d="M5242.78 2893.93c-269.81,28.45 -612.88,5.16 -882.69,33.61 -706.93,-116.24 -1340.6,-180.74 -2047.53,-296.98 33.81,-53.38 67.61,-106.75 101.42,-160.13 799.39,117.67 2258.51,228.51 2749.59,333.21 78.28,16.69 77.05,65.7 79.21,90.29z"/>
   <polygon class="fil8" points="5242.78,2893.93 5244.68,3153.65 4340.85,3231.93 2326.78,2929.47 2312.55,2630.56 4341.1,2915.02 "/>
   <g style="clip-path:url(#id5)">
    <g>
     <path id="1" class="fil9" d="M4346.68 2925.6c275.21,-10.48 620.88,-21.19 896.09,-31.67 -1.46,-68.59 -457.1,-146.39 -962.84,-202.59 -589.3,-65.49 -1276.07,-129.5 -1764.3,-202.69l-1.52 174.69 1832.56 262.26z"/>
    </g>
   </g>
   <polygon class="fil1 str4" points="5242.78,2893.93 5244.68,3153.65 4340.85,3231.93 2326.78,2929.47 2312.55,2630.56 4341.1,2915.02 "/>
   <polygon class="fil8" points="4339.29,3220.72 4351.48,3688.93 1978.06,3235.49 1956.71,2886.77 "/>
   <g style="clip-path:url(#id6)">
    <g>
     <path id="1" class="fil9" d="M4346.68 2925.6c275.21,-10.48 620.88,-21.19 896.09,-31.67 -1.46,-68.59 -457.1,-146.39 -962.84,-202.59 -589.3,-65.49 -1276.07,-129.5 -1764.3,-202.69l-1.52 174.69 1832.56 262.26z"/>
    </g>
   </g>
   <polygon class="fil1 str4" points="4339.29,3220.72 4351.48,3688.93 1978.06,3235.49 1956.71,2886.77 "/>
   <path class="fil8" d="M5.48 2103.92l2270.95 -42.72c150.63,-2.83 132.59,390.21 132.59,409.58 0,19.36 -2403.54,170.77 -2403.54,170.77l0 -537.63z"/>
   <g style="clip-path:url(#id7)">
    <g>
     <g>
      <ellipse class="fil10" transform="matrix(-1.39376 -0.103206 -0.0624725 0.950892 -127 2572.42)" rx="11.64" ry="18.49"/>
      <path class="fil1 str3" d="M-86.56 2502.78c-3.62,27.22 -23.85,56.48 -45.05,69.3 -6.97,-26.26 -37.85,-64.75 -60.36,-73.84"/>
      <path class="fil1 str3" d="M-82.74 2643.1c-0.03,-27.49 -23.28,-56.69 -48.88,-71.02 -10.12,32.19 -38.95,66.92 -59.27,76.76"/>
     </g>
     <g>
      <ellipse class="fil10" transform="matrix(-1.39376 -0.103206 -0.0624725 0.950892 50.7549 2559.09)" rx="11.64" ry="18.49"/>
      <path class="fil1 str3" d="M91.2 2489.45c-3.62,27.22 -23.85,56.47 -45.05,69.3 -6.97,-26.26 -37.85,-64.75 -60.37,-73.84"/>
      <path class="fil1 str3" d="M95.02 2629.77c-0.03,-27.49 -23.28,-56.69 -48.88,-71.02 -10.12,32.19 -38.95,66.92 -59.27,76.76"/>
     </g>
     <g>
      <ellipse class="fil10" transform="matrix(-1.367 -0.101224 -0.0612728 0.932632 209.991 2548.55)" rx="11.64" ry="18.49"/>
      <path class="fil1 str3" d="M249.66 2480.24c-3.55,26.7 -23.39,55.39 -44.19,67.97 -6.84,-25.75 -37.12,-63.51 -59.21,-72.42"/>
      <path class="fil1 str3" d="M253.4 2617.87c-0.02,-26.96 -22.83,-55.6 -47.94,-69.66 -9.93,31.57 -38.2,65.63 -58.14,75.28"/>
     </g>
     <g>
      <ellipse class="fil10" transform="matrix(-1.34023 -0.0992425 -0.0600731 0.914371 369.239 2538.06)" rx="11.64" ry="18.49"/>
      <path class="fil1 str3" d="M408.13 2471.09c-3.48,26.17 -22.93,54.31 -43.32,66.64 -6.7,-25.25 -36.4,-62.27 -58.05,-71"/>
      <path class="fil1 str3" d="M411.8 2606.02c-0.02,-26.43 -22.38,-54.51 -47,-68.29 -9.74,30.95 -37.45,64.35 -57,73.81"/>
     </g>
     <g>
      <ellipse class="fil10" transform="matrix(-1.31347 -0.0972605 -0.0588734 0.89611 528.475 2527.51)" rx="11.64" ry="18.49"/>
      <path class="fil1 str3" d="M566.59 2461.88c-3.41,25.65 -22.47,53.22 -42.46,65.31 -6.57,-24.74 -35.67,-61.02 -56.89,-69.58"/>
      <path class="fil1 str3" d="M570.19 2594.12c-0.02,-25.9 -21.93,-53.43 -46.06,-66.93 -9.54,30.33 -36.7,63.06 -55.86,72.33"/>
     </g>
     <g>
      <ellipse class="fil10" transform="matrix(-1.2867 -0.0952786 -0.0576737 0.877849 687.712 2516.97)" rx="11.64" ry="18.49"/>
      <path class="fil1 str3" d="M725.05 2452.68c-3.34,25.13 -22.01,52.14 -41.59,63.98 -6.43,-24.24 -34.94,-59.78 -55.73,-68.16"/>
      <path class="fil1 str3" d="M728.58 2582.22c-0.02,-25.38 -21.49,-52.34 -45.12,-65.57 -9.35,29.72 -35.96,61.78 -54.72,70.86"/>
     </g>
     <g>
      <ellipse class="fil10" transform="matrix(-1.25993 -0.0932966 -0.0564739 0.859589 846.948 2506.43)" rx="11.64" ry="18.49"/>
      <path class="fil1 str3" d="M883.51 2443.48c-3.27,24.6 -21.56,51.05 -40.73,62.65 -6.3,-23.73 -34.21,-58.53 -54.57,-66.75"/>
      <path class="fil1 str3" d="M886.96 2570.33c-0.02,-24.85 -21.04,-51.25 -44.18,-64.2 -9.15,29.1 -35.21,60.49 -53.58,69.39"/>
     </g>
     <g>
      <ellipse class="fil10" transform="matrix(-1.23317 -0.0913147 -0.0552742 0.841328 1006.18 2495.89)" rx="11.64" ry="18.49"/>
      <path class="fil1 str3" d="M1041.97 2434.27c-3.2,24.08 -21.1,49.97 -39.86,61.32 -6.17,-23.23 -33.49,-57.29 -53.41,-65.33"/>
      <path class="fil1 str3" d="M1045.35 2558.43c-0.02,-24.32 -20.59,-50.16 -43.25,-62.84 -8.96,28.48 -34.46,59.21 -52.44,67.91"/>
     </g>
     <g>
      <ellipse class="fil10" transform="matrix(-1.2064 -0.0893327 -0.0540745 0.823067 1165.42 2485.35)" rx="11.64" ry="18.49"/>
      <path class="fil1 str3" d="M1200.42 2425.07c-3.13,23.56 -20.64,48.88 -39,59.99 -6.03,-22.73 -32.76,-56.05 -52.25,-63.91"/>
      <path class="fil1 str3" d="M1203.73 2546.53c-0.02,-23.79 -20.15,-49.07 -42.31,-61.47 -8.76,27.86 -33.71,57.92 -51.31,66.44"/>
     </g>
     <g>
      <ellipse class="fil10" transform="matrix(-1.17964 -0.0873508 -0.0528748 0.804806 1324.66 2474.81)" rx="11.64" ry="18.49"/>
      <path class="fil1 str3" d="M1358.88 2415.87c-3.06,23.04 -20.18,47.8 -38.13,58.65 -5.9,-22.22 -32.03,-54.8 -51.09,-62.49"/>
      <path class="fil1 str3" d="M1362.12 2534.63c-0.02,-23.27 -19.7,-47.98 -41.37,-60.11 -8.57,27.24 -32.97,56.64 -50.17,64.96"/>
     </g>
     <g>
      <ellipse class="fil10" transform="matrix(-1.15287 -0.0853688 -0.0516751 0.786546 1483.89 2464.27)" rx="11.64" ry="18.49"/>
      <path class="fil1 str3" d="M1517.34 2406.66c-2.99,22.51 -19.73,46.71 -37.27,57.32 -5.77,-21.72 -31.31,-53.56 -49.93,-61.07"/>
      <path class="fil1 str3" d="M1520.51 2522.73c-0.02,-22.74 -19.25,-46.89 -40.43,-58.75 -8.37,26.63 -32.22,55.35 -49.03,63.49"/>
     </g>
     <g>
      <ellipse class="fil10" transform="matrix(-1.12611 -0.0833869 -0.0504754 0.768285 1643.13 2453.73)" rx="11.64" ry="18.49"/>
      <path class="fil1 str3" d="M1675.8 2397.46c-2.92,21.99 -19.27,45.63 -36.4,55.99 -5.63,-21.22 -30.58,-52.32 -48.77,-59.66"/>
      <path class="fil1 str3" d="M1678.89 2510.83c-0.02,-22.21 -18.81,-45.8 -39.49,-57.38 -8.18,26.01 -31.47,54.07 -47.89,62.01"/>
     </g>
     <g>
      <ellipse class="fil10" transform="matrix(-1.09934 -0.0814049 -0.0492757 0.750024 1802.37 2443.19)" rx="11.64" ry="18.49"/>
      <path class="fil1 str3" d="M1834.26 2388.25c-2.86,21.47 -18.81,44.54 -35.54,54.66 -5.5,-20.71 -29.85,-51.07 -47.61,-58.24"/>
      <path class="fil1 str3" d="M1837.28 2498.94c-0.02,-21.68 -18.36,-44.72 -38.55,-56.02 -7.99,25.39 -30.72,52.78 -46.75,60.54"/>
     </g>
     <g>
      <ellipse class="fil10" transform="matrix(-1.07258 -0.079423 -0.048076 0.731764 1961.6 2432.64)" rx="11.64" ry="18.49"/>
      <path class="fil1 str3" d="M1992.72 2379.05c-2.79,20.95 -18.35,43.46 -34.67,53.33 -5.36,-20.21 -29.13,-49.83 -46.45,-56.82"/>
      <path class="fil1 str3" d="M1995.67 2487.04c-0.02,-21.15 -17.91,-43.63 -37.61,-54.66 -7.79,24.77 -29.97,51.5 -45.61,59.07"/>
     </g>
     <g>
      <ellipse class="fil10" transform="matrix(-1.04581 -0.077441 -0.0468763 0.713503 2120.84 2422.1)" rx="11.64" ry="18.49"/>
      <path class="fil1 str3" d="M2151.18 2369.85c-2.72,20.42 -17.89,42.38 -33.81,52 -5.23,-19.7 -28.4,-48.59 -45.29,-55.4"/>
      <path class="fil1 str3" d="M2154.05 2475.14c-0.02,-20.63 -17.46,-42.54 -36.67,-53.29 -7.6,24.15 -29.23,50.21 -44.48,57.59"/>
     </g>
     <g>
      <ellipse class="fil10" transform="matrix(-1.01904 -0.0754591 -0.0456766 0.695242 2280.07 2411.56)" rx="11.64" ry="18.49"/>
      <path class="fil1 str3" d="M2309.64 2360.64c-2.65,19.9 -17.43,41.29 -32.94,50.67 -5.1,-19.2 -27.67,-47.34 -44.14,-53.99"/>
      <path class="fil1 str3" d="M2312.44 2463.24c-0.02,-20.1 -17.02,-41.45 -35.74,-51.93 -7.4,23.53 -28.48,48.93 -43.34,56.12"/>
     </g>
     <g>
      <ellipse class="fil10" transform="matrix(-0.990081 -0.0733143 -0.0443783 0.675481 2407.83 2406.53)" rx="11.64" ry="18.49"/>
      <path class="fil1 str3" d="M2436.55 2357.05c-2.57,19.34 -16.94,40.12 -32,49.23 -4.95,-18.65 -26.89,-46 -42.88,-52.45"/>
      <path class="fil1 str3" d="M2439.27 2456.74c-0.02,-19.53 -16.53,-40.27 -34.72,-50.45 -7.19,22.87 -27.67,47.54 -42.11,54.52"/>
     </g>
     <g>
      <ellipse class="fil10" transform="matrix(-0.961624 -0.0712071 -0.0431028 0.656067 2535.58 2401.58)" rx="11.64" ry="18.49"/>
      <path class="fil1 str3" d="M2563.48 2353.52c-2.5,18.78 -16.45,38.97 -31.08,47.82 -4.81,-18.12 -26.12,-44.68 -41.65,-50.94"/>
      <path class="fil1 str3" d="M2566.12 2450.34c-0.02,-18.96 -16.06,-39.11 -33.72,-49 -6.98,22.21 -26.87,46.17 -40.9,52.96"/>
     </g>
     <g>
      <ellipse class="fil10" transform="matrix(-1.39552 -0.0697577 -0.0373658 0.952449 -54.2415 2382.99)" rx="11.64" ry="18.49"/>
      <path class="fil1 str3" d="M-15.67 2312.37c-2.9,27.31 -22.34,57.05 -43.2,70.39 -7.66,-26.09 -39.53,-63.85 -62.27,-72.39"/>
      <path class="fil1 str3" d="M-8.15 2452.61c-0.75,-27.49 -24.75,-56.14 -50.71,-69.85 -9.27,32.43 -37.16,67.86 -57.21,78.18"/>
     </g>
     <g>
      <ellipse class="fil10" transform="matrix(-1.39552 -0.0697577 -0.0373658 0.952449 123.513 2369.66)" rx="11.64" ry="18.49"/>
      <path class="fil1 str3" d="M162.09 2299.04c-2.9,27.31 -22.34,57.05 -43.2,70.39 -7.66,-26.09 -39.53,-63.85 -62.27,-72.39"/>
      <path class="fil1 str3" d="M169.61 2439.28c-0.75,-27.49 -24.75,-56.14 -50.71,-69.85 -9.27,32.43 -37.16,67.86 -57.21,78.18"/>
     </g>
     <g>
      <ellipse class="fil10" transform="matrix(-1.36872 -0.0684181 -0.0366483 0.934159 282.689 2362.74)" rx="11.64" ry="18.49"/>
      <path class="fil1 str3" d="M320.52 2293.48c-2.84,26.78 -21.91,55.95 -42.37,69.04 -7.51,-25.59 -38.77,-62.62 -61.07,-71"/>
      <path class="fil1 str3" d="M327.9 2431.03c-0.74,-26.96 -24.28,-55.06 -49.74,-68.51 -9.09,31.81 -36.44,66.55 -56.11,76.68"/>
     </g>
     <g>
      <ellipse class="fil10" transform="matrix(-1.34192 -0.0670785 -0.0359307 0.915868 441.875 2355.88)" rx="11.64" ry="18.49"/>
      <path class="fil1 str3" d="M478.97 2287.97c-2.79,26.26 -21.48,54.86 -41.54,67.68 -7.36,-25.09 -38.01,-61.4 -59.88,-69.61"/>
      <path class="fil1 str3" d="M486.2 2422.83c-0.72,-26.43 -23.8,-53.98 -48.77,-67.17 -8.91,31.19 -35.73,65.25 -55.01,75.18"/>
     </g>
     <g>
      <ellipse class="fil10" transform="matrix(-1.31512 -0.0657389 -0.0352131 0.897577 601.05 2348.96)" rx="11.64" ry="18.49"/>
      <path class="fil1 str3" d="M637.4 2282.41c-2.73,25.73 -21.05,53.76 -40.71,66.33 -7.22,-24.59 -37.25,-60.17 -58.68,-68.22"/>
      <path class="fil1 str3" d="M644.49 2414.57c-0.71,-25.91 -23.33,-52.9 -47.79,-65.83 -8.73,30.56 -35.02,63.95 -53.92,73.68"/>
     </g>
     <g>
      <ellipse class="fil10" transform="matrix(-1.28832 -0.0643993 -0.0344956 0.879287 760.226 2342.05)" rx="11.64" ry="18.49"/>
      <path class="fil1 str3" d="M795.84 2276.85c-2.68,25.21 -20.62,52.67 -39.88,64.98 -7.07,-24.09 -36.49,-58.94 -57.49,-66.83"/>
      <path class="fil1 str3" d="M802.78 2406.32c-0.69,-25.38 -22.85,-51.83 -46.82,-64.49 -8.56,29.94 -34.3,62.64 -52.82,72.18"/>
     </g>
     <g>
      <ellipse class="fil10" transform="matrix(-1.26152 -0.0630597 -0.033778 0.860996 919.401 2335.13)" rx="11.64" ry="18.49"/>
      <path class="fil1 str3" d="M954.27 2271.3c-2.62,24.68 -20.2,51.57 -39.05,63.63 -6.92,-23.58 -35.74,-57.72 -56.29,-65.44"/>
      <path class="fil1 str3" d="M961.07 2398.07c-0.68,-24.85 -22.38,-50.75 -45.85,-63.15 -8.38,29.32 -33.59,61.34 -51.72,70.68"/>
     </g>
     <g>
      <ellipse class="fil10" transform="matrix(-1.23472 -0.0617201 -0.0330604 0.842705 1078.58 2328.22)" rx="11.64" ry="18.49"/>
      <path class="fil1 str3" d="M1112.71 2265.74c-2.57,24.16 -19.77,50.48 -38.22,62.28 -6.78,-23.08 -34.98,-56.49 -55.09,-64.05"/>
      <path class="fil1 str3" d="M1119.36 2389.82c-0.66,-24.32 -21.9,-49.67 -44.87,-61.8 -8.2,28.7 -32.88,60.04 -50.62,69.17"/>
     </g>
     <g>
      <ellipse class="fil10" transform="matrix(-1.20792 -0.0603805 -0.0323429 0.824415 1237.75 2321.3)" rx="11.64" ry="18.49"/>
      <path class="fil1 str3" d="M1271.14 2260.18c-2.51,23.64 -19.34,49.38 -37.39,60.93 -6.63,-22.58 -34.22,-55.27 -53.9,-62.66"/>
      <path class="fil1 str3" d="M1277.65 2381.57c-0.65,-23.79 -21.42,-48.59 -43.9,-60.46 -8.02,28.07 -32.16,58.73 -49.52,67.67"/>
     </g>
     <g>
      <ellipse class="fil10" transform="matrix(-1.18112 -0.0590408 -0.0316253 0.806124 1396.93 2314.39)" rx="11.64" ry="18.49"/>
      <path class="fil1 str3" d="M1429.58 2254.62c-2.46,23.11 -18.91,48.29 -36.56,59.57 -6.48,-22.08 -33.46,-54.04 -52.7,-61.27"/>
      <path class="fil1 str3" d="M1435.94 2373.32c-0.63,-23.27 -20.95,-47.51 -42.92,-59.12 -7.84,27.45 -31.45,57.43 -48.42,66.17"/>
     </g>
     <g>
      <ellipse class="fil10" transform="matrix(-1.15432 -0.0577012 -0.0309077 0.787834 1556.1 2307.48)" rx="11.64" ry="18.49"/>
      <path class="fil1 str3" d="M1588.01 2249.06c-2.4,22.59 -18.48,47.19 -35.73,58.22 -6.33,-21.58 -32.7,-52.81 -51.51,-59.88"/>
      <path class="fil1 str3" d="M1594.23 2365.07c-0.62,-22.74 -20.47,-46.43 -41.95,-57.78 -7.67,26.83 -30.74,56.13 -47.32,64.67"/>
     </g>
     <g>
      <ellipse class="fil10" transform="matrix(-1.12752 -0.0563616 -0.0301902 0.769543 1715.28 2300.56)" rx="11.64" ry="18.49"/>
      <path class="fil1 str3" d="M1746.45 2243.5c-2.34,22.06 -18.05,46.1 -34.9,56.87 -6.19,-21.08 -31.94,-51.59 -50.31,-58.49"/>
      <path class="fil1 str3" d="M1752.52 2356.81c-0.61,-22.21 -20,-45.36 -40.98,-56.44 -7.49,26.2 -30.02,54.83 -46.22,63.17"/>
     </g>
     <g>
      <ellipse class="fil10" transform="matrix(-1.10073 -0.055022 -0.0294726 0.751252 1874.45 2293.65)" rx="11.64" ry="18.49"/>
      <path class="fil1 str3" d="M1904.88 2237.95c-2.29,21.54 -17.62,45 -34.07,55.52 -6.04,-20.58 -31.18,-50.36 -49.11,-57.1"/>
      <path class="fil1 str3" d="M1910.81 2348.56c-0.59,-21.68 -19.52,-44.28 -40,-55.1 -7.31,25.58 -29.31,53.52 -45.12,61.67"/>
     </g>
     <g>
      <ellipse class="fil10" transform="matrix(-1.07393 -0.0536824 -0.028755 0.732962 2033.63 2286.73)" rx="11.64" ry="18.49"/>
      <path class="fil1 str3" d="M2063.31 2232.39c-2.23,21.01 -17.19,43.9 -33.24,54.17 -5.89,-20.08 -30.42,-49.13 -47.92,-55.71"/>
      <path class="fil1 str3" d="M2069.1 2340.31c-0.58,-21.16 -19.05,-43.2 -39.03,-53.76 -7.13,24.96 -28.59,52.22 -44.03,60.17"/>
     </g>
     <g>
      <ellipse class="fil10" transform="matrix(-1.04713 -0.0523428 -0.0280375 0.714671 2192.8 2279.82)" rx="11.64" ry="18.49"/>
      <path class="fil1 str3" d="M2221.75 2226.83c-2.18,20.49 -16.76,42.81 -32.41,52.82 -5.75,-19.58 -29.66,-47.91 -46.72,-54.32"/>
      <path class="fil1 str3" d="M2227.39 2332.06c-0.56,-20.63 -18.57,-42.12 -38.05,-52.42 -6.95,24.34 -27.88,50.92 -42.93,58.67"/>
     </g>
     <g>
      <ellipse class="fil10" transform="matrix(-1.02033 -0.0510032 -0.0273199 0.69638 2351.98 2272.9)" rx="11.64" ry="18.49"/>
      <path class="fil1 str3" d="M2380.18 2221.27c-2.12,19.96 -16.33,41.71 -31.58,51.46 -5.6,-19.08 -28.9,-46.68 -45.53,-52.93"/>
      <path class="fil1 str3" d="M2385.68 2323.81c-0.55,-20.1 -18.1,-41.04 -37.08,-51.07 -6.78,23.71 -27.17,49.61 -41.83,57.16"/>
     </g>
     <g>
      <ellipse class="fil10" transform="matrix(-0.991327 -0.0495535 -0.0265434 0.676587 2479.66 2271.79)" rx="11.64" ry="18.49"/>
      <path class="fil1 str3" d="M2507.07 2221.63c-2.06,19.4 -15.87,40.53 -30.68,50 -5.44,-18.53 -28.08,-45.36 -44.23,-51.42"/>
      <path class="fil1 str3" d="M2512.41 2321.25c-0.53,-19.53 -17.58,-39.88 -36.03,-49.62 -6.59,23.04 -26.4,48.2 -40.64,55.54"/>
     </g>
     <g>
      <ellipse class="fil10" transform="matrix(-0.962834 -0.0481293 -0.0257805 0.657141 2607.35 2270.7)" rx="11.64" ry="18.49"/>
      <path class="fil1 str3" d="M2633.97 2221.97c-2,18.84 -15.41,39.36 -29.8,48.56 -5.28,-18 -27.27,-44.05 -42.96,-49.95"/>
      <path class="fil1 str3" d="M2639.16 2318.73c-0.52,-18.97 -17.08,-38.73 -34.99,-48.19 -6.39,22.38 -25.64,46.82 -39.47,53.94"/>
     </g>
     <g>
      <g>
       <ellipse class="fil10" transform="matrix(-1.39544 0.031799 0.0388051 0.953485 -160.514 2189.04)" rx="11.64" ry="18.49"/>
       <path class="fil1 str3" d="M-127.73 2115.74c-0.71,27.47 -17.7,58.57 -37.4,73.4 -9.71,-25.49 -44.47,-60.86 -67.8,-67.74"/>
       <path class="fil1 str3" d="M-109.05 2255.19c-2.94,-27.39 -29.13,-54.24 -56.08,-66.04 -6.64,33.05 -31.59,70.44 -50.74,82.2"/>
      </g>
      <g>
       <ellipse class="fil10" transform="matrix(-1.39621 -0.0468388 -0.0201682 0.953167 31.0617 2179.41)" rx="11.64" ry="18.49"/>
       <path class="fil1 str3" d="M68.35 2108.15c-2.41,27.36 -21.3,57.42 -41.91,71.11 -8.13,-25.97 -40.67,-63.21 -63.55,-71.38"/>
       <path class="fil1 str3" d="M78.4 2248.28c-1.25,-27.48 -25.76,-55.74 -51.96,-69.03 -8.68,32.59 -35.92,68.47 -55.78,79.13"/>
      </g>
      <g>
       <ellipse class="fil10" transform="matrix(-1.3694 -0.0459393 -0.0197809 0.934863 190.47 2175.95)" rx="11.64" ry="18.49"/>
       <path class="fil1 str3" d="M227.04 2106.06c-2.36,26.83 -20.89,56.32 -41.1,69.74 -7.97,-25.47 -39.89,-61.99 -62.33,-70.01"/>
       <path class="fil1 str3" d="M236.89 2243.5c-1.22,-26.95 -25.26,-54.67 -50.96,-67.7 -8.51,31.96 -35.23,67.16 -54.71,77.61"/>
      </g>
      <g>
       <ellipse class="fil10" transform="matrix(-1.34258 -0.0450398 -0.0193936 0.916559 349.89 2172.53)" rx="11.64" ry="18.49"/>
       <path class="fil1 str3" d="M385.74 2104.01c-2.31,26.31 -20.48,55.22 -40.3,68.37 -7.81,-24.97 -39.1,-60.78 -61.11,-68.63"/>
       <path class="fil1 str3" d="M395.41 2238.76c-1.2,-26.42 -24.77,-53.6 -49.96,-66.38 -8.35,31.34 -34.54,65.84 -53.63,76.09"/>
      </g>
      <g>
       <ellipse class="fil10" transform="matrix(-1.31577 -0.0441404 -0.0190063 0.898254 509.298 2169.07)" rx="11.64" ry="18.49"/>
       <path class="fil1 str3" d="M544.44 2101.91c-2.27,25.78 -20.07,54.12 -39.49,67.01 -7.66,-24.47 -38.32,-59.56 -59.89,-67.26"/>
       <path class="fil1 str3" d="M553.9 2233.97c-1.17,-25.9 -24.27,-52.53 -48.96,-65.05 -8.18,30.71 -33.85,64.53 -52.56,74.57"/>
      </g>
      <g>
       <ellipse class="fil10" transform="matrix(-1.28896 -0.0432409 -0.018619 0.87995 668.707 2165.6)" rx="11.64" ry="18.49"/>
       <path class="fil1 str3" d="M703.13 2099.82c-2.22,25.26 -19.67,53.01 -38.69,65.64 -7.5,-23.97 -37.54,-58.35 -58.67,-65.89"/>
       <path class="fil1 str3" d="M712.4 2229.19c-1.15,-25.37 -23.78,-51.45 -47.96,-63.73 -8.01,30.09 -33.16,63.21 -51.49,73.05"/>
      </g>
      <g>
       <ellipse class="fil10" transform="matrix(-1.26215 -0.0423414 -0.0182317 0.861645 828.115 2162.14)" rx="11.64" ry="18.49"/>
       <path class="fil1 str3" d="M861.82 2097.72c-2.18,24.73 -19.26,51.91 -37.88,64.28 -7.34,-23.47 -36.76,-57.14 -57.45,-64.52"/>
       <path class="fil1 str3" d="M870.9 2224.4c-1.13,-24.84 -23.28,-50.38 -46.97,-62.4 -7.85,29.46 -32.47,61.9 -50.42,71.53"/>
      </g>
      <g>
       <ellipse class="fil10" transform="matrix(-1.23533 -0.0414419 -0.0178444 0.843341 987.523 2158.68)" rx="11.64" ry="18.49"/>
       <path class="fil1 str3" d="M1020.51 2095.63c-2.13,24.21 -18.85,50.81 -37.08,62.91 -7.19,-22.98 -35.98,-55.92 -56.23,-63.15"/>
       <path class="fil1 str3" d="M1029.4 2219.61c-1.1,-24.31 -22.79,-49.31 -45.97,-61.07 -7.68,28.83 -31.78,60.58 -49.35,70.01"/>
      </g>
      <g>
       <ellipse class="fil10" transform="matrix(-1.20852 -0.0405424 -0.0174571 0.825037 1146.93 2155.21)" rx="11.64" ry="18.49"/>
       <path class="fil1 str3" d="M1179.21 2093.53c-2.08,23.68 -18.44,49.7 -36.27,61.55 -7.03,-22.48 -35.2,-54.71 -55.01,-61.78"/>
       <path class="fil1 str3" d="M1187.9 2214.83c-1.08,-23.79 -22.29,-48.24 -44.97,-59.75 -7.51,28.21 -31.09,59.27 -48.28,68.49"/>
      </g>
      <g>
       <ellipse class="fil10" transform="matrix(-1.18171 -0.0396429 -0.0170698 0.806732 1306.34 2151.75)" rx="11.64" ry="18.49"/>
       <path class="fil1 str3" d="M1337.9 2091.44c-2.04,23.15 -18.03,48.6 -35.47,60.18 -6.88,-21.98 -34.42,-53.49 -53.79,-60.41"/>
       <path class="fil1 str3" d="M1346.4 2210.04c-1.05,-23.26 -21.8,-47.17 -43.97,-58.42 -7.35,27.58 -30.4,57.95 -47.21,66.97"/>
      </g>
      <g>
       <ellipse class="fil10" transform="matrix(-1.1549 -0.0387435 -0.0166825 0.788428 1465.75 2148.29)" rx="11.64" ry="18.49"/>
       <path class="fil1 str3" d="M1496.59 2089.34c-1.99,22.63 -17.62,47.5 -34.66,58.82 -6.72,-21.48 -33.64,-52.28 -52.57,-59.04"/>
       <path class="fil1 str3" d="M1504.9 2205.26c-1.03,-22.73 -21.3,-46.1 -42.98,-57.1 -7.18,26.96 -29.71,56.64 -46.14,65.45"/>
      </g>
      <g>
       <ellipse class="fil10" transform="matrix(-1.12808 -0.037844 -0.0162952 0.770123 1625.16 2144.82)" rx="11.64" ry="18.49"/>
       <path class="fil1 str3" d="M1655.28 2087.25c-1.94,22.1 -17.21,46.4 -33.86,57.45 -6.56,-20.98 -32.86,-51.07 -51.35,-57.67"/>
       <path class="fil1 str3" d="M1663.4 2200.47c-1.01,-22.2 -20.81,-45.03 -41.98,-55.77 -7.01,26.33 -29.02,55.32 -45.07,63.94"/>
      </g>
      <g>
       <ellipse class="fil10" transform="matrix(-1.10127 -0.0369445 -0.0159079 0.751819 1784.57 2141.36)" rx="11.64" ry="18.49"/>
       <path class="fil1 str3" d="M1813.98 2085.15c-1.9,21.58 -16.8,45.29 -33.06,56.08 -6.41,-20.48 -32.08,-49.85 -50.13,-56.3"/>
       <path class="fil1 str3" d="M1821.9 2195.68c-0.98,-21.67 -20.32,-43.96 -40.98,-54.45 -6.85,25.7 -28.33,54.01 -43.99,62.42"/>
      </g>
      <g>
       <ellipse class="fil10" transform="matrix(-1.07446 -0.036045 -0.0155206 0.733514 1943.97 2137.89)" rx="11.64" ry="18.49"/>
       <path class="fil1 str3" d="M1972.67 2083.06c-1.85,21.05 -16.39,44.19 -32.25,54.72 -6.25,-19.98 -31.3,-48.64 -48.91,-54.93"/>
       <path class="fil1 str3" d="M1980.4 2190.9c-0.96,-21.15 -19.82,-42.89 -39.98,-53.12 -6.68,25.08 -27.64,52.69 -42.92,60.9"/>
      </g>
      <g>
       <ellipse class="fil10" transform="matrix(-1.04765 -0.0351455 -0.0151333 0.71521 2103.38 2134.43)" rx="11.64" ry="18.49"/>
       <path class="fil1 str3" d="M2131.36 2080.96c-1.81,20.53 -15.99,43.09 -31.45,53.35 -6.1,-19.48 -30.51,-47.43 -47.68,-53.56"/>
       <path class="fil1 str3" d="M2138.9 2186.11c-0.94,-20.62 -19.33,-41.82 -38.98,-51.8 -6.51,24.45 -26.95,51.38 -41.85,59.38"/>
      </g>
      <g>
       <ellipse class="fil10" transform="matrix(-1.02083 -0.0342461 -0.014746 0.696906 2262.79 2130.97)" rx="11.64" ry="18.49"/>
       <path class="fil1 str3" d="M2290.05 2078.87c-1.76,20 -15.58,41.98 -30.64,51.99 -5.94,-18.99 -29.73,-46.21 -46.46,-52.19"/>
       <path class="fil1 str3" d="M2297.4 2181.32c-0.91,-20.09 -18.83,-40.75 -37.99,-50.47 -6.35,23.83 -26.26,50.06 -40.78,57.86"/>
      </g>
      <g>
       <ellipse class="fil10" transform="matrix(-0.991818 -0.0332727 -0.0143268 0.677098 2390.73 2133.59)" rx="11.64" ry="18.49"/>
       <path class="fil1 str3" d="M2417.22 2082.97c-1.71,19.43 -15.13,40.79 -29.77,50.51 -5.77,-18.45 -28.89,-44.9 -45.14,-50.7"/>
       <path class="fil1 str3" d="M2424.35 2182.52c-0.89,-19.52 -18.3,-39.59 -36.91,-49.03 -6.17,23.15 -25.52,48.64 -39.62,56.21"/>
      </g>
      <g>
       <ellipse class="fil10" transform="matrix(-0.963312 -0.0323164 -0.0139151 0.657636 2518.66 2136.16)" rx="11.64" ry="18.49"/>
       <path class="fil1 str3" d="M2544.39 2087c-1.66,18.88 -14.7,39.62 -28.91,49.06 -5.61,-17.92 -28.06,-43.61 -43.85,-49.25"/>
       <path class="fil1 str3" d="M2551.32 2183.68c-0.86,-18.96 -17.77,-38.46 -35.85,-47.63 -5.99,22.49 -24.78,47.24 -38.48,54.6"/>
      </g>
     </g>
    </g>
   </g>
   <path class="fil1 str4" d="M5.48 2103.92l2270.95 -42.72c150.63,-2.83 132.59,390.21 132.59,409.58 0,19.36 -2403.54,170.77 -2403.54,170.77l0 -537.63z"/>
   <polygon class="fil8 str4" points="5.48,2641.55 2413.97,2470.43 2409.01,2674.16 5.48,2884.3 "/>
   <polygon class="fil11 str4" points="5.48,2884.3 2496.51,2659.95 2485.11,2953.25 5.48,3189.58 "/>
   <polygon class="fil11 str4" points="5.48,3189.58 5.48,3612.68 2400.21,3316.15 2414.03,2942.58 "/>
   <polygon class="fil12 str4" points="4339.51,3220.75 4351.48,3688.93 2400.21,3316.15 2414.03,2942.58 "/>
   <polygon class="fil12 str4" points="4341.1,2915.02 4339.51,3220.75 2414.03,2942.58 2411.01,2652.19 "/>
   <polygon class="fil13 str5" points="1857.59,3582.87 1863.32,3562.48 2654.67,3469 3670.98,3790.21 3663.87,3813.35 2816.97,3962.8 "/>
   <polygon class="fil13 str5" points="1863.32,3562.48 2660.4,3448.61 3670.98,3790.21 2824.08,3939.66 "/>
   <rect class="fil14 str6" x="2809.95" y="2375.29" width="234.76" height="1272.58"/>
   <rect class="fil14 str6" x="2409.01" y="2319.22" width="201.57" height="1214.79"/>
   <polygon class="fil15" points="341.2,2246.26 1593.75,2402.83 3956.52,2310.31 2362.36,2217.8 "/>
   <g>
    <polygon class="fil13 str5" points="641.49,3736.28 647.22,3715.88 1438.57,3622.41 2454.88,3943.62 2447.76,3966.76 1600.87,4116.21 "/>
    <polygon class="fil13 str5" points="647.22,3715.88 1444.3,3602.02 2454.88,3943.62 1607.98,4093.07 "/>
   </g>
   <polygon class="fil14 str7" points="1593.84,2528.7 1828.61,2517.87 1828.6,3801.29 1593.84,3801.29 "/>
   <rect class="fil14 str6" x="1192.91" y="2472.63" width="201.57" height="1214.79"/>
   <polygon class="fil16" points="341.2,2246.26 337.64,2353.01 1593.84,2528.7 1593.75,2402.83 "/>
   <polygon class="fil17" points="3954.6,2313.14 3951.04,2419.89 1593.84,2528.7 1593.75,2402.83 "/>
   <rect class="fil8 str4" transform="matrix(1.29894 0.0605029 -0 1.29894 3408.53 1726.96)" width="1046.75" height="262.66" rx="95.77" ry="95.77"/>
   <ellipse class="fil8 str4" transform="matrix(1.29894 0.0605029 -0 1.29894 4682.68 1957.15)" rx="74.15" ry="131.53"/>
   <path class="fil8 str4" d="M1462.52 1752.64l745.69 18.74c61,1.53 110.95,49.64 110.95,110.66l0 71.53c0,61.02 -49.94,110.45 -110.95,111.25l-745.69 9.73c-61.01,0.79 -110.95,-49.64 -110.95,-110.66l0 -100c0,-61.02 49.95,-112.78 110.95,-111.25z"/>
   <path class="fil8 str4" d="M242.79 1771.8l745.69 18.74c61,1.53 110.95,49.64 110.95,110.66l0 71.53c0,61.02 -49.94,110.45 -110.95,111.25l-745.69 9.73c-61.01,0.79 -110.95,-49.64 -110.95,-110.66l0 -100c0,-61.02 49.95,-112.78 110.95,-111.25z"/>
   <ellipse class="fil8 str4" transform="matrix(1.29894 0.0569658 -0 1.223 1434.29 1917.7)" rx="74.15" ry="131.53"/>
   <ellipse class="fil8 str4" transform="matrix(1.29894 0.0569658 -0 1.223 214.563 1936.87)" rx="74.15" ry="131.53"/>
   <polygon class="fil4" points="6419.9,1622.97 4258.82,1622.97 4258.82,4171.87 6419.9,3835.93 "/>
   <rect class="fil2 str8" x="4258.82" y="1499.69" width="2161.08" height="123.28"/>
   <ellipse class="fil18 str9" cx="4258.82" cy="1561.33" rx="33.21" ry="61.64"/>
  </g>
 </g>
</svg>
