<?xml version="1.0" encoding="UTF-8"?>
<!DOCTYPE svg PUBLIC "-//W3C//DTD SVG 1.1//EN" "http://www.w3.org/Graphics/SVG/1.1/DTD/svg11.dtd">
<!-- Creator: CorelDRAW 2018 (64-Bit) -->
<svg xmlns="http://www.w3.org/2000/svg" xml:space="preserve" width="163.273mm" height="186.717mm" version="1.1" style="shape-rendering:geometricPrecision; text-rendering:geometricPrecision; image-rendering:optimizeQuality; fill-rule:evenodd; clip-rule:evenodd"
viewBox="0 0 2121.03 2425.59"
 xmlns:xlink="http://www.w3.org/1999/xlink">
 <defs>
  <style type="text/css">
   <![CDATA[
    .fil0 {fill:black}
   ]]>
  </style>
 </defs>
 <g id="Слой_x0020_1">
  <metadata id="CorelCorpID_0Corel-Layer"/>
  <path class="fil0" d="M786.01 808.7c-27.61,37.84 -44,82.88 -43.95,130.86 -0.05,37.7 10.12,73.71 27.85,105.68 26.73,48.07 70.11,87.22 123.14,114.52 53.06,27.31 116.16,42.86 183.65,42.88 90.05,-0.05 172.17,-27.61 233.28,-74.04 30.47,-23.27 55.79,-51.37 73.52,-83.4 17.79,-31.97 27.96,-67.98 27.91,-105.68 0.05,-47.69 -16.2,-92.54 -43.49,-130.21 -27.28,-37.78 -65.42,-68.86 -110.46,-91.5 -16.83,-8.48 -37.29,-1.72 -45.78,15.14 -8.48,16.8 -1.72,37.32 15.14,45.78l0 0c36.45,18.33 65.86,42.91 85.8,70.55 19.91,27.72 30.53,58.03 30.58,90.3 0,25.56 -6.71,49.76 -19.34,72.59 -18.91,34.16 -51.72,64.93 -94.69,86.97 -42.88,22.1 -95.48,35.36 -152.5,35.33 -75.98,0.05 -144.18,-23.65 -191.86,-60.1 -23.87,-18.2 -42.64,-39.42 -55.24,-62.2 -12.69,-22.83 -19.34,-47.06 -19.34,-72.59 0,-32.41 10.78,-62.94 30.91,-90.73 20.13,-27.77 49.92,-52.41 86.75,-70.68 16.83,-8.38 23.71,-28.86 15.36,-45.72 -8.43,-16.86 -28.89,-23.73 -45.72,-15.36 -45.45,22.56 -83.91,53.69 -111.52,91.61z"/>
  <circle class="fil0" cx="1346.81" cy="598.51" r="57.26"/>
  <circle class="fil0" cx="1077.47" cy="720.62" r="95.48"/>
  <circle class="fil0" cx="774.19" cy="598.51" r="57.26"/>
  <path class="fil0" d="M1752.66 1991.29c-21.69,-6.38 -44.44,6 -50.82,27.69 -17,57.75 -57.92,106.2 -111.8,132.69 -20.3,9.98 -28.62,34.54 -18.66,54.81 10.01,20.27 34.54,28.62 54.83,18.63 74.45,-36.69 130.54,-103.07 154.13,-183 6.36,-21.69 -6,-44.41 -27.69,-50.82z"/>
  <path class="fil0" d="M1996.33 1283.9l-239.39 -157.95c46.51,-43.24 86.1,-91.25 116.73,-143.5 45.72,-77.8 71.72,-165.1 71.67,-256.63 0.05,-88.53 -24.42,-172.93 -67.3,-248.74 4.2,-7.01 8.38,-14.05 12.09,-21.52l-0.05 0.14c24.93,-49.49 36.97,-102.3 36.97,-153.78 -0.05,-55.84 -14.13,-110.24 -41.25,-157.63 -27.12,-47.3 -67.66,-87.6 -119.19,-113.65 -40.87,-20.76 -84.98,-30.64 -128.52,-30.64 -95.37,0.14 -187.66,46.49 -249.62,125.84 -97.45,-27.72 -203.1,-42.99 -313.67,-42.99 -116.21,0 -227.14,16.78 -328.76,47.28 -61.95,-81.98 -155.8,-129.99 -252.89,-130.13 -43.49,-0.03 -87.6,9.85 -128.52,30.61 -51.48,26.05 -92.02,66.35 -119.13,113.68 -27.12,47.36 -41.19,101.76 -41.19,157.6 0,51.48 11.98,104.24 36.94,153.78 6.6,13.09 14.02,25.43 21.91,37.05 -37.57,71.69 -58.87,150.59 -58.82,233.08 -0.05,91.53 25.94,178.85 71.61,256.63 28.4,48.34 64.57,92.89 106.61,133.57l-257.83 170.15c-80.18,52.98 -124.67,140.39 -124.73,228.99 0,48.64 13.59,98.07 42.2,141.34 24.93,37.78 58.71,67.03 96.65,86.51 24.66,12.66 51.15,20.84 78.32,25.34 -44.88,66.84 -70.11,147.81 -70.11,233.22 0,31.62 3.41,63.89 10.61,96.16l0 0c21.36,96.05 72.46,177.79 140.82,235.68 68.26,57.86 154.41,92.21 245.14,92.21 25.89,0 52.05,-2.81 78.16,-8.59 89.23,-19.78 163.96,-71.86 215.32,-141.34 21.58,-29.08 38.9,-61.35 52.11,-95.65 55.3,12.3 113.32,18.99 173.23,19.01 58.54,-0.03 115.31,-6.57 169.55,-18.47 13.15,34.07 30.42,66.18 51.83,95.1 51.42,69.46 126.12,121.53 215.32,141.31 26.11,5.81 52.32,8.59 78.16,8.59 90.79,0 176.89,-34.35 245.2,-92.21 68.36,-57.89 119.46,-139.68 140.77,-235.73 0,0 10.61,-64.46 10.61,-96.14 0,-86.26 -25.78,-168.02 -71.5,-235.21 27.66,-4.45 54.67,-12.74 79.71,-25.59 38,-19.48 71.77,-48.7 96.71,-86.53 28.56,-43.27 42.2,-92.64 42.2,-141.34 -0.08,-88.53 -44.52,-175.9 -124.7,-228.91zm-1626.24 -356.64c-36.88,-62.99 -56.58,-130.48 -56.63,-201.44 0.05,-73.71 21.47,-143.71 61.33,-208.91l20.62 -33.64c0,0 -48.18,-59.8 -56.69,-76.69 -17.27,-34.24 -25.26,-70.11 -25.26,-104.68 -0.05,-37.48 9.49,-73.28 26.73,-103.34 17.32,-30.09 41.98,-54.45 73.79,-70.6 25.32,-12.82 52,-18.8 79.17,-18.82 69.16,-0.16 141.78,40.35 182.81,112.56l22.42 39.31 42.78 -14.76c100.5,-34.67 213.72,-54.29 333.61,-54.29 114.14,0 222.15,17.9 319.05,49.54l41.47 13.53 22.32 -37.48c41.41,-69.62 112.59,-108.6 180.46,-108.47 27.17,0.03 53.93,6.06 79.22,18.85 31.81,16.15 56.47,40.51 73.79,70.6 17.27,30.09 26.79,65.86 26.79,103.34 0,34.56 -8.05,70.44 -25.32,104.65l-0.05 0.14c-6.44,12.85 -45.67,66.89 -45.67,66.89l20.9 32.08c44.39,68.23 68.36,142.21 68.42,220.15 -0.05,70.96 -19.78,138.42 -56.63,201.44 -55.19,94.34 -150.15,177.9 -272.48,237.42 -122.19,59.58 -271.25,94.99 -432.29,94.96 -214.67,0.11 -408.09,-63.1 -545.04,-162.02 -68.45,-49.35 -122.73,-107.43 -159.62,-170.34zm-236.82 669.14c-16.31,-24.8 -24.09,-52.6 -24.14,-81.21 0,-52.13 26.54,-105.52 75.7,-137.93l285.6 -188.48c34.78,24.77 72.16,47.36 111.9,67.49 -56.06,47.77 -102.63,103.91 -135.45,167.04 -29.84,57.4 -48.42,120.39 -53.17,186.35l-38.74 25.56c-29,19.12 -61.38,28.13 -93.08,28.15 -25.78,0 -51.04,-6.06 -73.17,-17.43 -22.12,-11.38 -41.14,-27.91 -55.46,-49.54zm616.21 614.3c-37.29,50.17 -89.1,85.91 -151.32,99.79 -18.28,4.04 -36.5,6 -54.51,6 -62.94,0 -124.43,-23.84 -174.65,-66.37 -50.2,-42.53 -88.61,-103.31 -104.81,-176.1 0,0 -7.99,-48.72 -7.99,-72.46 -0.05,-68.88 21.85,-133.32 59.03,-183.43 37.29,-50.17 89.1,-85.91 151.32,-99.79 18.28,-4.04 36.45,-6 54.51,-6 62.99,-0.03 124.43,23.84 174.65,66.37 50.2,42.5 88.61,103.31 104.81,176.1l0 -0.03c5.43,24.44 7.99,48.75 7.99,72.46 0,68.91 -21.85,133.32 -59.03,183.46zm312.96 -120.77c-51.31,0.03 -100.64,-5.92 -147.59,-16.31 1.66,-15.3 2.78,-30.75 2.78,-46.38 0,-31.65 -3.46,-63.86 -10.61,-96.05l0 -0.03c-21.36,-96.05 -72.4,-177.87 -140.77,-235.73 -68.31,-57.86 -154.46,-92.21 -245.2,-92.21 -5.7,0 -11.46,0.65 -17.16,0.93 5.07,-45.69 18.5,-89.43 39.8,-130.54 33.42,-64.44 86.32,-122.19 153.4,-168.18 114.55,40.62 242.55,63.32 377.73,63.35 128.52,-0.05 250.6,-20.54 360.84,-57.48 9.33,6.63 18.85,13.09 27.61,20.21 50.47,41.06 90.57,89.4 117.96,142.1 21.36,41.17 34.78,84.98 39.8,130.76 -7.04,-0.41 -14.08,-1.15 -21.03,-1.15 -90.73,0 -176.89,34.35 -245.2,92.21 -68.36,57.89 -119.41,139.65 -140.77,235.73 -7.2,32.25 -10.61,64.49 -10.61,96.11 0,15.99 1.17,31.75 2.86,47.36 -45.86,9.82 -93.98,15.33 -143.85,15.3zm689.6 160.19c-50.25,42.53 -111.74,66.37 -174.7,66.37 -18.01,0 -36.23,-1.94 -54.45,-6 -62.23,-13.89 -114.03,-49.62 -151.32,-99.79 -37.18,-50.11 -59.09,-114.52 -59.03,-183.43 0,-23.73 2.56,-48.01 7.99,-72.4 16.2,-72.84 54.62,-133.65 104.81,-176.15 50.25,-42.56 111.69,-66.4 174.65,-66.37 18.01,0 36.23,1.94 54.51,6 62.17,13.89 114.03,49.6 151.32,99.76 37.13,50.11 59.03,114.52 58.98,183.43 0,23.73 -2.56,48.04 -7.99,72.51l0 0c-16.2,72.78 -54.59,133.59 -104.76,176.07zm235.7 -656.01c-14.32,21.66 -33.36,38.14 -55.46,49.54 -22.12,11.38 -47.36,17.43 -73.22,17.43 -31.7,-0.03 -64.05,-9.03 -93.03,-28.15l-34.78 -22.97c-4.75,-66.07 -23.32,-129.17 -53.22,-186.65 -31.07,-59.69 -74.12,-113.16 -126.01,-159.18 40.87,-19.75 79.28,-42.09 115.15,-66.62l269.07 177.49c49.13,32.38 75.65,85.8 75.65,137.9 -0.05,28.56 -7.83,56.42 -24.14,81.21z"/>
 </g>
</svg>
