<?xml version="1.0" encoding="UTF-8"?>
<!DOCTYPE svg PUBLIC "-//W3C//DTD SVG 1.1//EN" "http://www.w3.org/Graphics/SVG/1.1/DTD/svg11.dtd">
<!-- Creator: CorelDRAW 2018 (64-Bit) -->
<svg xmlns="http://www.w3.org/2000/svg" xml:space="preserve" width="181.104mm" height="188.295mm" version="1.1" style="shape-rendering:geometricPrecision; text-rendering:geometricPrecision; image-rendering:optimizeQuality; fill-rule:evenodd; clip-rule:evenodd"
viewBox="0 0 4286.83 4457.06"
 xmlns:xlink="http://www.w3.org/1999/xlink">
 <defs>
  <style type="text/css">
   <![CDATA[
    .str0 {stroke:#2B2A29;stroke-width:50.1;stroke-miterlimit:22.9256}
    .fil0 {fill:black}
   ]]>
  </style>
 </defs>
 <g id="Слой_x0020_1">
  <metadata id="CorelCorpID_0Corel-Layer"/>
  <path class="fil0 str0" d="M111.33 3244.77c-13.92,1.14 -28.02,-2.18 -40.21,-9.66 -17.91,-11.08 -29.51,-30 -31.23,-51.01l-14.27 -174.52c-3.66,-44.83 -9.21,-112.7 597.93,-852.63 329,-400.95 729.9,-867.43 995.22,-1176.14 148,-172.25 254.96,-296.66 292.12,-342.85 30.54,-38.04 82.67,-59.59 159.42,-65.86 264.82,-21.66 809.29,137.21 1195.04,279.83 230.41,85.16 440.12,177.17 590.59,258.91 249.99,135.83 287.07,214.9 291.46,268.57l15.3 187.06c2.36,28.89 -14.37,55.99 -41.32,66.9l-3990.69 1606.78c-6.24,2.54 -12.76,4.09 -19.35,4.63zm46.79 -240.73l6.5 79.54 3861.93 -1554.9 -11.22 -137.28c-17.85,-58.15 -282.22,-227.2 -817.07,-422.9 -475.11,-173.85 -924.14,-280.08 -1117.2,-264.3 -53.85,4.4 -66.99,16.82 -67.12,16.92 -38.41,47.76 -145.96,172.87 -294.77,346.01 -257.49,299.63 -646.6,752.47 -970.01,1145.54 -501.48,609.78 -581.38,756.27 -591.05,791.36z"/>
  <g id="_1146855536">
   <g>
    <path class="fil0 str0" d="M160.52 3846.44c-13.83,1.13 -27.88,-2.1 -40.01,-9.5 -18.05,-11.06 -29.75,-30.02 -31.47,-51.13l-49.21 -601.76c-2.36,-28.9 14.37,-55.99 41.32,-66.86l3990.69 -1606.73c19.5,-7.91 41.64,-6.03 59.56,5.09 17.91,11.03 29.51,29.95 31.23,50.97l46.41 567.56c2.35,28.71 -14.16,55.69 -40.83,66.63l-3987.89 1640.98c-6.38,2.64 -13.07,4.2 -19.8,4.75zm15.41 -624.52l37.84 462.74 3859.22 -1588.1 -35.13 -429.58 -3861.93 1554.94z"/>
   </g>
  </g>
  <g id="_1146861264">
   <g>
    <path class="fil0 str0" d="M328.85 4431.27c-120.62,9.86 -193.32,-77.04 -200.41,-163.77l-39.39 -481.69c-2.35,-28.71 14.16,-55.69 40.83,-66.63l3987.89 -1641.03c19.58,-8.06 41.76,-6.27 59.81,4.79 18.05,11.06 29.75,30.02 31.47,51.13l52.51 642.11c2.35,28.71 -14.16,55.69 -40.83,66.63 -36.79,15.18 -3681.05,1515.31 -3805.43,1566.55 -29.79,12.3 -58.83,19.66 -86.44,21.91zm-103.75 -608l35.44 433.43c0.64,7.83 6.44,46.63 57.5,42.46 13.97,-1.14 29.67,-5.29 46.84,-12.31 116.75,-48.18 3340.19,-1375.09 3760.61,-1548.18l-41.17 -503.45 -3859.22 1588.05z"/>
   </g>
  </g>
  <g id="_1146855600">
   <g>
    <path class="fil0 str0" d="M2354.53 2032.9c-318.63,26.05 -599.08,-211.7 -625.11,-530.05 -26.03,-318.31 212.07,-598.46 530.7,-624.52 318.63,-26.05 599.03,211.71 625.06,530.01 26.03,318.35 -212.02,598.51 -530.65,624.56zm-83.61 -1022.51c-245.81,20.1 -429.47,236.11 -409.39,481.65 20.08,245.54 236.39,428.94 482.21,408.84 245.77,-20.1 429.41,-236.2 409.33,-481.74 -20.08,-245.54 -236.38,-428.85 -482.15,-408.75z"/>
   </g>
  </g>
  <g id="_1146881680">
   <g>
    <path class="fil0 str0" d="M2455.44 967.88c3.95,11.23 10.97,21.52 20.94,29.51 28.49,23.01 70.22,18.57 93.13,-9.93 220.86,-273.42 317.81,-567.98 296.46,-900.4 -2.31,-36.64 -33.86,-64.22 -70.34,-61.87 -36.54,2.32 -64.23,33.82 -61.92,70.36 19.15,297.74 -68.3,562.22 -267.27,808.68 -15,18.57 -18.35,42.73 -10.99,63.66z"/>
   </g>
  </g>
 </g>
</svg>
