<?xml version="1.0" encoding="UTF-8"?>
<!DOCTYPE svg PUBLIC "-//W3C//DTD SVG 1.1//EN" "http://www.w3.org/Graphics/SVG/1.1/DTD/svg11.dtd">
<!-- Creator: CorelDRAW 2018 (64-Bit) -->
<svg xmlns="http://www.w3.org/2000/svg" xml:space="preserve" width="160.781mm" height="188mm" version="1.1" style="shape-rendering:geometricPrecision; text-rendering:geometricPrecision; image-rendering:optimizeQuality; fill-rule:evenodd; clip-rule:evenodd"
viewBox="0 0 1000.04 1169.34"
 xmlns:xlink="http://www.w3.org/1999/xlink">
 <defs>
  <style type="text/css">
   <![CDATA[
    .str0 {stroke:#2B2A29;stroke-width:42.13;stroke-linecap:round;stroke-linejoin:round;stroke-miterlimit:22.9256}
    .fil1 {fill:none}
    .fil0 {fill:black}
   ]]>
  </style>
 </defs>
 <g id="Слой_x0020_1">
  <metadata id="CorelCorpID_0Corel-Layer"/>
  <g id="_926098480">
   <g>
    <path class="fil0" d="M977.32 1032.97l-90.91 0 0 -68.19c0,-205.37 -161.19,-373.36 -363.65,-385.22l0 -5.34c26.39,-9.41 45.46,-34.41 45.46,-64 0,-37.59 -30.59,-68.19 -68.19,-68.19 -37.59,0 -68.18,30.59 -68.18,68.19 0,29.59 19.07,54.59 45.46,64l0 5.34c-202.46,11.86 -363.65,179.85 -363.65,385.22l0 68.19 -90.91 0c-12.55,0 -22.73,10.16 -22.73,22.73l0 31.37c0,13.41 3.02,25.93 8.71,36.66 13.93,28.14 42.11,45.62 73.57,45.62l835.49 0c31.46,0 59.66,-17.48 73.3,-45.05 5.95,-11.3 8.98,-23.82 8.98,-37.23l0 -31.37c0,-12.57 -10.18,-22.73 -22.73,-22.73zm-477.29 -545.48c12.52,0 22.73,10.18 22.73,22.73 0,12.55 -10.21,22.73 -22.73,22.73 -12.52,0 -22.73,-10.18 -22.73,-22.73 0,-12.55 10.2,-22.73 22.73,-22.73zm-340.92 477.29c0,-187.99 152.94,-340.92 340.92,-340.92 187.99,0 340.92,152.94 340.92,340.92l0 68.19 -681.85 0 0 -68.19zm795.49 122.28c0,5.93 -1.25,11.3 -4,16.52 -6.09,12.32 -18.98,20.3 -32.82,20.3l-835.49 0c-13.84,0 -26.73,-7.98 -33.09,-20.84 -2.48,-4.68 -3.73,-10.05 -3.73,-15.98l0 -8.64 909.13 0 0 8.64z"/>
    <g>
     <path class="fil0" d="M290.22 813.19c-5.14,0 -10.27,-1.73 -14.52,-5.25 -9.66,-8.02 -10.98,-22.34 -2.96,-32 34.12,-41.05 78.66,-72.09 128.8,-89.8 11.82,-4.09 24.82,2.02 29,13.86 4.18,11.84 -2.02,24.82 -13.86,29 -42.41,14.96 -80.07,41.23 -108.96,76 -4.52,5.39 -11,8.18 -17.5,8.18z"/>
    </g>
    <g>
     <path class="fil0" d="M235.87 919.33c-1.89,0 -3.77,-0.23 -5.68,-0.7 -12.16,-3.14 -19.46,-15.55 -16.34,-27.68 4.32,-16.84 10.23,-33.43 17.5,-49.27 5.23,-11.43 18.68,-16.41 30.14,-11.18 11.41,5.23 16.41,18.73 11.18,30.14 -6.14,13.39 -11.11,27.41 -14.77,41.64 -2.68,10.25 -11.91,17.07 -22.02,17.07z"/>
    </g>
   </g>
  </g>
  <path class="fil1 str0" d="M428.23 339.55c11.19,-20.19 20.41,-53.54 20.41,-81.63 0,-23.7 -9.87,-50.03 -20.41,-73.73 -10.69,-24.06 -27.65,-52.66 -27.65,-78.99 0,-25.45 4.61,-48.05 27.65,-76.36"/>
  <path class="fil1 str0" d="M588.55 331.77c11.19,-20.19 20.41,-53.54 20.41,-81.63 0,-23.7 -9.87,-50.03 -20.41,-73.73 -10.69,-24.06 -27.65,-52.66 -27.65,-78.99 0,-25.45 4.61,-48.05 27.65,-76.36"/>
 </g>
</svg>
