<?xml version="1.0" encoding="UTF-8"?>
<!DOCTYPE svg PUBLIC "-//W3C//DTD SVG 1.1//EN" "http://www.w3.org/Graphics/SVG/1.1/DTD/svg11.dtd">
<!-- Creator: CorelDRAW 2018 (64-Bit) -->
<svg xmlns="http://www.w3.org/2000/svg" xml:space="preserve" width="174.198mm" height="186.59mm" version="1.1" style="shape-rendering:geometricPrecision; text-rendering:geometricPrecision; image-rendering:optimizeQuality; fill-rule:evenodd; clip-rule:evenodd"
viewBox="0 0 10337.61 11072.98"
 xmlns:xlink="http://www.w3.org/1999/xlink">
 <defs>
  <style type="text/css">
   <![CDATA[
    .fil0 {fill:black}
   ]]>
  </style>
 </defs>
 <g id="Слой_x0020_1">
  <metadata id="CorelCorpID_0Corel-Layer"/>
  <path class="fil0" d="M553.8 10334.58l108.18 0 738.4 738.4 7536.85 0 738.4 -738.4 108.18 0c305.81,0 553.8,-248 553.8,-553.8 0,-305.81 -248,-553.8 -553.8,-553.8l-218.57 0.01c21.76,-59.04 33.39,-121.61 33.99,-184.57l-0.03 -1846.03c0.01,-305.81 -247.99,-553.8 -553.8,-553.8l-558.6 0c122.05,-158.68 188.73,-353.49 189.4,-553.77l0 -1846.04c-0.57,-509.52 -413.49,-922.44 -922.98,-923l-553.82 0 0 -1292.2c0,-101.94 -82.67,-184.61 -184.6,-184.61l-184.6 0.01 0 -407.78c224.78,-101.12 369.46,-324.79 369.46,-571.24 0,-5.89 -0.08,-12.01 -0.23,-17.82 0,-299.24 -345.95,-707.57 -415.16,-786.4 -35.96,-38.1 -86.08,-59.73 -138.48,-59.73 -52.39,0 -102.52,21.63 -138.46,59.74 -69.58,78.81 -415.52,487.15 -415.52,786.38 -0.18,5.81 -0.26,11.93 -0.26,17.82 0,246.46 144.68,470.13 369.42,571.22l0.04 407.81 -184.61 0c-101.94,-0.01 -184.6,82.67 -184.6,184.6l0 1292.2 -369.2 0 0 -1292.2c0,-101.94 -82.67,-184.61 -184.6,-184.61l-184.6 0.01 0 -407.78c224.78,-101.12 369.45,-324.79 369.45,-571.24 0,-5.89 -0.08,-12.01 -0.23,-17.82 0,-299.24 -345.94,-707.57 -415.16,-786.4 -35.96,-38.1 -86.08,-59.73 -138.47,-59.73 -52.39,0 -102.51,21.63 -138.46,59.74 -69.59,78.81 -415.53,487.15 -415.53,786.38 -0.17,5.81 -0.24,11.93 -0.24,17.82 0,246.46 144.67,470.13 369.41,571.22l0.04 407.81 -184.6 0c-101.94,-0.01 -184.6,82.67 -184.6,184.6l0 1292.2 -369.2 0 0 -1292.2c0.01,-101.94 -82.66,-184.61 -184.6,-184.61l-184.61 0.01 0 -407.78c224.79,-101.12 369.46,-324.79 369.46,-571.24 0,-5.89 -0.08,-12.01 -0.23,-17.82 0,-299.24 -345.94,-707.57 -415.16,-786.4 -35.96,-38.1 -86.08,-59.73 -138.47,-59.73 -52.39,0 -102.52,21.63 -138.47,59.74 -69.59,78.81 -415.53,487.15 -415.53,786.38 -0.17,5.81 -0.25,11.93 -0.25,17.82 0,246.46 144.67,470.13 369.42,571.22l0.03 407.81 -184.6 0c-101.93,-0.01 -184.6,82.67 -184.6,184.6l0 1292.2 -553.8 0c-509.52,0.56 -922.43,413.48 -922.99,922.98l-0.01 1846.02c0.68,200.31 67.36,395.12 189.46,553.8l-558.66 0c-305.8,0 -553.8,248 -553.8,553.8l0 1846.01c0.58,62.99 12.21,125.56 34,184.59l-218.61 0.01c-305.8,-0.01 -553.8,247.99 -553.8,553.8 0,305.81 248,553.8 553.8,553.8l-0.01 0zm8230.59 -738.4l-7231.16 0 7231.16 0zm261.02 -2584.4c101.94,0 184.61,82.66 184.61,184.6l0 923.01c-0.01,203.86 -165.34,369.19 -369.21,369.19l-184.6 0.01c-203.88,-0.01 -369.2,-165.33 -369.2,-369.2l0 -624.13c0,-101.95 -82.67,-184.61 -184.6,-184.61 -101.94,0 -184.61,82.67 -184.61,184.61 0.33,4.75 0.49,9.57 0.49,14.35 0,56.99 -22.79,111.67 -63.24,151.79 -85.62,60.13 -187.89,92.51 -292.59,92.51 -26.28,0 -52.76,-2.05 -78.67,-6.09 -170.16,-11.48 -302.89,-152.13 -304.4,-322.71l0.02 -413.31 1846 0zm-2399.8 -6532.45c88.6,106.52 151.75,232.15 184.55,366.78 0,140.12 -84.55,258.44 -184.6,258.44 -100.06,0 -184.61,-118.33 -184.61,-258.44 32.91,-134.63 96.24,-260.18 184.64,-366.82l0.02 0.04zm-184.6 1732.84l369.2 0 0 1107.6 -369.2 0 0 -1107.6zm-1292.21 -1732.84c88.61,106.52 151.75,232.15 184.55,366.78 0,140.12 -84.55,258.44 -184.6,258.44 -100.06,0 -184.6,-118.33 -184.6,-258.44 32.91,-134.63 96.24,-260.18 184.64,-366.82l0.02 0.04zm-184.6 1732.84l369.21 0 0 1107.6 -369.21 0 0 -1107.6zm-1292.2 -1732.84c88.61,106.52 151.75,232.15 184.55,366.78 0,140.12 -84.54,258.44 -184.6,258.44 -100.05,0 -184.6,-118.33 -184.6,-258.44 32.91,-134.63 96.24,-260.18 184.64,-366.82l0.02 0.04zm-184.61 1732.84l369.2 0 0 1107.6 -369.2 0 0 -1107.6zm-1476.8 2030.6c0.01,-305.81 248,-553.8 553.81,-553.8l5168.8 0.01c305.81,-0.01 553.8,247.99 553.8,553.8l0 1107.6c0,0.19 0,0.37 0,0.55 0,203.87 -165.33,369.2 -369.2,369.2 -6.67,0 -13.48,-0.18 -20.1,-0.54 -198.65,-21.39 -349.28,-189.11 -349.28,-388.92 0,-3.87 0.09,-7.83 0.2,-11.65l-0.01 -891.64c0,-101.94 -82.67,-184.6 -184.61,-184.6 -101.94,0 -184.6,82.67 -184.6,184.6 0.01,203.87 -165.32,369.2 -369.2,369.2 -203.87,0 -369.2,-165.33 -369.2,-369.2 0,-101.94 -82.67,-184.6 -184.61,-184.6 -101.94,0 -184.6,82.67 -184.6,184.6l0 522.42c0.08,3.84 0.18,7.8 0.18,11.67 0,199.81 -150.62,367.53 -349.24,388.93 -6.66,0.36 -13.47,0.54 -20.14,0.54 -203.87,0 -369.2,-165.33 -369.2,-369.2 0,-0.18 0,-0.36 0,-0.54 0.01,-101.95 -82.67,-184.61 -184.6,-184.61 -101.93,0 -184.6,82.67 -184.6,184.6l0 522.42c0.08,3.85 0.18,7.8 0.18,11.67 0,199.81 -150.62,367.53 -349.24,388.93 -6.66,0.36 -13.47,0.54 -20.14,0.54 -203.87,0 -369.2,-165.33 -369.2,-369.2 0,-0.18 0,-0.36 0,-0.54l-0.01 -1107.61c0.01,-101.94 -82.66,-184.6 -184.6,-184.6 -101.94,0 -184.6,82.67 -184.6,184.6 0,203.87 -165.33,369.2 -369.2,369.2 -203.87,0 -369.2,-165.33 -369.2,-369.2 0.01,-101.94 -82.67,-184.6 -184.6,-184.6 -101.94,0 -184.6,82.67 -184.6,184.6l0 522.42c0.08,3.84 0.18,7.8 0.18,11.67 0,199.81 -150.62,367.53 -349.24,388.93 -6.66,0.36 -13.47,0.54 -20.14,0.54 -203.87,0 -369.2,-165.33 -369.2,-369.2 0,-0.18 0,-0.36 0,-0.54l-0.01 -738.41zm1032.06 668.25c341.95,374.39 754.45,123.54 813.98,0.79l-0.04 623.16c0.46,202.27 83.81,395.79 230.22,535.31 135.87,130.12 317.09,202.84 505.26,202.84 14.01,0 28.37,-0.45 42.29,-1.25 357.62,-24.77 647.66,-300.01 691.26,-655.87 113.02,67.56 242.36,103.32 374.02,103.32 14.05,0 28.28,-0.45 42.25,-1.25 357.87,-24.78 648.12,-300.32 691.34,-656.45 115.26,64.93 245.29,99.17 377.58,99.17 128.72,0 255.75,-32.46 368.62,-94.19l-0.03 252.38c-0.08,5.21 -0.17,10.64 -0.17,15.9 0,395.25 305.12,723.77 699.26,752.8 14.09,0.8 28.57,1.24 42.79,1.24 128.41,0 254.69,-34.12 365.67,-98.55l0.04 98.39c0,305.81 -248,553.8 -553.8,553.8l-5168.8 0c-305.81,0 -548.75,-192.72 -553.8,-553.8l-7.29 -520.94c181.62,211.52 1063.87,135.13 1039.35,-656.81zm3749.08 2100.76c-49.29,184.6 -195.31,369.2 -350.74,369.2l-184.6 0c-155.07,0 -301.08,-184.6 -350.74,-369.2l886.08 0zm-5704.14 184.6c0,-101.94 82.67,-184.6 184.6,-184.6l4245.8 0 0 615.46c-1.5,170.6 -134.22,311.32 -304.42,322.85 -25.86,3.96 -52.15,6.08 -78.38,6.08 -104.8,0 -207.1,-32.44 -292.82,-92.68 -40.48,-40.09 -63.27,-94.76 -63.27,-151.76 0,-4.78 0.16,-9.6 0.47,-14.35l0 -404.27c0.02,-101.94 -82.65,-184.61 -184.59,-184.61 -101.94,0 -184.6,82.67 -184.6,184.6 0,205.83 -170.39,457.08 -369.2,457.08l-184.6 0c-77.53,0 -189.22,-90.64 -298.68,-242.19 -34.67,-48.07 -90.4,-76.61 -149.7,-76.61 -101.87,0 -184.51,82.53 -184.6,184.4l0 486.05c-0.47,213.34 -173.41,386.28 -386.76,386.74l-87.85 0.01c-203.86,-0.01 -369.2,-165.33 -369.2,-369.2l-0.01 -624.13c0.01,-101.95 -82.65,-184.61 -184.59,-184.61 -101.94,0 -184.6,82.67 -184.6,184.61 0.01,2.52 0.07,5.14 0.07,7.7 0,215.18 -156.69,398.45 -369.25,431.85l-184.62 -0.01c-212.58,-33.39 -369.26,-216.66 -369.26,-431.84 0,-2.56 0.05,-5.17 0.05,-7.69l0.01 -298.87zm-84.99 758.94c219.09,360.43 655.92,476.78 1011.11,232.76 35.4,379.42 354.08,669.69 735.22,669.69 0,0 0.09,0 0.09,0l87.83 0.01c0.01,-0.01 0.01,-0.01 0.01,-0.01 417.56,0 756.4,-338.37 756.86,-755.93l0 -55.39c79.75,46.68 170.42,71.97 262.85,72.95l184.62 -0.02c155.62,-1.96 305.6,-59.33 422.89,-161.56 29.98,66.43 73.11,126.29 126.51,175.75 151.56,124 341.69,191.9 537.63,191.9 37.11,0 74.33,-2.49 111.03,-7.26 363.29,-25.54 645.83,-326.8 647.96,-691.01l-0.01 -6.25c105.74,81.94 235.48,127.39 369.2,129.2l184.61 0.02c143.81,-2.58 282.55,-54.83 392.42,-147.67 78.01,286.36 328.61,492.25 624.68,513.33 31.24,2.9 63.01,4.49 94.4,4.49 124.96,0 249.06,-23.45 365.35,-69.01l-0.05 68.07c0,407.73 330.66,738.39 738.4,738.39l184.6 0.01c0.33,0 0.78,0 1.13,0 129.2,0 256.43,-34.27 368.09,-99.13l-0.02 283.74c0.01,101.94 -82.67,183.98 -184.6,184.6l-7829.47 47.87c-138.56,-28.32 -192.47,-186.45 -191.69,-226.53 10.46,-540.23 -1.64,-528.76 -1.64,-1093zm-468.81 1640.85l9230.02 0c101.94,-0.01 184.6,82.67 184.6,184.6 0,101.94 -83.12,187.49 -184.6,196.89l-209.33 19.41 -736.93 730.3 -7273.72 12.42 -714.5 -762.13 -295.54 -12.29c-101.93,0 -184.6,-82.67 -184.6,-184.6 0,-101.94 82.67,-184.61 184.6,-184.61l-0.01 0.01z"/>
 </g>
</svg>
