<?xml version="1.0" encoding="UTF-8"?>
<!DOCTYPE svg PUBLIC "-//W3C//DTD SVG 1.1//EN" "http://www.w3.org/Graphics/SVG/1.1/DTD/svg11.dtd">
<!-- Creator: CorelDRAW 2018 (64-Bit) -->
<svg xmlns="http://www.w3.org/2000/svg" xml:space="preserve" width="495.3mm" height="402.167mm" version="1.1" style="shape-rendering:geometricPrecision; text-rendering:geometricPrecision; image-rendering:optimizeQuality; fill-rule:evenodd; clip-rule:evenodd"
viewBox="0 0 14826.34 12038.48"
 xmlns:xlink="http://www.w3.org/1999/xlink">
 <defs>
  <style type="text/css">
   <![CDATA[
    .str1 {stroke:#EBECEC;stroke-width:5.99;stroke-miterlimit:22.9256}
    .str0 {stroke:#EBECEC;stroke-width:5.99;stroke-miterlimit:22.9256}
    .str20 {stroke:#6E7677;stroke-width:25.34;stroke-linecap:round;stroke-linejoin:round;stroke-miterlimit:22.9256}
    .str19 {stroke:#6E7677;stroke-width:25.34;stroke-linecap:round;stroke-linejoin:round;stroke-miterlimit:22.9256}
    .str6 {stroke:#A3084B;stroke-width:25.34;stroke-linecap:round;stroke-linejoin:round;stroke-miterlimit:22.9256}
    .str7 {stroke:#A3084B;stroke-width:25.34;stroke-linecap:round;stroke-linejoin:round;stroke-miterlimit:22.9256}
    .str23 {stroke:#A3084B;stroke-width:25.34;stroke-linecap:round;stroke-linejoin:round;stroke-miterlimit:22.9256}
    .str22 {stroke:#A3084B;stroke-width:25.34;stroke-linecap:round;stroke-linejoin:round;stroke-miterlimit:22.9256}
    .str16 {stroke:#6E7677;stroke-width:25.34;stroke-linecap:round;stroke-linejoin:round;stroke-miterlimit:22.9256}
    .str25 {stroke:#A3084B;stroke-width:25.34;stroke-linecap:round;stroke-linejoin:round;stroke-miterlimit:22.9256}
    .str24 {stroke:#A3084B;stroke-width:25.34;stroke-linecap:round;stroke-linejoin:round;stroke-miterlimit:22.9256}
    .str28 {stroke:#6E7677;stroke-width:25.34;stroke-linecap:round;stroke-linejoin:round;stroke-miterlimit:22.9256}
    .str26 {stroke:#6E7677;stroke-width:25.34;stroke-linecap:round;stroke-linejoin:round;stroke-miterlimit:22.9256}
    .str18 {stroke:#6E7677;stroke-width:25.34;stroke-linecap:round;stroke-linejoin:round;stroke-miterlimit:22.9256}
    .str17 {stroke:#6E7677;stroke-width:25.34;stroke-linecap:round;stroke-linejoin:round;stroke-miterlimit:22.9256}
    .str15 {stroke:#6E7677;stroke-width:25.34;stroke-linecap:round;stroke-linejoin:round;stroke-miterlimit:22.9256}
    .str21 {stroke:#A3084B;stroke-width:25.34;stroke-linecap:round;stroke-linejoin:round;stroke-miterlimit:22.9256}
    .str27 {stroke:#6E7677;stroke-width:25.34;stroke-linecap:round;stroke-linejoin:round;stroke-miterlimit:22.9256}
    .str14 {stroke:#6E7677;stroke-width:25.34;stroke-linecap:round;stroke-linejoin:round;stroke-miterlimit:22.9256}
    .str8 {stroke:#6E7677;stroke-width:25.34;stroke-linecap:round;stroke-linejoin:round;stroke-miterlimit:22.9256}
    .str4 {stroke:#6E7677;stroke-width:25.34;stroke-linecap:round;stroke-linejoin:round;stroke-miterlimit:22.9256}
    .str5 {stroke:#6E7677;stroke-width:25.34;stroke-linecap:round;stroke-linejoin:round;stroke-miterlimit:22.9256}
    .str2 {stroke:#6E7677;stroke-width:25.34;stroke-linecap:round;stroke-linejoin:round;stroke-miterlimit:22.9256}
    .str13 {stroke:#6E7677;stroke-width:25.34;stroke-linecap:round;stroke-linejoin:round;stroke-miterlimit:22.9256}
    .str11 {stroke:#6E7677;stroke-width:25.34;stroke-linecap:round;stroke-linejoin:round;stroke-miterlimit:22.9256}
    .str12 {stroke:#6E7677;stroke-width:25.34;stroke-linecap:round;stroke-linejoin:round;stroke-miterlimit:22.9256}
    .str3 {stroke:#6E7677;stroke-width:25.34;stroke-linecap:round;stroke-linejoin:round;stroke-miterlimit:22.9256}
    .str9 {stroke:#6E7677;stroke-width:25.34;stroke-linecap:round;stroke-linejoin:round;stroke-miterlimit:22.9256}
    .str10 {stroke:#6E7677;stroke-width:25.34;stroke-linecap:round;stroke-linejoin:round;stroke-miterlimit:22.9256}
    .fil3 {fill:#FEFEFE}
    .fil2 {fill:#FEFEFE}
    .fil4 {fill:#898989}
    .fil6 {fill:#727271}
    .fil9 {fill:#5B5B5B}
    .fil0 {fill:#F2F6F6}
    .fil1 {fill:#E5ECEE}
    .fil17 {fill:#CCD6D7}
    .fil12 {fill:#ACB7B9}
    .fil15 {fill:#A9B2B4}
    .fil14 {fill:#97A4A7}
    .fil13 {fill:#8A9496}
    .fil11 {fill:#798487}
    .fil23 {fill:#5D696B}
    .fil10 {fill:#1F1B20}
    .fil8 {fill:#C9226A}
    .fil18 {fill:#ED5396}
    .fil20 {fill:#F56AA6}
    .fil22 {fill:#2B2A29;fill-rule:nonzero}
    .fil5 {fill:#6E7677;fill-rule:nonzero}
    .fil21 {fill:url(#id0)}
    .fil7 {fill:url(#id1)}
    .fil16 {fill:url(#id2)}
    .fil19 {fill:url(#id3)}
   ]]>
  </style>
  <linearGradient id="id0" gradientUnits="userSpaceOnUse" x1="7557.11" y1="6320.54" x2="7541.27" y2="9198.15">
   <stop offset="0" style="stop-opacity:1; stop-color:#363C3D"/>
   <stop offset="1" style="stop-opacity:1; stop-color:#515859"/>
  </linearGradient>
  <linearGradient id="id1" gradientUnits="userSpaceOnUse" x1="10306.55" y1="6609.88" x2="9425.1" y2="3957.43">
   <stop offset="0" style="stop-opacity:1; stop-color:#F56AA6"/>
   <stop offset="0.239216" style="stop-opacity:1; stop-color:#D22972"/>
   <stop offset="1" style="stop-opacity:1; stop-color:#F56AA6"/>
  </linearGradient>
  <linearGradient id="id2" gradientUnits="userSpaceOnUse" x1="5100" y1="6588.84" x2="4218.55" y2="3936.4">
   <stop offset="0" style="stop-opacity:1; stop-color:#A6B2B4"/>
   <stop offset="0.278431" style="stop-opacity:1; stop-color:#8A9799"/>
   <stop offset="1" style="stop-opacity:1; stop-color:#ACB7B9"/>
  </linearGradient>
  <linearGradient id="id3" gradientUnits="userSpaceOnUse" x1="2855.1" y1="7985.03" x2="5954.01" y2="7156.73">
   <stop offset="0" style="stop-opacity:1; stop-color:#EB3D88"/>
   <stop offset="1" style="stop-opacity:1; stop-color:#C9226A"/>
  </linearGradient>
 </defs>
 <g id="Слой_x0020_1">
  <metadata id="CorelCorpID_0Corel-Layer"/>
  <g id="_754085840">
   <rect class="fil0" x="-0" y="0" width="14826.34" height="12038.48"/>
   <rect class="fil1" x="-0" y="7034.83" width="14826.34" height="5003.65"/>
   <g>
    <g>
     <circle class="fil2 str0" cx="1124.16" cy="984.81" r="359.04"/>
     <g>
      <path class="fil3 str1" d="M2092.43 625.77c198.29,0 359.04,160.75 359.04,359.04 0,198.29 -160.75,359.04 -359.04,359.04 -198.29,0 -359.04,-160.75 -359.04,-359.04 0,-198.29 160.75,-359.04 359.04,-359.04z"/>
      <path class="fil3 str1" d="M3060.71 625.77c198.29,0 359.04,160.75 359.04,359.04 0,198.29 -160.75,359.04 -359.04,359.04 -198.29,0 -359.04,-160.75 -359.04,-359.04 0,-198.29 160.75,-359.04 359.04,-359.04z"/>
      <path class="fil3 str1" d="M4028.99 625.77c198.29,0 359.04,160.75 359.04,359.04 0,198.29 -160.75,359.04 -359.04,359.04 -198.29,0 -359.04,-160.75 -359.04,-359.04 0,-198.29 160.75,-359.04 359.04,-359.04z"/>
      <path class="fil3 str1" d="M4997.27 625.77c198.29,0 359.04,160.75 359.04,359.04 0,198.29 -160.75,359.04 -359.04,359.04 -198.29,0 -359.04,-160.75 -359.04,-359.04 0,-198.29 160.75,-359.04 359.04,-359.04z"/>
      <path class="fil3 str1" d="M5965.54 625.77c198.29,0 359.04,160.75 359.04,359.04 0,198.29 -160.75,359.04 -359.04,359.04 -198.29,0 -359.04,-160.75 -359.04,-359.04 0,-198.29 160.75,-359.04 359.04,-359.04z"/>
      <path class="fil3 str1" d="M6933.82 625.77c198.29,0 359.04,160.75 359.04,359.04 0,198.29 -160.75,359.04 -359.04,359.04 -198.29,0 -359.04,-160.75 -359.04,-359.04 0,-198.29 160.75,-359.04 359.04,-359.04z"/>
      <path class="fil3 str1" d="M7902.1 625.77c198.29,0 359.04,160.75 359.04,359.04 0,198.29 -160.75,359.04 -359.04,359.04 -198.29,0 -359.04,-160.75 -359.04,-359.04 0,-198.29 160.75,-359.04 359.04,-359.04z"/>
      <path class="fil3 str1" d="M8870.37 625.77c198.29,0 359.04,160.75 359.04,359.04 0,198.29 -160.75,359.04 -359.04,359.04 -198.29,0 -359.04,-160.75 -359.04,-359.04 0,-198.29 160.75,-359.04 359.04,-359.04z"/>
      <path class="fil3 str1" d="M9838.65 625.77c198.29,0 359.04,160.75 359.04,359.04 0,198.29 -160.75,359.04 -359.04,359.04 -198.29,0 -359.04,-160.75 -359.04,-359.04 0,-198.29 160.75,-359.04 359.04,-359.04z"/>
      <path class="fil3 str1" d="M10806.93 625.77c198.29,0 359.04,160.75 359.04,359.04 0,198.29 -160.75,359.04 -359.04,359.04 -198.29,0 -359.04,-160.75 -359.04,-359.04 0,-198.29 160.75,-359.04 359.04,-359.04z"/>
      <path class="fil3 str1" d="M11775.2 625.77c198.29,0 359.04,160.75 359.04,359.04 0,198.29 -160.75,359.04 -359.04,359.04 -198.29,0 -359.04,-160.75 -359.04,-359.04 0,-198.29 160.75,-359.04 359.04,-359.04z"/>
      <path class="fil3 str1" d="M12743.48 625.77c198.29,0 359.04,160.75 359.04,359.04 0,198.29 -160.75,359.04 -359.04,359.04 -198.29,0 -359.04,-160.75 -359.04,-359.04 0,-198.29 160.75,-359.04 359.04,-359.04z"/>
     </g>
     <circle class="fil2 str0" cx="13711.76" cy="984.81" r="359.04"/>
     <circle class="fil2 str0" cx="1124.16" cy="1951.05" r="359.04"/>
     <g>
      <path class="fil3 str1" d="M2092.43 1592.01c198.29,0 359.04,160.75 359.04,359.04 0,198.29 -160.75,359.04 -359.04,359.04 -198.29,0 -359.04,-160.75 -359.04,-359.04 0,-198.29 160.75,-359.04 359.04,-359.04z"/>
      <path class="fil3 str1" d="M3060.71 1592.01c198.29,0 359.04,160.75 359.04,359.04 0,198.29 -160.75,359.04 -359.04,359.04 -198.29,0 -359.04,-160.75 -359.04,-359.04 0,-198.29 160.75,-359.04 359.04,-359.04z"/>
      <path class="fil3 str1" d="M4028.99 1592.01c198.29,0 359.04,160.75 359.04,359.04 0,198.29 -160.75,359.04 -359.04,359.04 -198.29,0 -359.04,-160.75 -359.04,-359.04 0,-198.29 160.75,-359.04 359.04,-359.04z"/>
      <path class="fil3 str1" d="M4997.27 1592.01c198.29,0 359.04,160.75 359.04,359.04 0,198.29 -160.75,359.04 -359.04,359.04 -198.29,0 -359.04,-160.75 -359.04,-359.04 0,-198.29 160.75,-359.04 359.04,-359.04z"/>
      <path class="fil3 str1" d="M5965.54 1592.01c198.29,0 359.04,160.75 359.04,359.04 0,198.29 -160.75,359.04 -359.04,359.04 -198.29,0 -359.04,-160.75 -359.04,-359.04 0,-198.29 160.75,-359.04 359.04,-359.04z"/>
      <path class="fil3 str1" d="M6933.82 1592.01c198.29,0 359.04,160.75 359.04,359.04 0,198.29 -160.75,359.04 -359.04,359.04 -198.29,0 -359.04,-160.75 -359.04,-359.04 0,-198.29 160.75,-359.04 359.04,-359.04z"/>
      <path class="fil3 str1" d="M7902.1 1592.01c198.29,0 359.04,160.75 359.04,359.04 0,198.29 -160.75,359.04 -359.04,359.04 -198.29,0 -359.04,-160.75 -359.04,-359.04 0,-198.29 160.75,-359.04 359.04,-359.04z"/>
      <path class="fil3 str1" d="M8870.37 1592.01c198.29,0 359.04,160.75 359.04,359.04 0,198.29 -160.75,359.04 -359.04,359.04 -198.29,0 -359.04,-160.75 -359.04,-359.04 0,-198.29 160.75,-359.04 359.04,-359.04z"/>
      <path class="fil3 str1" d="M9838.65 1592.01c198.29,0 359.04,160.75 359.04,359.04 0,198.29 -160.75,359.04 -359.04,359.04 -198.29,0 -359.04,-160.75 -359.04,-359.04 0,-198.29 160.75,-359.04 359.04,-359.04z"/>
      <path class="fil3 str1" d="M10806.93 1592.01c198.29,0 359.04,160.75 359.04,359.04 0,198.29 -160.75,359.04 -359.04,359.04 -198.29,0 -359.04,-160.75 -359.04,-359.04 0,-198.29 160.75,-359.04 359.04,-359.04z"/>
      <path class="fil3 str1" d="M11775.2 1592.01c198.29,0 359.04,160.75 359.04,359.04 0,198.29 -160.75,359.04 -359.04,359.04 -198.29,0 -359.04,-160.75 -359.04,-359.04 0,-198.29 160.75,-359.04 359.04,-359.04z"/>
      <path class="fil3 str1" d="M12743.48 1592.01c198.29,0 359.04,160.75 359.04,359.04 0,198.29 -160.75,359.04 -359.04,359.04 -198.29,0 -359.04,-160.75 -359.04,-359.04 0,-198.29 160.75,-359.04 359.04,-359.04z"/>
     </g>
     <circle class="fil2 str0" cx="13711.76" cy="1951.05" r="359.04"/>
    </g>
    <g>
     <circle class="fil2 str0" cx="1124.16" cy="2991.67" r="359.04"/>
     <g>
      <path class="fil3 str1" d="M2092.43 2632.63c198.29,0 359.04,160.75 359.04,359.04 0,198.29 -160.75,359.04 -359.04,359.04 -198.29,0 -359.04,-160.75 -359.04,-359.04 0,-198.29 160.75,-359.04 359.04,-359.04z"/>
      <path class="fil3 str1" d="M3060.71 2632.63c198.29,0 359.04,160.75 359.04,359.04 0,198.29 -160.75,359.04 -359.04,359.04 -198.29,0 -359.04,-160.75 -359.04,-359.04 0,-198.29 160.75,-359.04 359.04,-359.04z"/>
      <path class="fil3 str1" d="M4028.99 2632.63c198.29,0 359.04,160.75 359.04,359.04 0,198.29 -160.75,359.04 -359.04,359.04 -198.29,0 -359.04,-160.75 -359.04,-359.04 0,-198.29 160.75,-359.04 359.04,-359.04z"/>
      <path class="fil3 str1" d="M4997.27 2632.63c198.29,0 359.04,160.75 359.04,359.04 0,198.29 -160.75,359.04 -359.04,359.04 -198.29,0 -359.04,-160.75 -359.04,-359.04 0,-198.29 160.75,-359.04 359.04,-359.04z"/>
      <path class="fil3 str1" d="M5965.54 2632.63c198.29,0 359.04,160.75 359.04,359.04 0,198.29 -160.75,359.04 -359.04,359.04 -198.29,0 -359.04,-160.75 -359.04,-359.04 0,-198.29 160.75,-359.04 359.04,-359.04z"/>
      <path class="fil3 str1" d="M6933.82 2632.63c198.29,0 359.04,160.75 359.04,359.04 0,198.29 -160.75,359.04 -359.04,359.04 -198.29,0 -359.04,-160.75 -359.04,-359.04 0,-198.29 160.75,-359.04 359.04,-359.04z"/>
      <path class="fil3 str1" d="M7902.1 2632.63c198.29,0 359.04,160.75 359.04,359.04 0,198.29 -160.75,359.04 -359.04,359.04 -198.29,0 -359.04,-160.75 -359.04,-359.04 0,-198.29 160.75,-359.04 359.04,-359.04z"/>
      <path class="fil3 str1" d="M8870.37 2632.63c198.29,0 359.04,160.75 359.04,359.04 0,198.29 -160.75,359.04 -359.04,359.04 -198.29,0 -359.04,-160.75 -359.04,-359.04 0,-198.29 160.75,-359.04 359.04,-359.04z"/>
      <path class="fil3 str1" d="M9838.65 2632.63c198.29,0 359.04,160.75 359.04,359.04 0,198.29 -160.75,359.04 -359.04,359.04 -198.29,0 -359.04,-160.75 -359.04,-359.04 0,-198.29 160.75,-359.04 359.04,-359.04z"/>
      <path class="fil3 str1" d="M10806.93 2632.63c198.29,0 359.04,160.75 359.04,359.04 0,198.29 -160.75,359.04 -359.04,359.04 -198.29,0 -359.04,-160.75 -359.04,-359.04 0,-198.29 160.75,-359.04 359.04,-359.04z"/>
      <path class="fil3 str1" d="M11775.2 2632.63c198.29,0 359.04,160.75 359.04,359.04 0,198.29 -160.75,359.04 -359.04,359.04 -198.29,0 -359.04,-160.75 -359.04,-359.04 0,-198.29 160.75,-359.04 359.04,-359.04z"/>
      <path class="fil3 str1" d="M12743.48 2632.63c198.29,0 359.04,160.75 359.04,359.04 0,198.29 -160.75,359.04 -359.04,359.04 -198.29,0 -359.04,-160.75 -359.04,-359.04 0,-198.29 160.75,-359.04 359.04,-359.04z"/>
     </g>
     <circle class="fil2 str0" cx="13711.76" cy="2991.67" r="359.04"/>
     <circle class="fil2 str0" cx="1124.16" cy="3957.91" r="359.04"/>
     <g>
      <path class="fil3 str1" d="M2092.43 3598.87c198.29,0 359.04,160.75 359.04,359.04 0,198.29 -160.75,359.04 -359.04,359.04 -198.29,0 -359.04,-160.75 -359.04,-359.04 0,-198.29 160.75,-359.04 359.04,-359.04z"/>
      <path class="fil3 str1" d="M3060.71 3598.87c198.29,0 359.04,160.75 359.04,359.04 0,198.29 -160.75,359.04 -359.04,359.04 -198.29,0 -359.04,-160.75 -359.04,-359.04 0,-198.29 160.75,-359.04 359.04,-359.04z"/>
      <path class="fil3 str1" d="M4028.99 3598.87c198.29,0 359.04,160.75 359.04,359.04 0,198.29 -160.75,359.04 -359.04,359.04 -198.29,0 -359.04,-160.75 -359.04,-359.04 0,-198.29 160.75,-359.04 359.04,-359.04z"/>
      <path class="fil3 str1" d="M4997.27 3598.87c198.29,0 359.04,160.75 359.04,359.04 0,198.29 -160.75,359.04 -359.04,359.04 -198.29,0 -359.04,-160.75 -359.04,-359.04 0,-198.29 160.75,-359.04 359.04,-359.04z"/>
      <path class="fil3 str1" d="M5965.54 3598.87c198.29,0 359.04,160.75 359.04,359.04 0,198.29 -160.75,359.04 -359.04,359.04 -198.29,0 -359.04,-160.75 -359.04,-359.04 0,-198.29 160.75,-359.04 359.04,-359.04z"/>
      <path class="fil3 str1" d="M6933.82 3598.87c198.29,0 359.04,160.75 359.04,359.04 0,198.29 -160.75,359.04 -359.04,359.04 -198.29,0 -359.04,-160.75 -359.04,-359.04 0,-198.29 160.75,-359.04 359.04,-359.04z"/>
      <path class="fil3 str1" d="M7902.1 3598.87c198.29,0 359.04,160.75 359.04,359.04 0,198.29 -160.75,359.04 -359.04,359.04 -198.29,0 -359.04,-160.75 -359.04,-359.04 0,-198.29 160.75,-359.04 359.04,-359.04z"/>
      <path class="fil3 str1" d="M8870.37 3598.87c198.29,0 359.04,160.75 359.04,359.04 0,198.29 -160.75,359.04 -359.04,359.04 -198.29,0 -359.04,-160.75 -359.04,-359.04 0,-198.29 160.75,-359.04 359.04,-359.04z"/>
      <path class="fil3 str1" d="M9838.65 3598.87c198.29,0 359.04,160.75 359.04,359.04 0,198.29 -160.75,359.04 -359.04,359.04 -198.29,0 -359.04,-160.75 -359.04,-359.04 0,-198.29 160.75,-359.04 359.04,-359.04z"/>
      <path class="fil3 str1" d="M10806.93 3598.87c198.29,0 359.04,160.75 359.04,359.04 0,198.29 -160.75,359.04 -359.04,359.04 -198.29,0 -359.04,-160.75 -359.04,-359.04 0,-198.29 160.75,-359.04 359.04,-359.04z"/>
      <path class="fil3 str1" d="M11775.2 3598.87c198.29,0 359.04,160.75 359.04,359.04 0,198.29 -160.75,359.04 -359.04,359.04 -198.29,0 -359.04,-160.75 -359.04,-359.04 0,-198.29 160.75,-359.04 359.04,-359.04z"/>
      <path class="fil3 str1" d="M12743.48 3598.87c198.29,0 359.04,160.75 359.04,359.04 0,198.29 -160.75,359.04 -359.04,359.04 -198.29,0 -359.04,-160.75 -359.04,-359.04 0,-198.29 160.75,-359.04 359.04,-359.04z"/>
     </g>
     <circle class="fil2 str0" cx="13711.76" cy="3957.91" r="359.04"/>
    </g>
    <g>
     <circle class="fil2 str0" cx="1124.16" cy="5047.61" r="359.04"/>
     <g>
      <path class="fil3 str1" d="M2092.43 4688.57c198.29,0 359.04,160.75 359.04,359.04 0,198.29 -160.75,359.04 -359.04,359.04 -198.29,0 -359.04,-160.75 -359.04,-359.04 0,-198.29 160.75,-359.04 359.04,-359.04z"/>
      <path class="fil3 str1" d="M3060.71 4688.57c198.29,0 359.04,160.75 359.04,359.04 0,198.29 -160.75,359.04 -359.04,359.04 -198.29,0 -359.04,-160.75 -359.04,-359.04 0,-198.29 160.75,-359.04 359.04,-359.04z"/>
      <path class="fil3 str1" d="M4028.99 4688.57c198.29,0 359.04,160.75 359.04,359.04 0,198.29 -160.75,359.04 -359.04,359.04 -198.29,0 -359.04,-160.75 -359.04,-359.04 0,-198.29 160.75,-359.04 359.04,-359.04z"/>
      <path class="fil3 str1" d="M4997.27 4688.57c198.29,0 359.04,160.75 359.04,359.04 0,198.29 -160.75,359.04 -359.04,359.04 -198.29,0 -359.04,-160.75 -359.04,-359.04 0,-198.29 160.75,-359.04 359.04,-359.04z"/>
      <path class="fil3 str1" d="M5965.54 4688.57c198.29,0 359.04,160.75 359.04,359.04 0,198.29 -160.75,359.04 -359.04,359.04 -198.29,0 -359.04,-160.75 -359.04,-359.04 0,-198.29 160.75,-359.04 359.04,-359.04z"/>
      <path class="fil3 str1" d="M6933.82 4688.57c198.29,0 359.04,160.75 359.04,359.04 0,198.29 -160.75,359.04 -359.04,359.04 -198.29,0 -359.04,-160.75 -359.04,-359.04 0,-198.29 160.75,-359.04 359.04,-359.04z"/>
      <path class="fil3 str1" d="M7902.1 4688.57c198.29,0 359.04,160.75 359.04,359.04 0,198.29 -160.75,359.04 -359.04,359.04 -198.29,0 -359.04,-160.75 -359.04,-359.04 0,-198.29 160.75,-359.04 359.04,-359.04z"/>
      <path class="fil3 str1" d="M8870.37 4688.57c198.29,0 359.04,160.75 359.04,359.04 0,198.29 -160.75,359.04 -359.04,359.04 -198.29,0 -359.04,-160.75 -359.04,-359.04 0,-198.29 160.75,-359.04 359.04,-359.04z"/>
      <path class="fil3 str1" d="M9838.65 4688.57c198.29,0 359.04,160.75 359.04,359.04 0,198.29 -160.75,359.04 -359.04,359.04 -198.29,0 -359.04,-160.75 -359.04,-359.04 0,-198.29 160.75,-359.04 359.04,-359.04z"/>
      <path class="fil3 str1" d="M10806.93 4688.57c198.29,0 359.04,160.75 359.04,359.04 0,198.29 -160.75,359.04 -359.04,359.04 -198.29,0 -359.04,-160.75 -359.04,-359.04 0,-198.29 160.75,-359.04 359.04,-359.04z"/>
      <path class="fil3 str1" d="M11775.2 4688.57c198.29,0 359.04,160.75 359.04,359.04 0,198.29 -160.75,359.04 -359.04,359.04 -198.29,0 -359.04,-160.75 -359.04,-359.04 0,-198.29 160.75,-359.04 359.04,-359.04z"/>
      <path class="fil3 str1" d="M12743.48 4688.57c198.29,0 359.04,160.75 359.04,359.04 0,198.29 -160.75,359.04 -359.04,359.04 -198.29,0 -359.04,-160.75 -359.04,-359.04 0,-198.29 160.75,-359.04 359.04,-359.04z"/>
     </g>
     <circle class="fil2 str0" cx="13711.76" cy="5047.61" r="359.04"/>
     <circle class="fil2 str0" cx="1124.16" cy="6013.85" r="359.04"/>
     <g>
      <path class="fil3 str1" d="M2092.43 5654.81c198.29,0 359.04,160.75 359.04,359.04 0,198.29 -160.75,359.04 -359.04,359.04 -198.29,0 -359.04,-160.75 -359.04,-359.04 0,-198.29 160.75,-359.04 359.04,-359.04z"/>
      <path class="fil3 str1" d="M3060.71 5654.81c198.29,0 359.04,160.75 359.04,359.04 0,198.29 -160.75,359.04 -359.04,359.04 -198.29,0 -359.04,-160.75 -359.04,-359.04 0,-198.29 160.75,-359.04 359.04,-359.04z"/>
      <path class="fil3 str1" d="M4028.99 5654.81c198.29,0 359.04,160.75 359.04,359.04 0,198.29 -160.75,359.04 -359.04,359.04 -198.29,0 -359.04,-160.75 -359.04,-359.04 0,-198.29 160.75,-359.04 359.04,-359.04z"/>
      <path class="fil3 str1" d="M4997.27 5654.81c198.29,0 359.04,160.75 359.04,359.04 0,198.29 -160.75,359.04 -359.04,359.04 -198.29,0 -359.04,-160.75 -359.04,-359.04 0,-198.29 160.75,-359.04 359.04,-359.04z"/>
      <path class="fil3 str1" d="M5965.54 5654.81c198.29,0 359.04,160.75 359.04,359.04 0,198.29 -160.75,359.04 -359.04,359.04 -198.29,0 -359.04,-160.75 -359.04,-359.04 0,-198.29 160.75,-359.04 359.04,-359.04z"/>
      <path class="fil3 str1" d="M6933.82 5654.81c198.29,0 359.04,160.75 359.04,359.04 0,198.29 -160.75,359.04 -359.04,359.04 -198.29,0 -359.04,-160.75 -359.04,-359.04 0,-198.29 160.75,-359.04 359.04,-359.04z"/>
      <path class="fil3 str1" d="M7902.1 5654.81c198.29,0 359.04,160.75 359.04,359.04 0,198.29 -160.75,359.04 -359.04,359.04 -198.29,0 -359.04,-160.75 -359.04,-359.04 0,-198.29 160.75,-359.04 359.04,-359.04z"/>
      <path class="fil3 str1" d="M8870.37 5654.81c198.29,0 359.04,160.75 359.04,359.04 0,198.29 -160.75,359.04 -359.04,359.04 -198.29,0 -359.04,-160.75 -359.04,-359.04 0,-198.29 160.75,-359.04 359.04,-359.04z"/>
      <path class="fil3 str1" d="M9838.65 5654.81c198.29,0 359.04,160.75 359.04,359.04 0,198.29 -160.75,359.04 -359.04,359.04 -198.29,0 -359.04,-160.75 -359.04,-359.04 0,-198.29 160.75,-359.04 359.04,-359.04z"/>
      <path class="fil3 str1" d="M10806.93 5654.81c198.29,0 359.04,160.75 359.04,359.04 0,198.29 -160.75,359.04 -359.04,359.04 -198.29,0 -359.04,-160.75 -359.04,-359.04 0,-198.29 160.75,-359.04 359.04,-359.04z"/>
      <path class="fil3 str1" d="M11775.2 5654.81c198.29,0 359.04,160.75 359.04,359.04 0,198.29 -160.75,359.04 -359.04,359.04 -198.29,0 -359.04,-160.75 -359.04,-359.04 0,-198.29 160.75,-359.04 359.04,-359.04z"/>
      <path class="fil3 str1" d="M12743.48 5654.81c198.29,0 359.04,160.75 359.04,359.04 0,198.29 -160.75,359.04 -359.04,359.04 -198.29,0 -359.04,-160.75 -359.04,-359.04 0,-198.29 160.75,-359.04 359.04,-359.04z"/>
     </g>
     <circle class="fil2 str0" cx="13711.76" cy="6013.85" r="359.04"/>
    </g>
   </g>
   <g>
    <polygon class="fil4" points="11453.52,8316.76 11371.63,8340.62 11222.17,8257.32 11135.7,6241.04 11471.02,6350.92 "/>
    <path id="1" class="fil5" d="M11375.19 8352.76l-9.73 -1.1 2.63 -23.18 81.88 -23.86 7.11 24.28 -81.88 23.86zm-7.11 -24.28l7.11 24.28c-6.71,1.95 -13.75,-1.89 -15.72,-8.59 -1.96,-6.7 1.89,-13.73 8.61,-15.68zm-152.09 -60.12l-6.48 -10.5 18.84 -11.58 149.46 83.3 -12.36 22.08 -149.46 -83.3zm12.36 -22.08l-12.36 22.08c-6.11,-3.4 -8.29,-11.11 -4.89,-17.21 3.41,-6.09 11.13,-8.28 17.24,-4.87zm-105.3 -2004.7l16.61 -12.55 8.7 11.47 86.47 2016.28 -25.32 1.08 -86.47 -2016.28zm25.32 -1.08l-25.32 1.08c-0.3,-6.97 5.13,-12.88 12.12,-13.17 6.99,-0.3 12.9,5.12 13.2,12.09zm326.62 98.41l8.72 12.13 -16.63 11.9 -335.32 -109.88 7.91 -24.03 335.32 109.88zm-7.91 24.03l7.91 -24.03c6.65,2.18 10.27,9.32 8.09,15.96 -2.18,6.63 -9.35,10.24 -15.99,8.07zm-0.88 1953.94l-9.12 12.02 -16.22 -12.25 17.51 -1965.84 25.34 0.23 -17.51 1965.84zm-25.34 -0.23l25.34 0.23c-0.06,6.98 -5.79,12.59 -12.78,12.53 -7,-0.06 -12.62,-5.78 -12.56,-12.76z"/>
   </g>
   <g>
    <polygon class="fil4" points="10705.71,8826.82 10623.82,8850.69 10474.36,8767.39 10387.9,6751.11 10723.21,6860.99 "/>
    <path id="1" class="fil5" d="M10627.38 8862.83l-9.73 -1.1 2.63 -23.18 81.88 -23.86 7.11 24.28 -81.88 23.86zm-7.11 -24.28l7.11 24.28c-6.71,1.95 -13.75,-1.89 -15.72,-8.59 -1.96,-6.7 1.89,-13.73 8.61,-15.68zm-152.09 -60.12l-6.48 -10.5 18.84 -11.58 149.46 83.3 -12.36 22.08 -149.46 -83.3zm12.36 -22.08l-12.36 22.08c-6.11,-3.4 -8.29,-11.11 -4.89,-17.21 3.41,-6.09 11.13,-8.28 17.24,-4.87zm-105.3 -2004.7l16.61 -12.55 8.7 11.47 86.47 2016.28 -25.32 1.08 -86.47 -2016.28zm25.32 -1.08l-25.32 1.08c-0.3,-6.97 5.13,-12.88 12.12,-13.17 6.99,-0.3 12.9,5.12 13.2,12.09zm326.61 98.41l8.72 12.13 -16.63 11.9 -335.32 -109.88 7.91 -24.03 335.32 109.88zm-7.91 24.03l7.91 -24.03c6.65,2.18 10.27,9.32 8.09,15.96 -2.18,6.63 -9.35,10.24 -15.99,8.07zm-0.88 1953.94l-9.12 12.02 -16.22 -12.25 17.51 -1965.84 25.34 0.23 -17.51 1965.84zm-25.34 -0.23l25.34 0.23c-0.06,6.98 -5.79,12.59 -12.78,12.53 -7,-0.06 -12.62,-5.78 -12.56,-12.76z"/>
   </g>
   <g>
    <polygon class="fil4" points="9788.52,7928.71 9706.64,7952.57 9557.17,7869.28 9470.71,5853 9806.03,5962.87 "/>
    <path id="1" class="fil5" d="M9710.19 7964.71l-9.73 -1.1 2.63 -23.18 81.88 -23.86 7.11 24.28 -81.88 23.86zm-7.11 -24.28l7.11 24.28c-6.71,1.95 -13.75,-1.89 -15.72,-8.59 -1.96,-6.7 1.89,-13.73 8.61,-15.68zm-152.09 -60.12l-6.48 -10.5 18.84 -11.58 149.46 83.3 -12.36 22.08 -149.46 -83.3zm12.36 -22.08l-12.36 22.08c-6.11,-3.4 -8.29,-11.11 -4.89,-17.21 3.41,-6.09 11.13,-8.28 17.24,-4.87zm-105.3 -2004.7l16.61 -12.55 8.7 11.47 86.47 2016.28 -25.32 1.08 -86.47 -2016.28zm25.32 -1.08l-25.32 1.08c-0.3,-6.97 5.13,-12.88 12.12,-13.17 6.99,-0.3 12.9,5.12 13.2,12.09zm326.62 98.41l8.72 12.13 -16.63 11.9 -335.32 -109.88 7.91 -24.03 335.32 109.88zm-7.91 24.03l7.91 -24.03c6.65,2.18 10.27,9.32 8.09,15.96 -2.18,6.63 -9.35,10.24 -15.99,8.07zm-0.88 1953.94l-9.12 12.02 -16.22 -12.25 17.51 -1965.83 25.34 0.23 -17.51 1965.83zm-25.34 -0.23l25.34 0.23c-0.06,6.98 -5.79,12.59 -12.78,12.53 -7,-0.06 -12.62,-5.78 -12.56,-12.76z"/>
   </g>
   <g>
    <polygon class="fil4" points="8626.14,8003.74 8544.26,8027.6 8394.8,7944.3 8308.33,5928.02 8643.65,6037.9 "/>
    <path id="1" class="fil5" d="M8547.81 8039.74l-9.73 -1.1 2.63 -23.18 81.88 -23.86 7.11 24.28 -81.88 23.86zm-7.11 -24.28l7.11 24.28c-6.71,1.95 -13.75,-1.89 -15.72,-8.59 -1.96,-6.7 1.89,-13.73 8.61,-15.68zm-152.09 -60.12l-6.48 -10.5 18.84 -11.58 149.46 83.3 -12.36 22.08 -149.46 -83.3zm12.36 -22.08l-12.36 22.08c-6.11,-3.4 -8.29,-11.11 -4.89,-17.21 3.41,-6.09 11.13,-8.28 17.24,-4.87zm-105.3 -2004.7l16.61 -12.55 8.7 11.47 86.46 2016.28 -25.32 1.08 -86.46 -2016.28zm25.32 -1.08l-25.32 1.08c-0.3,-6.97 5.13,-12.88 12.12,-13.17 6.99,-0.3 12.9,5.12 13.2,12.09zm326.61 98.41l8.72 12.13 -16.63 11.9 -335.32 -109.88 7.91 -24.03 335.32 109.88zm-7.91 24.03l7.91 -24.03c6.65,2.18 10.27,9.32 8.09,15.96 -2.18,6.63 -9.35,10.24 -15.99,8.07zm-0.88 1953.94l-9.12 12.02 -16.22 -12.25 17.51 -1965.84 25.34 0.23 -17.51 1965.84zm-25.34 -0.23l25.34 0.23c-0.06,6.98 -5.79,12.59 -12.78,12.53 -7,-0.06 -12.62,-5.78 -12.56,-12.76z"/>
   </g>
   <g>
    <polygon class="fil4" points="8626.14,8003.74 8544.26,8027.6 8394.8,7944.3 8308.33,5928.02 8643.65,6037.9 "/>
    <path id="1" class="fil5" d="M8547.81 8039.74l-9.73 -1.1 2.63 -23.18 81.88 -23.86 7.11 24.28 -81.88 23.86zm-7.11 -24.28l7.11 24.28c-6.71,1.95 -13.75,-1.89 -15.72,-8.59 -1.96,-6.7 1.89,-13.73 8.61,-15.68zm-152.09 -60.12l-6.48 -10.5 18.84 -11.58 149.46 83.3 -12.36 22.08 -149.46 -83.3zm12.36 -22.08l-12.36 22.08c-6.11,-3.4 -8.29,-11.11 -4.89,-17.21 3.41,-6.09 11.13,-8.28 17.24,-4.87zm-105.3 -2004.7l16.61 -12.55 8.7 11.47 86.46 2016.28 -25.32 1.08 -86.46 -2016.28zm25.32 -1.08l-25.32 1.08c-0.3,-6.97 5.13,-12.88 12.12,-13.17 6.99,-0.3 12.9,5.12 13.2,12.09zm326.61 98.41l8.72 12.13 -16.63 11.9 -335.32 -109.88 7.91 -24.03 335.32 109.88zm-7.91 24.03l7.91 -24.03c6.65,2.18 10.27,9.32 8.09,15.96 -2.18,6.63 -9.35,10.24 -15.99,8.07zm-0.88 1953.94l-9.12 12.02 -16.22 -12.25 17.51 -1965.84 25.34 0.23 -17.51 1965.84zm-25.34 -0.23l25.34 0.23c-0.06,6.98 -5.79,12.59 -12.78,12.53 -7,-0.06 -12.62,-5.78 -12.56,-12.76z"/>
   </g>
   <polygon class="fil6 str2" points="11371.63,8340.62 11309.91,6343.85 11470.57,6402.01 11453.52,8316.76 "/>
   <polygon class="fil6 str3" points="10623.82,8850.68 10562.1,6853.92 10722.76,6912.08 10705.71,8826.82 "/>
   <polygon class="fil6 str4" points="9706.64,7952.57 9644.92,5955.81 9805.57,6013.97 9788.52,7928.71 "/>
   <polygon class="fil6 str5" points="8544.26,8027.6 8482.54,6030.83 8643.2,6089 8626.15,8003.74 "/>
   <polygon class="fil6 str5" points="8544.26,8027.6 8482.54,6030.83 8643.2,6089 8626.15,8003.74 "/>
   <path class="fil7 str6" d="M11733.13 4039.12c-81.31,-201.89 -1111.19,-215.47 -1635.4,-229.04 -201.95,-2.59 -276.54,-32.55 -296.44,211.39 -19.9,243.94 -4.64,1332.64 -272.01,1510.03 -376.31,249.67 -1226.75,199.6 -1279.86,509.15 -15.02,87.55 -12.79,197.62 -3.49,285.96 749.23,188.37 1498.46,376.73 2247.69,565.09 280.16,-182.49 560.31,-364.98 840.46,-547.46 189.05,-123.15 148.92,-82.85 174.59,-310.95 74.81,-664.72 149.63,-1329.45 224.45,-1994.17z"/>
   <path class="fil8 str7" d="M11733.13 4039.12c-112.76,-39.52 -146.89,119.54 -141.08,250.9 1.81,985.75 -331.52,1796.5 -929.02,1977.84 -249.9,77.93 -191.52,434.33 -169.41,623.84l977.15 -495.63c83.7,-757.92 178.66,-1599.04 262.35,-2356.96z"/>
   <g>
    <polygon class="fil4" points="11799.81,8692.14 11739.3,10804.57 11636.94,10845.7 11447.24,10710.43 11379.56,8630.69 11643.47,8763.81 "/>
    <path id="1" class="fil5" d="M11751.96 10804.94l-7.96 11.46 -17.37 -12.2 60.51 -2112.43 25.33 0.74 -60.51 2112.43zm-25.33 -0.74l25.33 0.74c-0.2,7.03 -6.04,12.57 -13.03,12.37 -6.99,-0.2 -12.5,-6.07 -12.3,-13.1zm-84.99 53.32l-12.03 -1.44 2.63 -22.22 102.36 -41.13 9.41 23.66 -102.36 41.13zm-9.41 -23.66l9.41 23.66c-6.5,2.61 -13.87,-0.57 -16.47,-7.1 -2.6,-6.53 0.57,-13.95 7.06,-16.56zm-192.32 -113.05l-5.33 -9.98 20 -10.81 189.7 135.27 -14.66 20.79 -189.7 -135.27zm14.66 -20.79l-14.66 20.79c-5.71,-4.07 -7.05,-12.02 -3.01,-17.76 4.05,-5.74 11.96,-7.09 17.67,-3.02zm-87.68 -2068.93l18.35 -11.8 6.98 10.97 67.68 2079.74 -25.33 0.83 -67.68 -2079.74zm25.33 -0.83l-25.33 0.83c-0.23,-7.03 5.26,-12.92 12.25,-13.15 6.99,-0.23 12.85,5.29 13.08,12.32zm256.92 122.15l-0.43 22.98 -10.94 -0.2 -263.9 -133.12 11.36 -22.77 263.9 133.12zm-11.36 22.77l11.36 -22.77c6.25,3.16 8.78,10.82 5.64,17.1 -3.14,6.29 -10.75,8.83 -17.01,5.67zm156.77 -94.65l17.92 11.96 -7.41 11.22 -156.35 71.68 -10.51 -23.18 156.35 -71.68zm10.51 23.18l-10.51 -23.18c6.36,-2.92 13.88,-0.1 16.78,6.3 2.9,6.4 0.09,13.96 -6.27,16.88z"/>
   </g>
   <polygon class="fil9" points="5795.97,9080.54 7356.57,9622.66 9044.47,9095.11 9044.84,9046.37 7423.96,8602.47 5795.97,9031.41 "/>
   <polygon class="fil10" points="5795.97,9031.42 7356.57,9573.53 9044.84,9046.37 7423.96,8553.34 "/>
   <g>
    <polygon class="fil4" points="9207.54,9816.6 9125.65,9840.47 8976.19,9757.17 8889.72,7740.89 9225.05,7850.77 "/>
    <path id="1" class="fil5" d="M9129.21 9852.6l-9.73 -1.1 2.63 -23.18 81.88 -23.86 7.11 24.28 -81.88 23.86zm-7.11 -24.28l7.11 24.28c-6.71,1.95 -13.75,-1.89 -15.72,-8.59 -1.96,-6.7 1.89,-13.73 8.61,-15.68zm-152.09 -60.12l-6.48 -10.5 18.84 -11.58 149.46 83.3 -12.36 22.08 -149.46 -83.3zm12.36 -22.08l-12.36 22.08c-6.11,-3.4 -8.29,-11.11 -4.89,-17.21 3.41,-6.09 11.13,-8.28 17.24,-4.87zm-105.3 -2004.7l16.61 -12.55 8.7 11.47 86.47 2016.28 -25.32 1.08 -86.47 -2016.28zm25.32 -1.08l-25.32 1.08c-0.3,-6.97 5.13,-12.88 12.12,-13.17 6.99,-0.3 12.9,5.12 13.2,12.09zm326.62 98.41l8.72 12.13 -16.63 11.9 -335.32 -109.88 7.91 -24.03 335.32 109.88zm-7.91 24.03l7.91 -24.03c6.65,2.18 10.27,9.32 8.09,15.96 -2.18,6.63 -9.35,10.24 -15.99,8.07zm-0.88 1953.94l-9.12 12.02 -16.22 -12.25 17.51 -1965.83 25.34 0.23 -17.51 1965.83zm-25.34 -0.23l25.34 0.23c-0.06,6.98 -5.79,12.59 -12.78,12.53 -7,-0.06 -12.62,-5.78 -12.56,-12.76z"/>
   </g>
   <g>
    <polygon class="fil4" points="10522.96,9141.27 10469.65,9163.37 10302.86,9074.12 10248.69,8242.34 10544.18,8370.41 "/>
    <path id="1" class="fil5" d="M10474.5 9175.07l-10.83 -0.54 1.13 -22.87 53.31 -22.1 9.7 23.4 -53.31 22.1zm-9.7 -23.4l9.7 23.4c-6.46,2.68 -13.88,-0.39 -16.56,-6.85 -2.68,-6.46 0.39,-13.87 6.85,-16.55zm-167.91 -66.38l-6.66 -10.34 18.62 -11.99 166.78 89.25 -11.96 22.33 -166.78 -89.25zm11.96 -22.33l-11.96 22.33c-6.17,-3.3 -8.49,-10.98 -5.19,-17.14 3.3,-6.17 10.98,-8.49 17.15,-5.19zm-72.8 -819.78l17.69 -12.44 7.6 10.8 54.18 831.77 -25.29 1.65 -54.18 -831.77zm25.29 -1.65l-25.29 1.65c-0.45,-6.98 4.84,-13.01 11.82,-13.46 6.98,-0.45 13.02,4.84 13.47,11.81zm287.89 117.27l7.62 11.97 -17.71 11.27 -295.49 -128.06 10.08 -23.24 295.49 128.06zm-10.08 23.24l10.08 -23.24c6.42,2.78 9.37,10.24 6.59,16.66 -2.78,6.41 -10.25,9.36 -16.67,6.58zm-3.52 759.59l-7.81 11.35 -17.52 -12.05 21.22 -770.86 25.33 0.69 -21.22 770.86zm-25.33 -0.69l25.33 0.69c-0.19,6.99 -6.02,12.51 -13.01,12.31 -6.99,-0.19 -12.51,-6.02 -12.32,-13.01z"/>
   </g>
   <g>
    <polygon class="fil4" points="12412.07,8509.09 12494.65,9676.22 12689.72,9791.26 12738.81,9741.93 12719.62,8348.87 "/>
    <path id="1" class="fil5" d="M12507.29 9675.33l-19.08 11.79 -6.2 -10.01 -82.58 -1167.13 25.28 -1.78 82.58 1167.13zm-25.28 1.78l25.28 -1.78c0.49,6.97 -4.77,13.03 -11.75,13.52 -6.98,0.49 -13.04,-4.76 -13.53,-11.73zm214.14 103.24l2.54 19.83 -15.43 1.98 -195.06 -115.04 12.88 -21.8 195.06 115.04zm-12.88 21.8l12.88 -21.8c6.03,3.55 8.03,11.32 4.47,17.34 -3.56,6.02 -11.33,8.02 -17.35,4.47zm46.55 -69.16l21.66 8.75 -3.68 9.1 -49.09 49.33 -17.97 -17.85 49.09 -49.33zm17.97 17.85l-17.97 -17.85c4.93,-4.96 12.96,-4.98 17.92,-0.05 4.96,4.93 4.99,12.94 0.05,17.9zm-40.85 -1401.81l6.81 -11.4 18.53 11.05 19.19 1393.06 -25.34 0.35 -19.19 -1393.06zm25.34 -0.35l-25.34 0.35c-0.1,-6.99 5.5,-12.73 12.5,-12.83 7,-0.1 12.75,5.49 12.84,12.48zm-314.36 171.62l-18.5 -10.33 6.78 -12.11 307.54 -160.22 11.72 22.44 -307.54 160.22zm-11.72 -22.44l11.72 22.44c-6.2,3.23 -13.86,0.83 -17.09,-5.37 -3.23,-6.2 -0.83,-13.84 5.38,-17.07z"/>
   </g>
   <g>
    <polygon class="fil6" points="11643.47,8763.81 11636.94,10845.7 11739.3,10804.57 11799.81,8692.14 "/>
    <path id="1" class="fil5" d="M11649.61 10845.73l-7.97 11.79 -17.37 -11.87 6.53 -2081.88 25.34 0.08 -6.53 2081.88zm-25.34 -0.08l25.34 0.08c-0.02,7.03 -5.71,12.72 -12.71,12.7 -7,-0.02 -12.65,-5.74 -12.63,-12.78zm110.33 -52.92l17.37 12.2 -7.96 11.46 -102.36 41.13 -9.41 -23.66 102.36 -41.13zm9.41 23.66l-9.41 -23.66c6.5,-2.61 13.87,0.57 16.47,7.1 2.6,6.53 -0.57,13.95 -7.06,16.56zm43.15 -2124.63l7.41 -11.22 17.92 11.96 -60.51 2112.43 -25.33 -0.74 60.51 -2112.43zm25.33 0.74l-25.33 -0.74c0.2,-7.03 6.04,-12.57 13.03,-12.37 6.99,0.2 12.5,6.07 12.3,13.1zm-163.76 82.9l-17.93 -11.63 7.41 -11.55 156.35 -71.68 10.51 23.18 -156.35 71.68zm-10.51 -23.18l10.51 23.18c-6.36,2.92 -13.88,0.1 -16.78,-6.3 -2.9,-6.4 -0.09,-13.96 6.27,-16.88z"/>
   </g>
   <g>
    <polygon class="fil6" points="12630.5,8395.29 12689.72,9791.26 12738.81,9741.93 12719.62,8348.87 "/>
    <path id="1" class="fil5" d="M12702.38 9790.72l-3.67 9.46 -21.65 -8.39 -59.22 -1395.97 25.32 -1.07 59.22 1395.97zm-25.32 1.07l25.32 -1.07c0.29,6.98 -5.13,12.89 -12.12,13.18 -6.99,0.29 -12.9,-5.13 -13.19,-12.11zm52.76 -58.79l21.66 8.75 -3.68 9.1 -49.09 49.33 -17.97 -17.85 49.09 -49.33zm17.97 17.85l-17.97 -17.85c4.93,-4.96 12.96,-4.98 17.92,-0.05 4.96,4.93 4.99,12.94 0.05,17.9zm-40.85 -1401.81l6.81 -11.4 18.53 11.05 19.19 1393.06 -25.34 0.35 -19.19 -1393.06zm25.34 -0.35l-25.34 0.35c-0.1,-6.99 5.5,-12.73 12.5,-12.83 7,-0.1 12.75,5.49 12.84,12.48zm-95.93 57.83l-18.52 -10.69 6.8 -11.76 89.12 -46.43 11.72 22.45 -89.12 46.43zm-11.72 -22.45l11.72 22.45c-6.2,3.23 -13.86,0.83 -17.09,-5.37 -3.23,-6.2 -0.83,-13.85 5.38,-17.08z"/>
   </g>
   <path class="fil11 str8" d="M11797.21 6685.6c-364.57,-70.94 -561.77,-96.38 -958.84,-220.93 -187.32,-53.62 -334.02,-63.37 -365.36,95.87 44.94,130.51 89.88,261.02 134.83,391.53 351.49,14.87 702.99,29.74 1054.48,44.61 44.96,-103.69 89.92,-207.39 134.89,-311.08z"/>
   <path class="fil12 str9" d="M11847.38 6979.74c-415.95,-142.99 -890.4,-259.97 -1306.36,-402.96 -106.16,-35.74 -189.56,-19.5 -298.97,39 -389.44,181.98 -778.88,363.95 -1168.32,545.92 207.46,168.99 414.92,337.98 622.38,506.96 701.92,34.66 1403.85,69.33 2105.78,103.99 -4.33,-255.64 49.83,-537.27 45.49,-792.91z"/>
   <path class="fil13 str10" d="M12622.35 5666.86c-280.12,976.88 -560.23,1953.75 -840.35,2930.63 -36.51,122.68 -112.02,219.36 -265.52,134.06 -900.9,-326.14 -1801.81,-652.28 -2702.72,-978.42 2.17,-127.82 4.33,-255.64 6.5,-383.46 -26,-101.82 6.5,-281.64 253.47,-207.98 493.95,99.66 997.2,318.53 1481.84,298.97 753.42,-30.4 1280.36,-740.92 1559.83,-1696.32 116.99,-214.48 510.2,-237.22 506.94,-97.49z"/>
   <path class="fil14 str11" d="M12622.35 5666.86c413.79,-145.15 827.58,-290.3 1241.37,-435.45 12.46,43.33 -2.7,195.52 -38.99,287.59 -396.46,953.23 -492.02,1518.89 -777.99,2400.63 -90.99,240.48 -340.89,487.08 -483.88,519.57 -313.83,110.04 -561.66,196.94 -875.49,306.97 311.66,-1026.44 623.32,-2052.88 934.98,-3079.32z"/>
   <path class="fil15 str12" d="M13867.25 5254.13c-36.46,-157.13 -143.04,-231.73 -352.81,-162.46 -161.8,106.6 -406.98,219.08 -668.8,307.46 -309.83,104.6 -616.94,202.79 -676.98,290.08 106.95,-58.5 310.8,-109.16 404.73,-83.57 34.07,9.28 44.73,58.09 40.01,90.71 413.79,-145.15 840.06,-297.06 1253.85,-442.22z"/>
   <polygon class="fil6 str13" points="10469.65,9163.37 10445.68,8343.91 10543.93,8379.47 10522.96,9141.27 "/>
   <polygon class="fil6 str14" points="9125.66,9840.47 9063.93,7843.7 9224.59,7901.86 9207.54,9816.6 "/>
   <g>
    <polygon class="fil4" points="3311.62,8295.72 3393.5,8319.58 3542.96,8236.28 3629.43,6220 3294.11,6329.88 "/>
    <path id="1" class="fil5" d="M3389.94 8331.72l-81.88 -23.86 7.11 -24.28 81.88 23.86 2.63 23.18 -9.73 1.1zm7.11 -24.28c6.71,1.95 10.57,8.98 8.61,15.68 -1.96,6.7 -9,10.55 -15.72,8.59l7.11 -24.28zm152.09 -60.12l-149.46 83.3 -12.36 -22.08 149.46 -83.3 18.84 11.58 -6.48 10.5zm-12.36 -22.08c6.11,-3.4 13.83,-1.22 17.24,4.87 3.41,6.09 1.22,13.8 -4.89,17.21l-12.36 -22.08zm105.3 -2004.7l-86.47 2016.28 -25.32 -1.08 86.47 -2016.28 8.7 -11.47 16.61 12.55zm-25.32 -1.08c0.3,-6.97 6.21,-12.39 13.2,-12.09 6.99,0.3 12.41,6.2 12.12,13.17l-25.32 -1.08zm-326.62 98.41l335.32 -109.88 7.91 24.03 -335.32 109.88 -16.63 -11.9 8.72 -12.13zm7.91 24.03c-6.65,2.18 -13.81,-1.43 -15.99,-8.07 -2.18,-6.63 1.44,-13.78 8.09,-15.96l7.91 24.03zm0.88 1953.94l-17.51 -1965.84 25.34 -0.23 17.51 1965.84 -16.22 12.25 -9.12 -12.02zm25.34 -0.23c0.06,6.98 -5.56,12.7 -12.56,12.76 -7,0.06 -12.72,-5.55 -12.78,-12.53l25.34 -0.23z"/>
   </g>
   <g>
    <polygon class="fil4" points="4059.42,8805.78 4141.31,8829.65 4290.77,8746.35 4377.24,6730.07 4041.92,6839.95 "/>
    <path id="1" class="fil5" d="M4137.75 8841.78l-81.88 -23.86 7.11 -24.28 81.88 23.86 2.63 23.18 -9.73 1.1zm7.11 -24.28c6.71,1.95 10.57,8.98 8.61,15.68 -1.96,6.7 -9,10.55 -15.72,8.59l7.11 -24.28zm152.09 -60.12l-149.46 83.3 -12.36 -22.08 149.46 -83.3 18.84 11.58 -6.48 10.5zm-12.36 -22.08c6.11,-3.4 13.83,-1.22 17.24,4.87 3.41,6.09 1.22,13.8 -4.89,17.21l-12.36 -22.08zm105.3 -2004.7l-86.47 2016.28 -25.32 -1.08 86.47 -2016.28 8.7 -11.47 16.61 12.55zm-25.32 -1.08c0.3,-6.97 6.21,-12.39 13.2,-12.09 6.99,0.3 12.41,6.2 12.12,13.17l-25.32 -1.08zm-326.61 98.41l335.32 -109.88 7.91 24.03 -335.32 109.88 -16.63 -11.9 8.72 -12.13zm7.91 24.03c-6.65,2.18 -13.81,-1.43 -15.99,-8.07 -2.18,-6.63 1.44,-13.78 8.09,-15.96l7.91 24.03zm0.88 1953.94l-17.51 -1965.83 25.34 -0.23 17.51 1965.83 -16.22 12.25 -9.12 -12.02zm25.34 -0.23c0.06,6.98 -5.56,12.7 -12.56,12.76 -7,0.06 -12.72,-5.55 -12.78,-12.53l25.34 -0.23z"/>
   </g>
   <g>
    <polygon class="fil4" points="4976.61,7907.67 5058.5,7931.53 5207.96,7848.23 5294.43,5831.96 4959.11,5941.83 "/>
    <path id="1" class="fil5" d="M5054.94 7943.67l-81.88 -23.86 7.11 -24.28 81.88 23.86 2.63 23.18 -9.73 1.1zm7.11 -24.28c6.71,1.95 10.57,8.98 8.61,15.68 -1.96,6.7 -9,10.55 -15.72,8.59l7.11 -24.28zm152.09 -60.12l-149.46 83.3 -12.36 -22.08 149.46 -83.3 18.84 11.58 -6.48 10.5zm-12.36 -22.08c6.11,-3.4 13.83,-1.22 17.24,4.87 3.41,6.09 1.22,13.8 -4.89,17.21l-12.36 -22.08zm105.3 -2004.7l-86.47 2016.28 -25.32 -1.08 86.47 -2016.28 8.7 -11.47 16.61 12.55zm-25.32 -1.08c0.3,-6.97 6.21,-12.39 13.2,-12.09 6.99,0.3 12.41,6.2 12.12,13.17l-25.32 -1.08zm-326.62 98.41l335.32 -109.88 7.91 24.03 -335.32 109.88 -16.63 -11.9 8.72 -12.13zm7.91 24.03c-6.65,2.18 -13.81,-1.43 -15.99,-8.07 -2.18,-6.63 1.44,-13.78 8.09,-15.96l7.91 24.03zm0.88 1953.94l-17.51 -1965.84 25.34 -0.23 17.51 1965.84 -16.22 12.25 -9.12 -12.02zm25.34 -0.23c0.06,6.98 -5.56,12.7 -12.56,12.76 -7,0.06 -12.72,-5.55 -12.78,-12.53l25.34 -0.23z"/>
   </g>
   <g>
    <polygon class="fil4" points="6138.99,7982.7 6220.87,8006.56 6370.33,7923.26 6456.8,5906.98 6121.48,6016.86 "/>
    <path id="1" class="fil5" d="M6217.32 8018.7l-81.88 -23.86 7.11 -24.28 81.88 23.86 2.63 23.18 -9.73 1.1zm7.11 -24.28c6.71,1.95 10.57,8.98 8.61,15.68 -1.96,6.7 -9,10.55 -15.72,8.59l7.11 -24.28zm152.09 -60.12l-149.46 83.3 -12.36 -22.08 149.46 -83.3 18.84 11.58 -6.48 10.5zm-12.36 -22.08c6.11,-3.4 13.83,-1.22 17.24,4.87 3.41,6.09 1.22,13.8 -4.89,17.21l-12.36 -22.08zm105.3 -2004.7l-86.46 2016.28 -25.32 -1.08 86.46 -2016.28 8.7 -11.47 16.61 12.55zm-25.32 -1.08c0.3,-6.97 6.21,-12.39 13.2,-12.09 6.99,0.3 12.41,6.2 12.12,13.17l-25.32 -1.08zm-326.61 98.41l335.32 -109.88 7.91 24.03 -335.32 109.88 -16.63 -11.9 8.72 -12.13zm7.91 24.03c-6.65,2.18 -13.81,-1.43 -15.99,-8.07 -2.18,-6.63 1.44,-13.78 8.09,-15.96l7.91 24.03zm0.88 1953.94l-17.51 -1965.84 25.34 -0.23 17.51 1965.84 -16.22 12.25 -9.12 -12.02zm25.34 -0.23c0.06,6.98 -5.56,12.7 -12.56,12.76 -7,0.06 -12.72,-5.55 -12.78,-12.53l25.34 -0.23z"/>
   </g>
   <g>
    <polygon class="fil4" points="6138.99,7982.7 6220.87,8006.56 6370.33,7923.26 6456.8,5906.98 6121.48,6016.86 "/>
    <path id="1" class="fil5" d="M6217.32 8018.7l-81.88 -23.86 7.11 -24.28 81.88 23.86 2.63 23.18 -9.73 1.1zm7.11 -24.28c6.71,1.95 10.57,8.98 8.61,15.68 -1.96,6.7 -9,10.55 -15.72,8.59l7.11 -24.28zm152.09 -60.12l-149.46 83.3 -12.36 -22.08 149.46 -83.3 18.84 11.58 -6.48 10.5zm-12.36 -22.08c6.11,-3.4 13.83,-1.22 17.24,4.87 3.41,6.09 1.22,13.8 -4.89,17.21l-12.36 -22.08zm105.3 -2004.7l-86.46 2016.28 -25.32 -1.08 86.46 -2016.28 8.7 -11.47 16.61 12.55zm-25.32 -1.08c0.3,-6.97 6.21,-12.39 13.2,-12.09 6.99,0.3 12.41,6.2 12.12,13.17l-25.32 -1.08zm-326.61 98.41l335.32 -109.88 7.91 24.03 -335.32 109.88 -16.63 -11.9 8.72 -12.13zm7.91 24.03c-6.65,2.18 -13.81,-1.43 -15.99,-8.07 -2.18,-6.63 1.44,-13.78 8.09,-15.96l7.91 24.03zm0.88 1953.94l-17.51 -1965.84 25.34 -0.23 17.51 1965.84 -16.22 12.25 -9.12 -12.02zm25.34 -0.23c0.06,6.98 -5.56,12.7 -12.56,12.76 -7,0.06 -12.72,-5.55 -12.78,-12.53l25.34 -0.23z"/>
   </g>
   <polygon class="fil6 str15" points="3393.5,8319.58 3455.22,6322.81 3294.57,6380.97 3311.62,8295.72 "/>
   <polygon class="fil6 str16" points="4141.31,8829.65 4203.03,6832.88 4042.37,6891.04 4059.42,8805.78 "/>
   <polygon class="fil6 str17" points="5058.5,7931.53 5120.22,5934.77 4959.56,5992.93 4976.61,7907.67 "/>
   <polygon class="fil6 str18" points="6220.87,8006.56 6282.59,6009.79 6121.94,6067.96 6138.99,7982.7 "/>
   <polygon class="fil6 str18" points="6220.87,8006.56 6282.59,6009.79 6121.94,6067.96 6138.99,7982.7 "/>
   <path class="fil16 str19" d="M3032 4018.08c81.31,-201.89 1111.19,-215.47 1635.4,-229.04 201.95,-2.59 276.54,-32.55 296.44,211.39 19.9,243.94 4.64,1332.64 272.01,1510.03 376.31,249.66 1226.75,199.6 1279.86,509.15 15.02,87.55 12.79,197.62 3.49,285.96 -749.23,188.37 -1498.46,376.73 -2247.69,565.09 -280.16,-182.49 -560.31,-364.98 -840.46,-547.46 -189.05,-123.15 -148.92,-82.85 -174.59,-310.95 -74.81,-664.72 -149.63,-1329.45 -224.45,-1994.17z"/>
   <path class="fil17 str20" d="M3032 4018.08c112.76,-39.52 146.89,119.54 141.08,250.9 -1.81,985.75 331.52,1796.5 929.02,1977.85 249.9,77.92 191.52,434.32 169.41,623.84l-977.15 -495.63c-83.7,-757.92 -178.66,-1599.04 -262.35,-2356.96z"/>
   <g>
    <polygon class="fil4" points="2965.32,8671.09 3025.83,10783.53 3128.19,10824.66 3317.89,10689.39 3385.57,8609.65 3121.67,8742.78 "/>
    <path id="1" class="fil5" d="M3013.17 10783.9l-60.51 -2112.43 25.33 -0.74 60.51 2112.43 -17.37 12.2 -7.96 -11.46zm25.33 -0.74c0.2,7.03 -5.31,12.9 -12.3,13.1 -6.99,0.2 -12.83,-5.33 -13.03,-12.37l25.33 -0.74zm84.99 53.32l-102.36 -41.13 9.41 -23.66 102.36 41.13 2.63 22.22 -12.03 1.44zm9.41 -23.66c6.5,2.61 9.66,10.02 7.06,16.56 -2.6,6.53 -9.97,9.71 -16.47,7.1l9.41 -23.66zm192.32 -113.04l-189.7 135.27 -14.66 -20.79 189.7 -135.27 20 10.81 -5.33 9.98zm-14.66 -20.79c5.71,-4.07 13.62,-2.72 17.67,3.02 4.05,5.74 2.7,13.69 -3.01,17.76l-14.66 -20.79zm87.68 -2068.93l-67.68 2079.74 -25.33 -0.83 67.68 -2079.74 6.98 -10.97 18.35 11.8zm-25.33 -0.83c0.23,-7.03 6.09,-12.55 13.08,-12.32 6.99,0.23 12.48,6.12 12.25,13.15l-25.33 -0.83zm-256.92 122.15l263.9 -133.13 11.36 22.77 -263.9 133.13 -10.94 0.2 -0.43 -22.98zm11.36 22.77c-6.25,3.16 -13.87,0.61 -17.01,-5.67 -3.14,-6.29 -0.61,-13.95 5.64,-17.1l11.36 22.77zm-156.77 -94.66l156.35 71.68 -10.51 23.18 -156.35 -71.68 -7.41 -11.22 17.92 -11.96zm-10.51 23.18c-6.36,-2.92 -9.17,-10.48 -6.27,-16.88 2.9,-6.4 10.42,-9.22 16.78,-6.3l-10.51 23.18z"/>
   </g>
   <g>
    <polygon class="fil4" points="5557.59,9795.56 5639.48,9819.42 5788.94,9736.13 5875.41,7719.85 5540.09,7829.73 "/>
    <path id="1" class="fil5" d="M5635.93 9831.56l-81.88 -23.86 7.11 -24.28 81.88 23.86 2.63 23.18 -9.73 1.1zm7.11 -24.28c6.71,1.95 10.57,8.98 8.61,15.68 -1.96,6.7 -9,10.55 -15.72,8.59l7.11 -24.28zm152.09 -60.12l-149.46 83.3 -12.36 -22.08 149.46 -83.3 18.84 11.58 -6.48 10.5zm-12.36 -22.08c6.11,-3.4 13.83,-1.22 17.24,4.87 3.41,6.09 1.22,13.8 -4.89,17.21l-12.36 -22.08zm105.3 -2004.7l-86.47 2016.28 -25.32 -1.08 86.47 -2016.28 8.7 -11.47 16.61 12.55zm-25.32 -1.08c0.3,-6.97 6.21,-12.39 13.2,-12.09 6.99,0.3 12.41,6.2 12.12,13.17l-25.32 -1.08zm-326.62 98.41l335.32 -109.88 7.91 24.03 -335.32 109.88 -16.63 -11.9 8.72 -12.13zm7.91 24.03c-6.65,2.18 -13.81,-1.43 -15.99,-8.07 -2.18,-6.63 1.44,-13.78 8.09,-15.96l7.91 24.03zm0.88 1953.94l-17.51 -1965.83 25.34 -0.23 17.51 1965.83 -16.22 12.25 -9.12 -12.02zm25.34 -0.23c0.06,6.98 -5.56,12.7 -12.56,12.76 -7,0.06 -12.72,-5.55 -12.78,-12.53l25.34 -0.23z"/>
   </g>
   <g>
    <polygon class="fil4" points="4242.18,9120.23 4295.49,9142.33 4462.27,9053.07 4516.45,8221.3 4220.95,8349.37 "/>
    <path id="1" class="fil5" d="M4290.63 9154.03l-53.31 -22.1 9.7 -23.4 53.31 22.1 1.13 22.87 -10.83 0.54zm9.7 -23.4c6.46,2.68 9.53,10.09 6.85,16.55 -2.68,6.46 -10.09,9.53 -16.56,6.85l9.7 -23.4zm167.91 -66.38l-166.78 89.25 -11.96 -22.33 166.78 -89.25 18.62 11.99 -6.66 10.34zm-11.96 -22.33c6.17,-3.3 13.85,-0.98 17.15,5.19 3.3,6.17 0.98,13.84 -5.19,17.14l-11.96 -22.33zm72.8 -819.78l-54.18 831.77 -25.29 -1.65 54.18 -831.77 7.6 -10.8 17.69 12.44zm-25.29 -1.65c0.45,-6.98 6.49,-12.27 13.47,-11.81 6.98,0.45 12.27,6.48 11.82,13.46l-25.29 -1.65zm-287.89 117.27l295.49 -128.06 10.08 23.24 -295.49 128.06 -17.71 -11.27 7.62 -11.97zm10.08 23.24c-6.42,2.78 -13.88,-0.17 -16.67,-6.58 -2.78,-6.41 0.16,-13.88 6.59,-16.66l10.08 23.24zm3.52 759.59l-21.22 -770.86 25.33 -0.69 21.22 770.86 -17.52 12.05 -7.81 -11.35zm25.33 -0.69c0.19,6.99 -5.33,12.82 -12.32,13.01 -6.99,0.19 -12.82,-5.32 -13.01,-12.31l25.33 -0.69z"/>
   </g>
   <g>
    <polygon class="fil4" points="2353.06,8488.05 2270.48,9655.18 2075.41,9770.22 2026.32,9720.89 2045.52,8327.83 "/>
    <path id="1" class="fil5" d="M2257.84 9654.29l82.58 -1167.13 25.28 1.78 -82.58 1167.13 -6.2 10.01 -19.08 -11.79zm25.28 1.78c-0.49,6.97 -6.55,12.23 -13.53,11.73 -6.98,-0.49 -12.24,-6.55 -11.75,-13.52l25.28 1.78zm-214.14 103.24l195.06 -115.04 12.88 21.8 -195.06 115.04 -15.43 -1.98 2.54 -19.83zm12.88 21.8c-6.03,3.55 -13.8,1.55 -17.35,-4.47 -3.56,-6.02 -1.56,-13.78 4.47,-17.34l12.88 21.8zm-46.55 -69.16l49.09 49.33 -17.97 17.85 -49.09 -49.33 -3.68 -9.1 21.66 -8.75zm-17.97 17.85c-4.93,-4.96 -4.91,-12.97 0.05,-17.9 4.96,-4.93 12.99,-4.9 17.92,0.05l-17.97 17.85zm40.85 -1401.81l-19.19 1393.06 -25.34 -0.35 19.19 -1393.06 18.53 -11.05 6.81 11.4zm-25.34 -0.35c0.1,-6.99 5.85,-12.58 12.84,-12.48 7,0.1 12.59,5.84 12.5,12.83l-25.34 -0.35zm314.36 171.62l-307.54 -160.22 11.72 -22.44 307.54 160.22 6.78 12.11 -18.5 10.33zm11.72 -22.44c6.2,3.23 8.61,10.88 5.38,17.07 -3.23,6.2 -10.89,8.6 -17.09,5.37l11.72 -22.44z"/>
   </g>
   <g>
    <polygon class="fil6" points="3121.67,8742.78 3128.19,10824.66 3025.83,10783.53 2965.32,8671.09 "/>
    <path id="1" class="fil5" d="M3115.52 10824.69l-6.53 -2081.88 25.34 -0.08 6.53 2081.88 -17.37 11.87 -7.97 -11.79zm25.34 -0.08c0.02,7.03 -5.64,12.76 -12.63,12.78 -7,0.02 -12.69,-5.67 -12.71,-12.7l25.34 -0.08zm-110.33 -52.92l102.36 41.13 -9.41 23.66 -102.36 -41.13 -7.96 -11.46 17.37 -12.2zm-9.41 23.66c-6.5,-2.61 -9.66,-10.02 -7.06,-16.56 2.6,-6.53 9.97,-9.71 16.47,-7.1l-9.41 23.66zm-43.15 -2124.63l60.51 2112.43 -25.33 0.74 -60.51 -2112.43 17.92 -11.96 7.41 11.22zm-25.33 0.74c-0.2,-7.03 5.31,-12.9 12.3,-13.1 6.99,-0.2 12.83,5.33 13.03,12.37l-25.33 0.74zm163.76 82.9l-156.35 -71.68 10.51 -23.18 156.35 71.68 7.41 11.55 -17.93 11.63zm10.51 -23.18c6.36,2.92 9.17,10.48 6.27,16.88 -2.9,6.4 -10.42,9.22 -16.78,6.3l10.51 -23.18z"/>
   </g>
   <g>
    <polygon class="fil6" points="2134.64,8374.25 2075.41,9770.22 2026.32,9720.89 2045.52,8327.83 "/>
    <path id="1" class="fil5" d="M2062.76 9769.68l59.22 -1395.97 25.32 1.07 -59.22 1395.97 -21.65 8.39 -3.67 -9.46zm25.32 1.07c-0.29,6.98 -6.21,12.4 -13.19,12.11 -6.99,-0.29 -12.42,-6.2 -12.12,-13.18l25.32 1.07zm-52.76 -58.79l49.09 49.33 -17.97 17.85 -49.09 -49.33 -3.68 -9.1 21.66 -8.75zm-17.97 17.85c-4.93,-4.96 -4.91,-12.97 0.05,-17.9 4.96,-4.93 12.99,-4.9 17.92,0.05l-17.97 17.85zm40.85 -1401.81l-19.19 1393.06 -25.34 -0.35 19.19 -1393.06 18.53 -11.05 6.81 11.4zm-25.34 -0.35c0.1,-6.99 5.85,-12.58 12.84,-12.48 7,0.1 12.59,5.84 12.5,12.83l-25.34 -0.35zm95.93 57.83l-89.12 -46.43 11.72 -22.45 89.12 46.43 6.8 11.76 -18.52 10.69zm11.72 -22.45c6.2,3.23 8.61,10.88 5.38,17.08 -3.23,6.2 -10.89,8.6 -17.09,5.37l11.72 -22.45z"/>
   </g>
   <path class="fil8 str21" d="M2967.93 6664.56c364.57,-70.94 561.77,-96.38 958.84,-220.93 187.32,-53.61 334.02,-63.36 365.36,95.87 -44.94,130.51 -89.88,261.02 -134.83,391.53 -351.49,14.87 -702.99,29.74 -1054.48,44.61 -44.96,-103.69 -89.92,-207.38 -134.89,-311.08z"/>
   <path class="fil18 str22" d="M2917.75 6958.7c415.95,-142.99 890.4,-259.97 1306.36,-402.96 106.16,-35.75 189.56,-19.5 298.97,39 389.44,181.98 778.88,363.95 1168.32,545.93 -207.46,168.99 -414.92,337.97 -622.38,506.96 -701.92,34.66 -1403.85,69.33 -2105.78,103.99 4.33,-255.64 -49.83,-537.28 -45.49,-792.91z"/>
   <path class="fil19 str23" d="M2142.78 5645.82c280.12,976.87 560.23,1953.75 840.35,2930.63 36.51,122.68 112.02,219.36 265.52,134.06 900.9,-326.14 1801.81,-652.27 2702.72,-978.41 -2.17,-127.82 -4.33,-255.64 -6.5,-383.46 26,-101.82 -6.5,-281.64 -253.47,-207.98 -493.95,99.65 -997.2,318.52 -1481.84,298.97 -753.42,-30.4 -1280.36,-740.92 -1559.83,-1696.32 -116.99,-214.47 -510.2,-237.22 -506.94,-97.49z"/>
   <path class="fil20 str24" d="M2142.78 5645.82c-413.79,-145.15 -827.58,-290.3 -1241.37,-435.46 -12.46,43.33 2.7,195.52 38.99,287.59 396.46,953.23 492.02,1518.89 777.99,2400.63 90.99,240.48 340.89,487.08 483.88,519.57 313.83,110.04 561.66,196.94 875.49,306.98 -311.66,-1026.44 -623.32,-2052.88 -934.98,-3079.32z"/>
   <path class="fil20 str25" d="M897.88 5233.09c36.46,-157.13 143.04,-231.73 352.81,-162.46 161.8,106.6 406.98,219.08 668.8,307.46 309.83,104.6 616.94,202.79 676.98,290.08 -106.95,-58.5 -310.8,-109.16 -404.73,-83.57 -34.07,9.28 -44.73,58.09 -40.01,90.71 -413.79,-145.15 -840.06,-297.06 -1253.85,-442.22z"/>
   <polygon class="fil6 str26" points="4295.49,9142.33 4319.45,8322.87 4221.2,8358.44 4242.18,9120.23 "/>
   <polygon class="fil6 str27" points="5639.48,9819.42 5701.2,7822.66 5540.54,7880.82 5557.59,9795.56 "/>
   <g>
    <polygon class="fil21" points="6979.07,5728.07 7838.48,5728.07 7838.48,9077.29 6979.07,9077.29 "/>
    <path id="1" class="fil22" d="M7838.48 5740.74l-859.41 0 0 -25.34 859.41 0 12.58 12.67 -12.58 12.67zm0 -25.34c6.95,0 12.58,5.68 12.58,12.67 0,7 -5.63,12.67 -12.58,12.67l0 -25.34zm-12.58 3361.89l0 -3349.22 25.16 0 0 3349.22 -12.58 12.67 -12.58 -12.67zm25.16 0c0,7 -5.63,12.67 -12.58,12.67 -6.95,0 -12.58,-5.68 -12.58,-12.67l25.16 0zm-871.99 -12.67l859.41 0 0 25.34 -859.41 0 -12.58 -12.67 12.58 -12.67zm0 25.34c-6.95,0 -12.58,-5.68 -12.58,-12.67 0,-7 5.63,-12.67 12.58,-12.67l0 25.34zm12.58 -3361.89l0 3349.22 -25.16 0 0 -3349.22 12.58 -12.67 12.58 12.67zm-25.16 0c0,-7 5.63,-12.67 12.58,-12.67 6.95,0 12.58,5.68 12.58,12.67l-25.16 0z"/>
   </g>
   <polygon class="fil23 str28" points="4445.84,5098.79 4478.54,5282.72 7266.54,6398.65 10727.58,5468.28 10714.42,5280.77 7873.74,4614.41 "/>
   <polygon class="fil10 str28" points="4445.84,5098.79 7266.54,6151.67 10714.42,5280.77 7873.74,4614.41 "/>
  </g>
 </g>
</svg>
